<svg width="25" height="27" fill="none" xmlns="http://www.w3.org/2000/svg"><path d="M23.093 11.085l-1.53-.511V4.688a1.875 1.875 0 00-1.875-1.875h-6.563V.937a.938.938 0 00-1.875 0v1.875H4.687a1.875 1.875 0 00-1.875 1.876v5.886l-1.53.51A1.874 1.874 0 000 12.865v3.073C0 23.15 11.472 26.1 11.96 26.223c.15.037.306.037.455 0 .489-.122 11.96-3.073 11.96-10.285v-3.073a1.875 1.875 0 00-1.282-1.78zm-9.968 6.727a.938.938 0 01-1.875 0v-7.398a.938.938 0 011.875 0v7.399zm6.563-7.863l-7.204-2.401a.938.938 0 00-.593 0L4.687 9.95V4.688h15v5.261z" fill="#fff"/></svg>