<svg width="25" height="22" fill="none" xmlns="http://www.w3.org/2000/svg"><path d="M23.537 19.497h-1.598V8.122a1.625 1.625 0 00-1.625-1.625h-4.469a.406.406 0 00-.406.406v12.594h-1.625V1.664a1.67 1.67 0 00-.625-1.32 1.625 1.625 0 00-1.902-.07l-8.125 5.41A1.625 1.625 0 002.44 7.04v12.458H.842a.831.831 0 00-.84.759.812.812 0 00.812.866h22.75a.813.813 0 00.813-.866.831.831 0 00-.84-.759zM6.908 17.06a.812.812 0 01-.866.812.83.83 0 01-.759-.84v-1.57a.832.832 0 01.759-.84.814.814 0 01.866.813v1.625zm0-5.688a.812.812 0 01-.866.813.832.832 0 01-.759-.841v-1.57a.832.832 0 01.759-.84.812.812 0 01.866.813v1.625zm4.062 5.688a.812.812 0 01-.866.812.83.83 0 01-.758-.839v-1.57a.832.832 0 01.758-.84.813.813 0 01.867.813v1.624zm0-5.688a.812.812 0 01-.866.813.832.832 0 01-.758-.84v-1.57a.832.832 0 01.758-.84.813.813 0 01.867.813v1.624z" fill="#F60303"/></svg>