<svg width="27" height="25" fill="none" xmlns="http://www.w3.org/2000/svg"><path d="M24.375 23.438a.938.938 0 01-.938.937H2.813a.938.938 0 010-1.875h5.626v-8.438H7.5a7.508 7.508 0 01-7.5-7.5A2.82 2.82 0 012.822 3.75h.047a2.76 2.76 0 012.756 2.756v.056A1.875 1.875 0 007.5 8.438h.938v-3.75a4.687 4.687 0 119.374 0v8.438h.938a1.875 1.875 0 001.875-1.875v-.056a2.76 2.76 0 012.756-2.757h.047a2.82 2.82 0 012.822 2.813 7.508 7.508 0 01-7.5 7.5h-.938v3.75h5.625a.938.938 0 01.938.938z" fill="#F60303"/></svg>