<svg width="14" height="15" fill="none" xmlns="http://www.w3.org/2000/svg"><path d="M12.375 1.125h-1.688V.562a.563.563 0 00-1.124 0v.563H3.936V.562a.562.562 0 10-1.124 0v.563H1.125A1.125 1.125 0 000 2.25V13.5a1.125 1.125 0 001.125 1.125h11.25A1.125 1.125 0 0013.5 13.5V2.25a1.125 1.125 0 00-1.125-1.125zM3.656 11.813a.844.844 0 110-1.688.844.844 0 010 1.688zm3.094 0a.844.844 0 110-1.688.844.844 0 010 1.688zM6.75 9a.844.844 0 110-1.687.844.844 0 010 1.687zm3.094 2.813a.844.844 0 110-1.688.844.844 0 010 1.688zm0-2.813a.844.844 0 110-1.687.844.844 0 010 1.687zm2.531-4.5H1.125V2.25h1.688v.563a.563.563 0 101.124 0V2.25h5.626v.563a.563.563 0 101.124 0V2.25h1.688V4.5z" fill="#F60303"/></svg>