<svg width="15" height="15" fill="none" xmlns="http://www.w3.org/2000/svg"><path d="M12.927 5.064a.844.844 0 111.688 0 .844.844 0 01-1.688 0zm-.843-1.687a.844.844 0 100-1.688.844.844 0 000 1.688zm2.015 3.937a.562.562 0 00-.607.514 6.196 6.196 0 11-6.706-6.701.564.564 0 10-.092-1.125 7.321 7.321 0 107.92 7.921.56.56 0 00-.515-.609zM7.302 2.252a5.062 5.062 0 110 10.125 5.062 5.062 0 010-10.125zM6.74 7.314a.563.563 0 00.562.563h3.375a.563.563 0 100-1.125H7.865V3.939a.563.563 0 10-1.125 0v3.375zM9.552 1.69a.844.844 0 100-1.687.844.844 0 000 1.687z" fill="#F60303"/></svg>