<svg width="78" height="90" fill="none" xmlns="http://www.w3.org/2000/svg"><path d="M96.625 78.605C104.17 75.335 108 67.055 108 54s-3.83-21.34-11.375-24.61c-5.33-2.305-11.795-1.8-19.585 1.57 3.365-7.79 3.875-14.255 1.57-19.585C75.335 3.83 67.06 0 54 0 40.94 0 32.665 3.83 29.39 11.375c-2.305 5.33-1.795 11.795 1.57 19.585-7.79-3.37-14.255-3.875-19.585-1.57C3.83 32.66 0 40.94 0 54c0 13.06 3.83 21.335 11.375 24.605a17.674 17.674 0 007.125 1.42c3.717 0 7.873-1 12.47-3-3.365 7.795-3.875 14.26-1.57 19.585C32.665 104.17 40.94 108 54 108c13.06 0 21.335-3.83 24.61-11.38.303-.704.559-1.427.765-2.165 3.785 6.59 7 13.705 8.805 21a6.003 6.003 0 0011.645-2.91c-3-12.055-9.115-23.455-15.755-33.165a25.13 25.13 0 005.43.645 17.674 17.674 0 007.125-1.42zm-56.22-62.46C41.545 13.5 46.5 12 54 12c7.5 0 12.455 1.5 13.595 4.145.56 1.285 1.72 6.5-6.765 19.405-2.315 3.5-4.795 6.755-6.83 9.26-2.035-2.5-4.5-5.74-6.83-9.26-8.485-12.92-7.325-18.12-6.765-19.405zm-24.26 51.45C13.5 66.455 12 61.5 12 54c0-7.5 1.5-12.455 4.145-13.595a5.766 5.766 0 012.31-.405c2.78 0 8.045 1.225 17.095 7.17 3.2 2.12 6.29 4.4 9.26 6.83-2.5 2.035-5.74 4.5-9.26 6.83-12.92 8.485-18.12 7.325-19.405 6.765zm51.45 24.26C66.455 94.5 61.5 96 54 96c-7.5 0-12.455-1.5-13.595-4.145-.56-1.29-1.72-6.5 6.765-19.405 2.315-3.5 4.795-6.755 6.83-9.26 2.035 2.5 4.5 5.74 6.83 9.26 8.485 12.92 7.325 18.115 6.765 19.405zM72.45 60.83c-3.5-2.315-6.755-4.795-9.26-6.83 2.97-2.43 6.06-4.71 9.26-6.83 12.92-8.5 18.12-7.325 19.405-6.765C94.5 41.545 96 46.5 96 54c0 7.5-1.5 12.455-4.145 13.595-1.285.56-6.485 1.72-19.405-6.765z" fill="#FFF5F5"/></svg>