<svg width="27" height="25" fill="none" xmlns="http://www.w3.org/2000/svg"><path d="M25.313 22.5h-.938v-8.57L22.617 1.61A1.885 1.885 0 0020.75 0h-2.123a1.884 1.884 0 00-1.857 1.61l-1.354 9.482-4.54-3.405a.938.938 0 00-1.5.75v3.75l-6-4.5a.938.938 0 00-1.5.75V22.5H.937a.938.938 0 000 1.875h24.375a.938.938 0 000-1.875zM10.78 19.687H7.5a.938.938 0 010-1.875h3.281a.938.938 0 010 1.875zm7.969 0h-3.281a.938.938 0 010-1.875h3.281a.938.938 0 010 1.875zm-.625-6.562l-1-.75 1.5-10.5h2.124l1.608 11.25h-4.232z" fill="#fff"/></svg>