<svg width="22" height="22" fill="none" xmlns="http://www.w3.org/2000/svg"><path d="M19.906 5.69h-2.634a3.435 3.435 0 00.603-1.86A3.72 3.72 0 0014.047.002a3.396 3.396 0 00-2.469 1.142 5.549 5.549 0 00-.61.843c-.175-.3-.38-.581-.609-.843A3.397 3.397 0 007.89.002 3.72 3.72 0 004.063 3.83c.016.665.226 1.31.603 1.86H2.03A2.031 2.031 0 000 7.72v3.25a2.031 2.031 0 001.625 1.991v6.134a2.031 2.031 0 002.031 2.032h14.625a2.032 2.032 0 002.032-2.032v-6.134a2.03 2.03 0 001.625-1.99V7.72a2.031 2.031 0 00-2.032-2.032zm-.406 4.874h-7.313V8.127H19.5v2.437zm-6.094-7.803a.975.975 0 01.711-.322h.036a1.281 1.281 0 011.284 1.32.973.973 0 01-.321.711c-.701.622-1.854.94-2.807 1.093.153-.948.472-2.101 1.097-2.802zm-6.53.054a1.3 1.3 0 01.905-.376h.04a.974.974 0 01.71.322c.622.7.94 1.853 1.092 2.804-.944-.153-2.107-.472-2.801-1.095a.974.974 0 01-.322-.71 1.292 1.292 0 01.376-.945zM2.437 8.127H9.75v2.437H2.437V8.127zm1.626 4.875H9.75v5.687H4.062v-5.687zm8.125 5.687v-5.687h5.687v5.687h-5.688z" fill="#F60303"/></svg>