<svg width="26" height="24" fill="none" xmlns="http://www.w3.org/2000/svg"><path d="M25.37 6.652L13.587.152a1.219 1.219 0 00-1.178 0l-11.78 6.5a1.219 1.219 0 000 2.133l2.214 1.218v4.851c-.001.5.183.981.517 1.353 1.375 1.537 4.46 4.106 9.639 4.106 1.376.007 2.745-.19 4.062-.584v2.615a1.218 1.218 0 102.438 0V18.7a12.14 12.14 0 003.14-2.49 2.02 2.02 0 00.516-1.352v-4.85l2.214-1.22a1.22 1.22 0 000-2.132v-.004zm-12.371-4.04l9.258 5.107-3.367 1.859a.176.176 0 01-.019-.012l-5.28-2.914a1.219 1.219 0 00-1.179 2.133l3.96 2.182L13 12.827 3.741 7.72l9.258-5.107zm0 15.263c-4.105 0-6.566-1.936-7.719-3.175v-3.352l7.13 3.935a1.218 1.218 0 001.178 0l3.473-1.913v3.781c-1.297.49-2.675.736-4.062.724zm7.719-3.175c-.374.4-.782.768-1.219 1.098v-3.774l1.219-.672V14.7z" fill="#F60303"/></svg>