<svg width="18" height="21" fill="none" xmlns="http://www.w3.org/2000/svg"><path d="M16.125 3.749c-.954 0-1.901.158-2.803.469C11.879 1.52 9.253.18 9.128.118a1.125 1.125 0 00-1.006 0c-.125.063-2.751 1.407-4.195 4.1a8.585 8.585 0 00-2.802-.47A1.125 1.125 0 000 4.875v7.5a8.625 8.625 0 1017.25 0v-7.5a1.125 1.125 0 00-1.125-1.125zM2.25 6.099a6.39 6.39 0 015.224 5.693A8.615 8.615 0 002.25 9.073V6.098zm5.25 12.55a6.387 6.387 0 01-5.25-6.275v-1.026a6.386 6.386 0 015.25 6.276v1.026zM5.94 5.223c.77-1.4 2-2.344 2.685-2.791.686.449 1.915 1.39 2.684 2.79A8.69 8.69 0 008.625 8.12a8.7 8.7 0 00-2.684-2.897zM15 12.374a6.386 6.386 0 01-5.25 6.276v-1.026A6.386 6.386 0 0115 11.348v1.026zm0-3.302a8.615 8.615 0 00-5.224 2.719A6.389 6.389 0 0115 6.098v2.974z" fill="#F60303"/></svg>