<svg width="70" height="90" fill="none" xmlns="http://www.w3.org/2000/svg"><path d="M86 19.994a45.838 45.838 0 00-14.95 2.5C63.355 8.114 49.35.964 48.685.634a6 6 0 00-5.37 0c-.665.33-14.67 7.5-22.37 21.86A45.786 45.786 0 006 19.994a6 6 0 00-6 6v40a46 46 0 1092 0v-40a6 6 0 00-6-6zm-74 12.53A34.075 34.075 0 0139.86 62.89 45.945 45.945 0 0012 48.39V32.524zm28 66.94a34.06 34.06 0 01-28-33.47v-5.47a34.06 34.06 0 0128 33.47v5.47zM31.685 27.85c4.1-7.47 10.66-12.5 14.315-14.885 3.66 2.395 10.215 7.415 14.315 14.885A46.345 46.345 0 0046 43.3a46.4 46.4 0 00-14.315-15.45zM80 65.994a34.06 34.06 0 01-28 33.47v-5.47a34.06 34.06 0 0128-33.47v5.47zm0-17.61a45.945 45.945 0 00-27.86 14.5A34.075 34.075 0 0180 32.524v15.86z" fill="#FFF5F5"/></svg>