<svg width="16" height="11" fill="none" xmlns="http://www.w3.org/2000/svg"><path d="M15.893 3.744L14.298.553a.998.998 0 00-1.342-.447l-1.554.777L8.128.016a.509.509 0 00-.257 0L4.597.883 3.043.106A1 1 0 001.7.553L.106 3.743a1 1 0 00.447 1.342l1.687.845 3.468 2.476a.504.504 0 00.17.079l4 1a.5.5 0 00.475-.132l2.5-2.5.942-.942 1.651-.826a1 1 0 00.447-1.341zm-3.43 2.086l-2.151-1.723a.5.5 0 00-.668.038c-1.113 1.121-2.353.98-3.145.48L9.202 2h1.988l1.7 3.4-.427.43zM9.846 8.446l-3.633-.908L3.138 5.34l1.75-3.5L8 1.017l.613.162L5.8 3.909l-.005.006a1 1 0 00.17 1.55c1.285.82 2.836.688 4.057-.312L11.75 6.54 9.846 8.446zM8.238 10.62a.5.5 0 01-.606.364l-2.607-.652a.492.492 0 01-.17-.079L3.21 9.079a.5.5 0 01.581-.812l1.57 1.121 2.514.627a.5.5 0 01.364.607z" fill="#fff"/></svg>