<svg width="29" height="22" fill="none" xmlns="http://www.w3.org/2000/svg"><path d="M26.992 12.78a2.852 2.852 0 00-2.181-.558c2.2-2.222 3.314-4.431 3.314-6.597C28.125 2.523 25.63 0 22.563 0a5.576 5.576 0 00-4.282 1.963A5.575 5.575 0 0014 0c-3.067 0-5.562 2.523-5.562 5.625 0 1.29.38 2.542 1.18 3.867a3.735 3.735 0 00-1.73.985l-2.65 2.648H1.875A1.875 1.875 0 000 15v4.688a1.875 1.875 0 001.875 1.875h12.188c.076 0 .152-.01.227-.028l7.5-1.875a.817.817 0 00.14-.047l4.554-1.939.052-.023a2.884 2.884 0 00.46-4.87h-.004zm-1.277 3.182l-4.454 1.896-7.316 1.83H6.562V14.45l2.653-2.65a1.859 1.859 0 011.326-.55h5.866a1.406 1.406 0 010 2.813h-3.281a.938.938 0 000 1.875h3.75a.94.94 0 00.21-.024l7.851-1.806.037-.01a1.008 1.008 0 01.738 1.864h.004z" fill="#F60303"/></svg>