<svg width="19" height="20" fill="none" xmlns="http://www.w3.org/2000/svg"><path d="M18.133 16.468l-5.247-9.707V.978a.991.991 0 00-1-.978H6.532a.985.985 0 00-.992.978v5.783L.287 16.468A2.394 2.394 0 002.391 20h13.635a2.398 2.398 0 002.107-3.532zm-8.057-4.06a.85.85 0 110 1.7.85.85 0 010-1.7zM7.683 7.29a.851.851 0 110 1.703.851.851 0 010-1.703zm0 2.971a1.38 1.38 0 110 2.76 1.38 1.38 0 010-2.76zm7.922 7.075a.98.98 0 01-.85.48H3.662A.979.979 0 012.8 16.36l1.333-2.397a.985.985 0 01.956-.502c1.77.169 3.76 1.684 5.54 1.616.952-.036 1.837-.383 2.679-.847a.985.985 0 011.337.384l.973 1.745a.984.984 0 01-.013.976z" fill="#F60303"/></svg>