<svg width="72" height="86" fill="none" xmlns="http://www.w3.org/2000/svg"><path d="M96.709 87.832L68.724 36.06V5.216C68.724 2.314 66.295 0 63.395 0H34.831c-2.903 0-5.292 2.314-5.292 5.216V36.06L1.531 87.832a12.775 12.775 0 0011.22 18.835h72.72a12.79 12.79 0 0010.962-6.236c2.295-3.858 2.412-8.651.275-12.599zm-42.971-21.66a4.537 4.537 0 014.539 4.539 4.542 4.542 0 01-4.539 4.538 4.54 4.54 0 01-4.539-4.538 4.542 4.542 0 014.539-4.539zm-12.763-27.29a4.54 4.54 0 11-.001 9.079 4.54 4.54 0 01.001-9.079zm0 15.845a7.358 7.358 0 017.357 7.355 7.357 7.357 0 01-7.357 7.355 7.356 7.356 0 110-14.71zm42.25 37.733c-.944 1.608-2.67 2.556-4.529 2.556H19.527c-1.86 0-3.585-.949-4.53-2.556a5.227 5.227 0 01-.065-5.203l7.112-12.784a5.251 5.251 0 015.095-2.676c9.445.9 20.06 8.98 29.546 8.62 5.081-.194 9.797-2.045 14.29-4.52a5.252 5.252 0 017.132 2.05l5.186 9.305a5.247 5.247 0 01-.067 5.208z" fill="#FFF5F5"/></svg>