<svg width="27" height="23" fill="none" xmlns="http://www.w3.org/2000/svg"><path d="M26.183 11.836l-3.75-9.375A.937.937 0 0021.36 1.9l-7.297 1.616V.937a.938.938 0 00-1.876 0v2.998L4.486 5.65a.937.937 0 00-.668.56l-3.75 9.376a.929.929 0 00-.067.351c0 2.732 2.876 3.75 4.688 3.75 1.811 0 4.687-1.018 4.687-3.75 0-.12-.022-.24-.067-.351l-3.34-8.347 6.22-1.38v14.766h-1.876a.938.938 0 000 1.875h5.626a.937.937 0 100-1.875h-1.876V5.44l5.977-1.327-3.097 7.723a.93.93 0 00-.067.351c0 2.732 2.876 3.75 4.688 3.75 1.811 0 4.687-1.018 4.687-3.75 0-.12-.022-.24-.067-.351zm-18.75 4.101H1.948l2.74-6.85 2.745 6.85zm11.395-3.75l2.735-6.85 2.74 6.85h-5.475z" fill="#F60303"/></svg>