<svg width="24" height="20" fill="none" xmlns="http://www.w3.org/2000/svg"><path d="M22.966 6.384l-5.25-6A1.126 1.126 0 0016.872 0h-10.5a1.125 1.125 0 00-.844.384l-5.25 6a1.125 1.125 0 00.025 1.509l10.5 11.25a1.124 1.124 0 001.644 0l10.5-11.25a1.125 1.125 0 00.019-1.509zM19.642 6h-2.957l-2.813-3.75h2.49L19.641 6zM6.361 8.25l1.986 4.969L3.71 8.25h2.65zm8.1 0l-2.839 7.096L8.783 8.25h5.678zM9.372 6l2.25-3 2.25 3h-4.5zm7.511 2.25h2.65l-4.636 4.969 1.986-4.969zm-10-6h2.489L6.56 6H3.602l3.281-3.75z" fill="#F60303"/></svg>