<svg width="86" height="82" fill="none" xmlns="http://www.w3.org/2000/svg"><path d="M122.484 34.05l-28-32a6.001 6.001 0 00-4.5-2.05h-56a6 6 0 00-4.5 2.05l-28 32a6 6 0 00.13 8.045l56 60a6.005 6.005 0 006.776 1.408 6.006 6.006 0 001.994-1.408l56-60a5.999 5.999 0 00.1-8.045zM104.759 32H88.984l-15-20H87.26l17.5 20zM33.924 44L44.52 70.5 19.79 44h14.135zm43.2 0l-15.14 37.845L46.844 44h30.28zm-27.14-12l12-16 12 16h-24zm40.06 12h14.135l-24.73 26.5L90.044 44zM36.71 12h13.275l-15 20H19.21l17.5-20z" fill="#FFF5F5"/></svg>