<svg width="22" height="22" fill="none" xmlns="http://www.w3.org/2000/svg"><path d="M20.962 8.803A10.554 10.554 0 1112.305.146a.813.813 0 01-.268 1.603A8.945 8.945 0 001.61 10.562a8.899 8.899 0 002.259 5.933 8.095 8.095 0 012.21-2.165.406.406 0 01.491.033 6.073 6.073 0 007.948 0 .406.406 0 01.492-.032 8.111 8.111 0 012.213 2.164 8.9 8.9 0 002.262-5.933 9.07 9.07 0 00-.124-1.49.813.813 0 111.602-.269zM6.078 9.75a4.469 4.469 0 108.937 0 4.469 4.469 0 00-8.937 0zm15.606-8.7a.813.813 0 00-1.15 0l-2.675 2.676-1.05-1.05a.813.813 0 00-1.15 1.149l1.625 1.625a.813.813 0 001.15 0l3.25-3.25a.813.813 0 000-1.15z" fill="#F60303"/></svg>