<svg width="20" height="20" fill="none" xmlns="http://www.w3.org/2000/svg"><path d="M19.133 4.038l-.436-.252c.05-.272.05-.55 0-.822l.436-.252a.75.75 0 10-.75-1.3l-.437.254c-.21-.18-.45-.32-.711-.412V.75a.75.75 0 10-1.5 0v.504c-.26.093-.501.232-.71.412l-.438-.253a.75.75 0 00-.75 1.3l.436.251c-.05.272-.05.55 0 .822l-.436.252a.75.75 0 10.75 1.3l.437-.254c.21.18.45.32.711.412V6a.75.75 0 101.5 0v-.504c.26-.093.501-.232.71-.412l.438.253a.75.75 0 10.75-1.3zm-2.648.087a.75.75 0 110-1.5.75.75 0 010 1.5zM9.735 5.25a4.125 4.125 0 110 8.25 4.125 4.125 0 010-8.25zm9.615 3.251A9.743 9.743 0 1111.359.51a.75.75 0 01-.248 1.48 8.257 8.257 0 00-9.626 8.135 8.214 8.214 0 002.085 5.476 7.475 7.475 0 012.04-1.998.375.375 0 01.453.03 5.607 5.607 0 007.338 0 .375.375 0 01.453-.03 7.487 7.487 0 012.043 1.998 8.214 8.214 0 001.974-6.852.751.751 0 011.177-.74.751.751 0 01.302.492z" fill="#FFF5F5"/></svg>