<svg width="25" height="27" viewBox="0 0 25 27" fill="none" xmlns="http://www.w3.org/2000/svg">
<path d="M23.093 11.0848L21.5625 10.5738V4.6875C21.5625 4.19022 21.365 3.71331 21.0133 3.36167C20.6617 3.01004 20.1848 2.8125 19.6875 2.8125H13.125V0.9375C13.125 0.68886 13.0262 0.450403 12.8504 0.274587C12.6746 0.098772 12.4361 0 12.1875 0C11.9389 0 11.7004 0.098772 11.5246 0.274587C11.3488 0.450403 11.25 0.68886 11.25 0.9375V2.8125H4.6875C4.19022 2.8125 3.71331 3.01004 3.36167 3.36167C3.01004 3.71331 2.8125 4.19022 2.8125 4.6875V10.5738L1.28203 11.0848C0.908684 11.2092 0.583962 11.448 0.353867 11.7673C0.123773 12.0865 -2.91616e-05 12.4701 5.1524e-09 12.8637V15.9375C5.1524e-09 23.1492 11.4715 26.1 11.9602 26.2219C12.1094 26.2592 12.2656 26.2592 12.4148 26.2219C12.9035 26.1 24.375 23.1492 24.375 15.9375V12.8637C24.375 12.4701 24.2512 12.0865 24.0211 11.7673C23.791 11.448 23.4663 11.2092 23.093 11.0848ZM13.125 17.8125C13.125 18.0611 13.0262 18.2996 12.8504 18.4754C12.6746 18.6512 12.4361 18.75 12.1875 18.75C11.9389 18.75 11.7004 18.6512 11.5246 18.4754C11.3488 18.2996 11.25 18.0611 11.25 17.8125V10.4145C11.25 10.1658 11.3488 9.92736 11.5246 9.75154C11.7004 9.57572 11.9389 9.47695 12.1875 9.47695C12.4361 9.47695 12.6746 9.57572 12.8504 9.75154C13.0262 9.92736 13.125 10.1658 13.125 10.4145V17.8125ZM19.6875 9.94922L12.484 7.54805C12.2915 7.48389 12.0835 7.48389 11.891 7.54805L4.6875 9.94922V4.6875H19.6875V9.94922Z" fill="white"/>
</svg>
