<svg width="27" height="25" viewBox="0 0 27 25" fill="none" xmlns="http://www.w3.org/2000/svg">
<path d="M24.375 23.4375C24.375 23.6861 24.2762 23.9246 24.1004 24.1004C23.9246 24.2762 23.6861 24.375 23.4375 24.375H2.8125C2.56386 24.375 2.3254 24.2762 2.14959 24.1004C1.97377 23.9246 1.875 23.6861 1.875 23.4375C1.875 23.1889 1.97377 22.9504 2.14959 22.7746C2.3254 22.5988 2.56386 22.5 2.8125 22.5H8.4375V14.0625H7.5C5.51154 14.0603 3.60515 13.2695 2.1991 11.8634C0.793045 10.4574 0.00217131 8.55096 0 6.5625C0.002172 5.81562 0.300472 5.10009 0.829474 4.57285C1.35848 4.0456 2.07499 3.74969 2.82188 3.75H2.86875C3.59947 3.75093 4.29999 4.04162 4.81669 4.55831C5.33338 5.07501 5.62407 5.77553 5.625 6.50625V6.5625C5.625 7.05978 5.82254 7.53669 6.17418 7.88832C6.52581 8.23996 7.00272 8.4375 7.5 8.4375H8.4375V4.6875C8.4375 3.4443 8.93136 2.25201 9.81044 1.37294C10.6895 0.49386 11.8818 0 13.125 0C14.3682 0 15.5605 0.49386 16.4396 1.37294C17.3186 2.25201 17.8125 3.4443 17.8125 4.6875V13.125H18.75C19.2473 13.125 19.7242 12.9275 20.0758 12.5758C20.4275 12.2242 20.625 11.7473 20.625 11.25V11.1937C20.6259 10.463 20.9166 9.76251 21.4333 9.24581C21.95 8.72912 22.6505 8.43843 23.3813 8.4375H23.4281C24.175 8.43719 24.8915 8.7331 25.4205 9.26035C25.9495 9.78759 26.2478 10.5031 26.25 11.25C26.2478 13.2385 25.457 15.1449 24.0509 16.5509C22.6449 17.957 20.7385 18.7478 18.75 18.75H17.8125V22.5H23.4375C23.6861 22.5 23.9246 22.5988 24.1004 22.7746C24.2762 22.9504 24.375 23.1889 24.375 23.4375Z" fill="#F60303"/>
</svg>
