<svg width="14" height="15" viewBox="0 0 14 15" fill="none" xmlns="http://www.w3.org/2000/svg">
<path d="M12.375 1.125H10.6875V0.5625C10.6875 0.413316 10.6282 0.270242 10.5227 0.164752C10.4173 0.0592632 10.2742 0 10.125 0C9.97582 0 9.83274 0.0592632 9.72725 0.164752C9.62176 0.270242 9.5625 0.413316 9.5625 0.5625V1.125H3.9375V0.5625C3.9375 0.413316 3.87824 0.270242 3.77275 0.164752C3.66726 0.0592632 3.52418 0 3.375 0C3.22582 0 3.08274 0.0592632 2.97725 0.164752C2.87176 0.270242 2.8125 0.413316 2.8125 0.5625V1.125H1.125C0.826631 1.125 0.540483 1.24353 0.329505 1.4545C0.118526 1.66548 0 1.95163 0 2.25V13.5C0 13.7984 0.118526 14.0845 0.329505 14.2955C0.540483 14.5065 0.826631 14.625 1.125 14.625H12.375C12.6734 14.625 12.9595 14.5065 13.1705 14.2955C13.3815 14.0845 13.5 13.7984 13.5 13.5V2.25C13.5 1.95163 13.3815 1.66548 13.1705 1.4545C12.9595 1.24353 12.6734 1.125 12.375 1.125ZM3.65625 11.8125C3.48937 11.8125 3.32624 11.763 3.18749 11.6703C3.04873 11.5776 2.94059 11.4458 2.87673 11.2916C2.81287 11.1375 2.79616 10.9678 2.82871 10.8041C2.86127 10.6405 2.94163 10.4901 3.05963 10.3721C3.17763 10.2541 3.32797 10.1738 3.49164 10.1412C3.65531 10.1087 3.82496 10.1254 3.97914 10.1892C4.13331 10.2531 4.26509 10.3612 4.3578 10.5C4.45052 10.6387 4.5 10.8019 4.5 10.9688C4.5 11.1925 4.41111 11.4071 4.25287 11.5654C4.09464 11.7236 3.88003 11.8125 3.65625 11.8125ZM6.75 11.8125C6.58312 11.8125 6.41999 11.763 6.28124 11.6703C6.14248 11.5776 6.03434 11.4458 5.97048 11.2916C5.90662 11.1375 5.88991 10.9678 5.92246 10.8041C5.95502 10.6405 6.03538 10.4901 6.15338 10.3721C6.27138 10.2541 6.42172 10.1738 6.58539 10.1412C6.74906 10.1087 6.91871 10.1254 7.07289 10.1892C7.22706 10.2531 7.35884 10.3612 7.45155 10.5C7.54426 10.6387 7.59375 10.8019 7.59375 10.9688C7.59375 11.1925 7.50485 11.4071 7.34662 11.5654C7.18839 11.7236 6.97378 11.8125 6.75 11.8125ZM6.75 9C6.58312 9 6.41999 8.95051 6.28124 8.8578C6.14248 8.76509 6.03434 8.63331 5.97048 8.47914C5.90662 8.32496 5.88991 8.15531 5.92246 7.99164C5.95502 7.82797 6.03538 7.67763 6.15338 7.55963C6.27138 7.44163 6.42172 7.36127 6.58539 7.32871C6.74906 7.29616 6.91871 7.31287 7.07289 7.37673C7.22706 7.44059 7.35884 7.54873 7.45155 7.68749C7.54426 7.82624 7.59375 7.98937 7.59375 8.15625C7.59375 8.38003 7.50485 8.59464 7.34662 8.75287C7.18839 8.9111 6.97378 9 6.75 9ZM9.84375 11.8125C9.67687 11.8125 9.51374 11.763 9.37499 11.6703C9.23623 11.5776 9.12809 11.4458 9.06423 11.2916C9.00037 11.1375 8.98366 10.9678 9.01621 10.8041C9.04877 10.6405 9.12913 10.4901 9.24713 10.3721C9.36513 10.2541 9.51547 10.1738 9.67914 10.1412C9.84281 10.1087 10.0125 10.1254 10.1666 10.1892C10.3208 10.2531 10.4526 10.3612 10.5453 10.5C10.638 10.6387 10.6875 10.8019 10.6875 10.9688C10.6875 11.1925 10.5986 11.4071 10.4404 11.5654C10.2821 11.7236 10.0675 11.8125 9.84375 11.8125ZM9.84375 9C9.67687 9 9.51374 8.95051 9.37499 8.8578C9.23623 8.76509 9.12809 8.63331 9.06423 8.47914C9.00037 8.32496 8.98366 8.15531 9.01621 7.99164C9.04877 7.82797 9.12913 7.67763 9.24713 7.55963C9.36513 7.44163 9.51547 7.36127 9.67914 7.32871C9.84281 7.29616 10.0125 7.31287 10.1666 7.37673C10.3208 7.44059 10.4526 7.54873 10.5453 7.68749C10.638 7.82624 10.6875 7.98937 10.6875 8.15625C10.6875 8.38003 10.5986 8.59464 10.4404 8.75287C10.2821 8.9111 10.0675 9 9.84375 9ZM12.375 4.5H1.125V2.25H2.8125V2.8125C2.8125 2.96168 2.87176 3.10476 2.97725 3.21025C3.08274 3.31574 3.22582 3.375 3.375 3.375C3.52418 3.375 3.66726 3.31574 3.77275 3.21025C3.87824 3.10476 3.9375 2.96168 3.9375 2.8125V2.25H9.5625V2.8125C9.5625 2.96168 9.62176 3.10476 9.72725 3.21025C9.83274 3.31574 9.97582 3.375 10.125 3.375C10.2742 3.375 10.4173 3.31574 10.5227 3.21025C10.6282 3.10476 10.6875 2.96168 10.6875 2.8125V2.25H12.375V4.5Z" fill="#F60303"/>
</svg>
