<svg width="27" height="25" viewBox="0 0 27 25" fill="none" xmlns="http://www.w3.org/2000/svg">
<path d="M25.3125 22.5H24.375V14.0625C24.375 14.0566 24.375 14.052 24.375 14.0461C24.375 14.0402 24.375 14.0121 24.375 13.9957C24.375 13.9793 24.375 13.9629 24.375 13.9477C24.3756 13.9418 24.3756 13.9359 24.375 13.9301L22.6172 1.61016C22.5513 1.1621 22.3262 0.752758 21.9832 0.45707C21.6402 0.161381 21.2021 -0.000874279 20.7492 3.54325e-06H18.6258C18.1749 0.00193402 17.7397 0.165459 17.3991 0.460894C17.0585 0.756329 16.8351 1.16409 16.7695 1.61016L15.4148 11.0918L10.875 7.6875C10.7357 7.58304 10.5701 7.51943 10.3967 7.50379C10.2233 7.48816 10.049 7.52112 9.89324 7.59898C9.73751 7.67684 9.60655 7.79653 9.51501 7.94463C9.42348 8.09273 9.375 8.2634 9.375 8.4375V12.1875L3.375 7.6875C3.23572 7.58304 3.07009 7.51943 2.89669 7.50379C2.72329 7.48816 2.54896 7.52112 2.39324 7.59898C2.23751 7.67684 2.10655 7.79653 2.01501 7.94463C1.92348 8.09273 1.875 8.2634 1.875 8.4375V22.5H0.9375C0.68886 22.5 0.450403 22.5988 0.274587 22.7746C0.098772 22.9504 0 23.1889 0 23.4375C0 23.6861 0.098772 23.9246 0.274587 24.1004C0.450403 24.2762 0.68886 24.375 0.9375 24.375H25.3125C25.5611 24.375 25.7996 24.2762 25.9754 24.1004C26.1512 23.9246 26.25 23.6861 26.25 23.4375C26.25 23.1889 26.1512 22.9504 25.9754 22.7746C25.7996 22.5988 25.5611 22.5 25.3125 22.5ZM10.7812 19.6875H7.5C7.25136 19.6875 7.0129 19.5887 6.83709 19.4129C6.66127 19.2371 6.5625 18.9986 6.5625 18.75C6.5625 18.5014 6.66127 18.2629 6.83709 18.0871C7.0129 17.9113 7.25136 17.8125 7.5 17.8125H10.7812C11.0299 17.8125 11.2683 17.9113 11.4442 18.0871C11.62 18.2629 11.7188 18.5014 11.7188 18.75C11.7188 18.9986 11.62 19.2371 11.4442 19.4129C11.2683 19.5887 11.0299 19.6875 10.7812 19.6875ZM18.75 19.6875H15.4688C15.2201 19.6875 14.9817 19.5887 14.8058 19.4129C14.63 19.2371 14.5312 18.9986 14.5312 18.75C14.5312 18.5014 14.63 18.2629 14.8058 18.0871C14.9817 17.9113 15.2201 17.8125 15.4688 17.8125H18.75C18.9986 17.8125 19.2371 17.9113 19.4129 18.0871C19.5887 18.2629 19.6875 18.5014 19.6875 18.75C19.6875 18.9986 19.5887 19.2371 19.4129 19.4129C19.2371 19.5887 18.9986 19.6875 18.75 19.6875ZM18.1254 13.125L17.1258 12.375L18.6258 1.875H20.7492L22.357 13.125H18.1254Z" fill="white"/>
</svg>
