<svg width="21" height="26" viewBox="0 0 21 26" fill="none" xmlns="http://www.w3.org/2000/svg">
<path d="M12.1148 0.216607C11.9993 0.120522 11.8623 0.053631 11.7155 0.0215737C11.5686 -0.0104836 11.4162 -0.00676752 11.2711 0.0324085C11.126 0.0715845 10.9925 0.145072 10.8817 0.246676C10.771 0.34828 10.6863 0.475022 10.6348 0.616217L8.05664 7.69551L5.22539 4.95215C5.13031 4.85993 5.01676 4.78891 4.89224 4.74376C4.76771 4.69861 4.63503 4.68036 4.50294 4.69021C4.37084 4.70007 4.24234 4.7378 4.12589 4.80093C4.00944 4.86406 3.90769 4.95114 3.82734 5.05645C1.28906 8.38223 0 11.7279 0 14.9998C0 17.7349 1.08649 20.3579 3.02046 22.2918C4.95443 24.2258 7.57746 25.3123 10.3125 25.3123C13.0475 25.3123 15.6706 24.2258 17.6045 22.2918C19.5385 20.3579 20.625 17.7349 20.625 14.9998C20.625 8.03301 14.673 2.34356 12.1148 0.216607ZM16.8621 16.0943C16.619 17.4522 15.9657 18.703 14.9902 19.6783C14.0147 20.6536 12.7638 21.3066 11.4059 21.5494C11.3544 21.5582 11.3022 21.5626 11.25 21.5623C11.0148 21.5622 10.7883 21.4738 10.6153 21.3145C10.4423 21.1553 10.3354 20.9368 10.316 20.7024C10.2965 20.4681 10.3658 20.235 10.5102 20.0493C10.6545 19.8637 10.8634 19.7391 11.0953 19.7002C13.0371 19.3732 14.6848 17.7256 15.0141 15.7803C15.0557 15.5351 15.1931 15.3164 15.3959 15.1725C15.5988 15.0285 15.8505 14.9711 16.0957 15.0127C16.3409 15.0543 16.5596 15.1917 16.7035 15.3946C16.8475 15.5974 16.9049 15.8491 16.8633 16.0943H16.8621Z" fill="white"/>
</svg>
