<svg width="29" height="22" viewBox="0 0 29 22" fill="none" xmlns="http://www.w3.org/2000/svg">
<path d="M26.9918 12.7806C26.6852 12.5443 26.3338 12.3729 25.9588 12.2768C25.5839 12.1807 25.1934 12.1619 24.8109 12.2216C27.0117 9.99972 28.125 7.79073 28.125 5.62511C28.125 2.52316 25.6301 0.000109956 22.5633 0.000109956C21.7495 -0.00500021 20.9445 0.168068 20.2048 0.507166C19.4651 0.846263 18.8085 1.34317 18.2812 1.963C17.754 1.34317 17.0974 0.846263 16.3577 0.507166C15.618 0.168068 14.813 -0.00500021 13.9992 0.000109956C10.9324 0.000109956 8.4375 2.52316 8.4375 5.62511C8.4375 6.91417 8.81719 8.16691 9.61641 9.4923C8.96184 9.65813 8.36448 9.99832 7.88789 10.4767L5.23711 13.1251H1.875C1.37772 13.1251 0.900805 13.3227 0.549175 13.6743C0.197544 14.0259 0 14.5028 0 15.0001L0 19.6876C0 20.1849 0.197544 20.6618 0.549175 21.0134C0.900805 21.3651 1.37772 21.5626 1.875 21.5626H14.0625C14.1392 21.5626 14.2155 21.5532 14.2898 21.5345L21.7898 19.6595C21.8376 19.6481 21.8843 19.6324 21.9293 19.6126L26.4844 17.6743L26.5359 17.6509C26.9737 17.4321 27.3486 17.1055 27.6253 16.7019C27.9019 16.2982 28.0713 15.8307 28.1173 15.3435C28.1634 14.8563 28.0847 14.3654 27.8886 13.917C27.6925 13.4686 27.3855 13.0775 26.9965 12.7806H26.9918ZM25.7145 15.9622L21.2613 17.8583L13.9453 19.6876H6.5625V14.4505L9.21445 11.7997C9.38793 11.6249 9.59444 11.4862 9.82197 11.3919C10.0495 11.2975 10.2935 11.2493 10.5398 11.2501H16.4062C16.7792 11.2501 17.1369 11.3983 17.4006 11.662C17.6643 11.9257 17.8125 12.2834 17.8125 12.6564C17.8125 13.0293 17.6643 13.387 17.4006 13.6507C17.1369 13.9145 16.7792 14.0626 16.4062 14.0626H13.125C12.8764 14.0626 12.6379 14.1614 12.4621 14.3372C12.2863 14.513 12.1875 14.7515 12.1875 15.0001C12.1875 15.2487 12.2863 15.4872 12.4621 15.663C12.6379 15.8388 12.8764 15.9376 13.125 15.9376H16.875C16.9456 15.9374 17.0159 15.9296 17.0848 15.9142L24.9363 14.1083L24.9727 14.0989C25.2123 14.0324 25.4682 14.0569 25.6909 14.1676C25.9136 14.2783 26.0876 14.4675 26.1792 14.6988C26.2708 14.93 26.2737 15.187 26.1872 15.4203C26.1008 15.6535 25.9311 15.8465 25.7109 15.9622H25.7145Z" fill="#F60303"/>
</svg>
