<svg width="16" height="11" viewBox="0 0 16 11" fill="none" xmlns="http://www.w3.org/2000/svg">
<path d="M15.8932 3.7439L14.2982 0.552648C14.2395 0.435189 14.1582 0.330456 14.0589 0.244428C13.9597 0.158401 13.8445 0.092764 13.7199 0.0512669C13.5953 0.00976977 13.4637 -0.00677514 13.3327 0.00257706C13.2017 0.0119293 13.0738 0.0469955 12.9564 0.105773L11.402 0.882648L8.12761 0.0163979C8.04359 -0.00546598 7.95538 -0.00546598 7.87136 0.0163979L4.59698 0.882648L3.04261 0.105773C2.92516 0.0469955 2.79728 0.0119293 2.66628 0.00257706C2.53528 -0.00677514 2.40372 0.00976977 2.27911 0.0512669C2.1545 0.092764 2.03929 0.158401 1.94005 0.244428C1.84081 0.330456 1.75949 0.435189 1.70073 0.552648L0.105734 3.74327C0.0469569 3.86072 0.0118908 3.9886 0.00253861 4.1196C-0.00681359 4.2506 0.00973129 4.38216 0.0512284 4.50677C0.0927256 4.63138 0.158362 4.74659 0.24439 4.84583C0.330417 4.94507 0.435151 5.02639 0.552609 5.08515L2.24011 5.92952L5.70823 8.4064C5.75934 8.44276 5.81678 8.46925 5.87761 8.48452L9.87761 9.48452C9.96138 9.50553 10.0492 9.50448 10.1324 9.48148C10.2156 9.45848 10.2915 9.41431 10.3526 9.35327L12.8526 6.85327L13.7951 5.91077L15.4464 5.08515C15.6834 4.96648 15.8636 4.75854 15.9474 4.50703C16.0312 4.25552 16.0117 3.98103 15.8932 3.7439ZM12.4626 5.82952L10.312 4.10702C10.2156 4.02987 10.0942 3.99107 9.97092 3.99811C9.84769 4.00515 9.73142 4.05752 9.64448 4.14515C8.53136 5.2664 7.29073 5.12452 6.49948 4.62452L9.20198 1.99952H11.1901L12.8907 5.40015L12.4626 5.82952ZM9.84573 8.44577L6.21323 7.53765L3.13823 5.3414L4.88823 1.8414L7.99948 1.01702L8.61198 1.1789L5.79948 3.9089L5.79448 3.91452C5.68861 4.02039 5.60787 4.14869 5.5582 4.28993C5.50854 4.43118 5.49123 4.58178 5.50754 4.73061C5.52386 4.87944 5.57339 5.02271 5.65248 5.14985C5.73156 5.27698 5.83819 5.38473 5.96448 5.46515C7.24948 6.28577 8.80011 6.15265 10.0214 5.15265L11.7495 6.54077L9.84573 8.44577ZM8.23823 10.6208C8.21122 10.7288 8.1489 10.8248 8.06115 10.8934C7.9734 10.962 7.86525 10.9994 7.75386 10.9995C7.71278 10.9995 7.67185 10.9944 7.63198 10.9845L5.02511 10.3326C4.9642 10.3176 4.90671 10.2911 4.85573 10.2545L3.20886 9.07827C3.1076 8.99877 3.04091 8.88326 3.02267 8.75582C3.00444 8.62837 3.03607 8.4988 3.11098 8.39409C3.18589 8.28938 3.2983 8.2176 3.4248 8.1937C3.55131 8.1698 3.68216 8.19561 3.79011 8.26577L5.35948 9.38702L7.87448 10.0145C8.0031 10.0467 8.11368 10.1286 8.18189 10.2423C8.2501 10.356 8.27037 10.4921 8.23823 10.6208Z" fill="white"/>
</svg>
