<svg width="21" height="29" viewBox="0 0 21 29" fill="none" xmlns="http://www.w3.org/2000/svg">
<path d="M20.3739 13.7695L7.24889 27.832C7.1098 27.9805 6.92621 28.0796 6.72581 28.1146C6.52542 28.1495 6.3191 28.1183 6.13799 28.0257C5.95687 27.9331 5.81079 27.7841 5.72179 27.6012C5.63279 27.4183 5.60569 27.2114 5.64459 27.0117L7.36256 18.4184L0.609047 15.8824C0.464006 15.8282 0.334663 15.7388 0.232574 15.6224C0.130485 15.5059 0.058829 15.366 0.0240082 15.2151C-0.0108126 15.0642 -0.00771362 14.9071 0.033028 14.7577C0.0737697 14.6083 0.150885 14.4713 0.257485 14.359L13.3825 0.296476C13.5216 0.148041 13.7052 0.0488718 13.9056 0.0139332C14.106 -0.0210054 14.3123 0.0101823 14.4934 0.10279C14.6745 0.195398 14.8206 0.3444 14.9096 0.527314C14.9986 0.710227 15.0257 0.917125 14.9868 1.11679L13.2641 9.71952L20.0176 12.2519C20.1616 12.3066 20.2899 12.3958 20.3912 12.5118C20.4925 12.6278 20.5637 12.7669 20.5984 12.9169C20.6332 13.0669 20.6304 13.2232 20.5905 13.3719C20.5505 13.5206 20.4745 13.6572 20.3692 13.7695H20.3739Z" fill="white"/>
</svg>
