<svg width="11" height="14" viewBox="0 0 11 14" fill="none" xmlns="http://www.w3.org/2000/svg">
<path d="M8.50008 13.5016C8.50008 13.6342 8.4474 13.7614 8.35364 13.8552C8.25987 13.9489 8.13269 14.0016 8.00008 14.0016H3.00008C2.86747 14.0016 2.7403 13.9489 2.64653 13.8552C2.55276 13.7614 2.50008 13.6342 2.50008 13.5016C2.50008 13.369 2.55276 13.2418 2.64653 13.148C2.7403 13.0543 2.86747 13.0016 3.00008 13.0016H8.00008C8.13269 13.0016 8.25987 13.0543 8.35364 13.148C8.4474 13.2418 8.50008 13.369 8.50008 13.5016ZM11.0001 5.5016C11.0022 6.33512 10.8139 7.15813 10.4496 7.90779C10.0852 8.65746 9.55435 9.31397 8.89758 9.82722C8.77478 9.92135 8.67512 10.0423 8.60623 10.1809C8.53733 10.3194 8.50103 10.4719 8.50008 10.6266V11.0016C8.50008 11.2668 8.39472 11.5212 8.20719 11.7087C8.01965 11.8962 7.7653 12.0016 7.50008 12.0016H3.50008C3.23487 12.0016 2.98051 11.8962 2.79298 11.7087C2.60544 11.5212 2.50008 11.2668 2.50008 11.0016V10.6266C2.49998 10.4737 2.46483 10.3229 2.39733 10.1857C2.32983 10.0486 2.23177 9.9287 2.11071 9.83535C1.45558 9.32513 0.92511 8.67256 0.559443 7.92704C0.193776 7.18152 0.00249611 6.36259 8.17809e-05 5.53222C-0.0161682 2.55347 2.39133 0.0728464 5.36758 0.00159637C6.10093 -0.0160757 6.83039 0.11313 7.51305 0.381607C8.19571 0.650085 8.81777 1.05241 9.34261 1.5649C9.86745 2.0774 10.2845 2.6897 10.5691 3.36578C10.8538 4.04185 11.0003 4.76804 11.0001 5.5016ZM8.99321 4.91785C8.86356 4.19366 8.51514 3.52657 7.99486 3.00641C7.47458 2.48624 6.80743 2.13797 6.08321 2.00847C6.01845 1.99756 5.95217 1.9995 5.88817 2.0142C5.82416 2.02889 5.76368 2.05605 5.71017 2.09413C5.65666 2.1322 5.61117 2.18044 5.5763 2.23609C5.54144 2.29174 5.51787 2.35371 5.50696 2.41847C5.49604 2.48323 5.49799 2.5495 5.51268 2.61351C5.52738 2.67752 5.55454 2.738 5.59261 2.79151C5.63068 2.84502 5.67892 2.89051 5.73457 2.92537C5.79022 2.96024 5.8522 2.98381 5.91696 2.99472C6.95258 3.1691 7.83133 4.04785 8.00696 5.08535C8.02674 5.2018 8.08712 5.30748 8.17738 5.38368C8.26764 5.45987 8.38196 5.50164 8.50008 5.5016C8.52834 5.50143 8.55655 5.49913 8.58446 5.49472C8.71515 5.47241 8.83163 5.3991 8.90828 5.29092C8.98494 5.18274 9.01548 5.04855 8.99321 4.91785Z" fill="white"/>
</svg>
