<svg width="14" height="13" viewBox="0 0 14 13" fill="none" xmlns="http://www.w3.org/2000/svg">
<path d="M9.86125 13H12.5C12.7652 13 13.0196 12.8946 13.2071 12.7071C13.3946 12.5196 13.5 12.2652 13.5 12V9.64688C13.4996 9.56488 13.479 9.48424 13.4401 9.41208C13.4011 9.33991 13.345 9.27843 13.2767 9.23304C13.2085 9.18766 13.13 9.15977 13.0484 9.15183C12.9668 9.14388 12.8845 9.15613 12.8087 9.1875C12.6316 9.26069 12.4417 9.29828 12.25 9.29813C11.4231 9.29813 10.75 8.60437 10.75 7.7525C10.75 6.90062 11.4231 6.20687 12.25 6.20687C12.4417 6.20672 12.6316 6.24431 12.8087 6.3175C12.8849 6.34903 12.9677 6.36124 13.0497 6.35305C13.1317 6.34486 13.2104 6.31653 13.2788 6.27057C13.3472 6.2246 13.4032 6.16244 13.4418 6.08961C13.4804 6.01678 13.5004 5.93554 13.5 5.85313V3.5C13.5 3.23478 13.3946 2.98043 13.2071 2.79289C13.0196 2.60536 12.7652 2.5 12.5 2.5H10.2362C10.2456 2.41699 10.2501 2.33353 10.25 2.25C10.25 1.65326 10.0129 1.08097 9.59099 0.65901C9.16903 0.237053 8.59674 0 8 0C7.40326 0 6.83097 0.237053 6.40901 0.65901C5.98705 1.08097 5.75 1.65326 5.75 2.25C5.74985 2.33353 5.75445 2.41699 5.76375 2.5H3.5C3.23478 2.5 2.98043 2.60536 2.79289 2.79289C2.60536 2.98043 2.5 3.23478 2.5 3.5V5.51375C2.41699 5.50445 2.33353 5.49986 2.25 5.5C1.65326 5.5 1.08097 5.73705 0.65901 6.15901C0.237053 6.58097 0 7.15326 0 7.75C0 8.34674 0.237053 8.91903 0.65901 9.34099C1.08097 9.76295 1.65326 10 2.25 10C2.33353 10.0001 2.41699 9.99555 2.5 9.98625V12C2.5 12.2652 2.60536 12.5196 2.79289 12.7071C2.98043 12.8946 3.23478 13 3.5 13H6.13875" fill="white"/>
</svg>
