<svg width="27" height="23" viewBox="0 0 27 23" fill="none" xmlns="http://www.w3.org/2000/svg">
<path d="M26.1832 11.8359L22.4332 2.46094C22.3631 2.28756 22.2427 2.13913 22.0875 2.03471C21.9324 1.9303 21.7495 1.87468 21.5625 1.875C21.4943 1.87604 21.4263 1.88429 21.3598 1.89961L14.0625 3.51562V0.9375C14.0625 0.68886 13.9637 0.450403 13.7879 0.274588C13.6121 0.0987722 13.3737 0 13.125 0C12.8764 0 12.6379 0.0987722 12.4621 0.274588C12.2863 0.450403 12.1875 0.68886 12.1875 0.9375V3.93516L4.48478 5.64961C4.33628 5.68202 4.19788 5.75004 4.08152 5.84783C3.96515 5.94562 3.87431 6.07023 3.81681 6.21094L0.0668149 15.5859C0.0219545 15.6977 -0.000732707 15.8171 1.80408e-05 15.9375C1.80408e-05 18.6691 2.8758 19.6875 4.68752 19.6875C6.49924 19.6875 9.37502 18.6691 9.37502 15.9375C9.37577 15.8171 9.35308 15.6977 9.30822 15.5859L5.96721 7.23867L12.1875 5.85938V20.625H10.3125C10.0639 20.625 9.82542 20.7238 9.64961 20.8996C9.47379 21.0754 9.37502 21.3139 9.37502 21.5625C9.37502 21.8111 9.47379 22.0496 9.64961 22.2254C9.82542 22.4012 10.0639 22.5 10.3125 22.5H15.9375C16.1862 22.5 16.4246 22.4012 16.6004 22.2254C16.7762 22.0496 16.875 21.8111 16.875 21.5625C16.875 21.3139 16.7762 21.0754 16.6004 20.8996C16.4246 20.7238 16.1862 20.625 15.9375 20.625H14.0625V5.43984L20.0391 4.11328L16.9418 11.8359C16.897 11.9477 16.8743 12.0671 16.875 12.1875C16.875 14.9191 19.7508 15.9375 21.5625 15.9375C23.3742 15.9375 26.25 14.9191 26.25 12.1875C26.2508 12.0671 26.2281 11.9477 26.1832 11.8359ZM7.43322 15.9375H1.94767L4.68752 9.08672L7.43322 15.9375ZM18.8285 12.1875L21.5625 5.33672L24.3024 12.1875H18.8285Z" fill="#F60303"/>
</svg>
