<svg width="16" height="12" viewBox="0 0 16 12" fill="none" xmlns="http://www.w3.org/2000/svg">
<path d="M15.6558 5.31281L12.4453 0.501328C12.3431 0.34722 12.2044 0.220794 12.0414 0.133322C11.8785 0.0458493 11.6965 4.76497e-05 11.5116 0H1.125C0.826632 0 0.540483 0.118526 0.329505 0.329505C0.118526 0.540483 0 0.826631 0 1.125V10.125C0 10.4234 0.118526 10.7095 0.329505 10.9205C0.540483 11.1315 0.826632 11.25 1.125 11.25H11.5116C11.6963 11.2497 11.8782 11.2038 12.0411 11.1165C12.2039 11.0292 12.3428 10.9031 12.4453 10.7494L15.6537 5.93719C15.7157 5.84496 15.7489 5.73644 15.7493 5.62532C15.7497 5.5142 15.7171 5.40546 15.6558 5.31281Z" fill="#F60303"/>
</svg>
