<svg width="20" height="20" viewBox="0 0 20 20" fill="none" xmlns="http://www.w3.org/2000/svg">
<path d="M19.1334 4.03781L18.6966 3.78563C18.7478 3.51427 18.7478 3.23573 18.6966 2.96438L19.1334 2.71219C19.3058 2.61273 19.4315 2.4489 19.483 2.25673C19.5345 2.06457 19.5076 1.85981 19.4081 1.6875C19.3087 1.51519 19.1448 1.38945 18.9527 1.33794C18.7605 1.28642 18.5558 1.31336 18.3834 1.41281L17.9456 1.66594C17.7361 1.48618 17.4952 1.34665 17.235 1.25438V0.75C17.235 0.551088 17.156 0.360322 17.0153 0.21967C16.8747 0.0790176 16.6839 0 16.485 0C16.2861 0 16.0953 0.0790176 15.9547 0.21967C15.814 0.360322 15.735 0.551088 15.735 0.75V1.25438C15.4748 1.34665 15.2339 1.48618 15.0244 1.66594L14.5866 1.41281C14.5013 1.36357 14.4071 1.33161 14.3094 1.31876C14.2117 1.30591 14.1125 1.31243 14.0173 1.33794C13.9222 1.36344 13.833 1.40744 13.7548 1.46742C13.6767 1.5274 13.6111 1.60218 13.5619 1.6875C13.5126 1.77282 13.4807 1.867 13.4678 1.96467C13.455 2.06234 13.4615 2.16158 13.487 2.25673C13.5125 2.35188 13.5565 2.44108 13.6165 2.51923C13.6765 2.59737 13.7513 2.66294 13.8366 2.71219L14.2734 2.96438C14.2222 3.23573 14.2222 3.51427 14.2734 3.78563L13.8366 4.03781C13.6935 4.12033 13.5817 4.24775 13.5184 4.40032C13.4552 4.55289 13.4441 4.72206 13.4868 4.88159C13.5296 5.04112 13.6238 5.18208 13.7548 5.2826C13.8859 5.38311 14.0464 5.43756 14.2116 5.4375C14.3433 5.43791 14.4727 5.40329 14.5866 5.33719L15.0244 5.08406C15.2339 5.26382 15.4748 5.40335 15.735 5.49563V6C15.735 6.19891 15.814 6.38968 15.9547 6.53033C16.0953 6.67098 16.2861 6.75 16.485 6.75C16.6839 6.75 16.8747 6.67098 17.0153 6.53033C17.156 6.38968 17.235 6.19891 17.235 6V5.49563C17.4952 5.40335 17.7361 5.26382 17.9456 5.08406L18.3834 5.33719C18.4973 5.40329 18.6268 5.43791 18.7584 5.4375C18.9236 5.43756 19.0842 5.38311 19.2152 5.2826C19.3462 5.18208 19.4404 5.04112 19.4832 4.88159C19.5259 4.72206 19.5148 4.55289 19.4516 4.40032C19.3883 4.24775 19.2765 4.12033 19.1334 4.03781ZM16.485 4.125C16.3367 4.125 16.1917 4.08101 16.0683 3.9986C15.945 3.91619 15.8489 3.79906 15.7921 3.66201C15.7353 3.52497 15.7205 3.37417 15.7494 3.22868C15.7784 3.0832 15.8498 2.94956 15.9547 2.84467C16.0596 2.73978 16.1932 2.66835 16.3387 2.63941C16.4842 2.61047 16.635 2.62532 16.772 2.68209C16.9091 2.73886 17.0262 2.83499 17.1086 2.95832C17.191 3.08166 17.235 3.22666 17.235 3.375C17.235 3.57391 17.156 3.76468 17.0153 3.90533C16.8747 4.04598 16.6839 4.125 16.485 4.125ZM9.73501 5.25C10.5509 5.25 11.3484 5.49193 12.0267 5.94519C12.7051 6.39845 13.2338 7.04269 13.546 7.79643C13.8582 8.55018 13.9399 9.37958 13.7807 10.1797C13.6216 10.9799 13.2287 11.7149 12.6518 12.2918C12.0749 12.8687 11.3399 13.2616 10.5398 13.4207C9.73958 13.5799 8.91019 13.4982 8.15644 13.186C7.4027 12.8738 6.75846 12.3451 6.3052 11.6667C5.85194 10.9884 5.61001 10.1908 5.61001 9.375C5.61001 8.28098 6.04461 7.23177 6.81819 6.45818C7.59178 5.6846 8.64099 5.25 9.73501 5.25ZM19.35 8.50125C19.6926 10.538 19.3791 12.631 18.4547 14.478C17.5303 16.3249 16.0428 17.8303 14.2071 18.7768C12.3713 19.7233 10.2823 20.0619 8.24152 19.7437C6.20078 19.4255 4.31398 18.4669 2.85352 17.0065C1.39307 15.546 0.43454 13.6592 0.116332 11.6185C-0.201877 9.57776 0.136702 7.4887 1.08318 5.65293C2.02966 3.81717 3.53507 2.3297 5.38204 1.40529C7.22902 0.480876 9.32199 0.167358 11.3588 0.51C11.5534 0.54443 11.7267 0.65434 11.8407 0.815823C11.9548 0.977306 12.0005 1.1773 11.9679 1.3723C11.9352 1.56729 11.8269 1.74152 11.6665 1.85708C11.5061 1.97264 11.3066 2.02019 11.1113 1.98938C9.92826 1.79037 8.7161 1.85154 7.55915 2.16863C6.40219 2.48572 5.32823 3.05112 4.412 3.82547C3.49577 4.59982 2.75928 5.56453 2.25379 6.65245C1.74831 7.74037 1.48596 8.92538 1.48501 10.125C1.48323 12.1446 2.22549 14.094 3.57001 15.6009C4.11528 14.8101 4.80792 14.1318 5.61001 13.6031C5.67839 13.558 5.75969 13.5364 5.84147 13.5419C5.92324 13.5473 6.00099 13.5793 6.06282 13.6331C7.08182 14.5148 8.38424 15.0001 9.73173 15.0001C11.0792 15.0001 12.3816 14.5148 13.4006 13.6331C13.4625 13.5791 13.5405 13.5469 13.6224 13.5415C13.7044 13.5361 13.7859 13.5577 13.8544 13.6031C14.6573 14.1317 15.3508 14.81 15.8972 15.6009C17.2427 14.0944 17.986 12.1449 17.985 10.125C17.985 9.66388 17.9468 9.20354 17.8706 8.74875C17.8534 8.65119 17.8556 8.55117 17.8772 8.45448C17.8989 8.3578 17.9394 8.26635 17.9966 8.18543C18.0538 8.1045 18.1264 8.03571 18.2103 7.98301C18.2942 7.93032 18.3877 7.89477 18.4854 7.87842C18.5831 7.86208 18.6831 7.86525 18.7796 7.88777C18.8761 7.91028 18.9672 7.95169 19.0476 8.0096C19.1279 8.06751 19.1961 8.14078 19.248 8.22516C19.2999 8.30955 19.3346 8.40339 19.35 8.50125Z" fill="#FFF5F5"/>
</svg>
