<svg width="22" height="22" fill="none" xmlns="http://www.w3.org/2000/svg"><path d="M18.219 6.531v-.343a3.782 3.782 0 00-6.434-2.691.337.337 0 00-.098.24v7.625a.344.344 0 00.533.286A4.096 4.096 0 0114.41 11a.703.703 0 01.714.651.688.688 0 01-.687.724 2.75 2.75 0 00-2.75 2.75v2.912a.344.344 0 00.128.268 4.12 4.12 0 006.377-1.475.343.343 0 00-.386-.478 5.848 5.848 0 01-1.306.148h-.664a.703.703 0 01-.71-.642.687.687 0 01.688-.733h.688a4.47 4.47 0 001.717-8.594zm-1.032 3.094h-.343a3.094 3.094 0 01-3.094-3.094v-.343a.688.688 0 011.375 0v.343a1.718 1.718 0 001.719 1.719h.343a.688.688 0 110 1.375zM7.563 2.406A3.786 3.786 0 003.78 6.187v.344a4.469 4.469 0 001.72 8.594h.664a.703.703 0 01.711.642.688.688 0 01-.687.733H5.5c-.44 0-.878-.05-1.307-.149a.344.344 0 00-.387.477 4.12 4.12 0 006.378 1.477.345.345 0 00.129-.268v-2.912a2.75 2.75 0 00-2.75-2.75.688.688 0 01-.688-.724A.703.703 0 017.59 11a4.097 4.097 0 012.19.648.344.344 0 00.533-.286V3.737a.344.344 0 00-.098-.241 3.768 3.768 0 00-2.652-1.09zm.687 4.125a3.094 3.094 0 01-3.094 3.094h-.343a.688.688 0 110-1.375h.343a1.719 1.719 0 001.719-1.719v-.343a.688.688 0 111.375 0v.343z" fill="#fff"/></svg>