<svg width="22" height="22" fill="none" xmlns="http://www.w3.org/2000/svg"><path d="M20.625 8.938h-.928L17.31 3.566a1.375 1.375 0 00-1.257-.816H5.947a1.375 1.375 0 00-1.257.816L2.303 8.938h-.928a.688.688 0 100 1.374h.688v6.876a1.375 1.375 0 001.374 1.375H5.5a1.375 1.375 0 001.375-1.375V16.5h8.25v.688a1.375 1.375 0 001.375 1.375h2.063a1.375 1.375 0 001.375-1.375v-6.875h.687a.687.687 0 100-1.376zm-13.75 4.124H4.812a.687.687 0 110-1.374h2.063a.687.687 0 110 1.374zm10.313 0h-2.063a.687.687 0 110-1.374h2.063a.687.687 0 110 1.374zM3.807 8.939l2.139-4.813h10.106l2.14 4.813H3.807z" fill="#fff"/></svg>