<svg width="22" height="22" fill="none" xmlns="http://www.w3.org/2000/svg"><path d="M19.938 7.436V4.813a1.375 1.375 0 00-1.375-1.375H3.438a1.375 1.375 0 00-1.376 1.374v11a1.375 1.375 0 001.376 1.376H13.75v2.062a.687.687 0 001.031.602l2.063-1.181 2.062 1.18a.687.687 0 001.032-.601v-5.374a4.457 4.457 0 000-6.44zM11 12.375H6.187a.687.687 0 110-1.375H11a.687.687 0 110 1.375zm0-2.75H6.187a.688.688 0 110-1.375H11a.687.687 0 010 1.375zm7.563 8.44l-1.375-.787a.687.687 0 00-.683 0l-1.375.787V14.78a4.458 4.458 0 003.438 0l-.006 3.284zm-1.72-4.315a3.093 3.093 0 110-6.186 3.093 3.093 0 010 6.186z" fill="#fff"/></svg>