<svg width="20" height="20" fill="none" xmlns="http://www.w3.org/2000/svg"><path d="M18.125 6.76V4.375a1.25 1.25 0 00-1.25-1.25H3.125a1.25 1.25 0 00-1.25 1.25v10a1.25 1.25 0 001.25 1.25H12.5V17.5a.625.625 0 00.938.547l1.874-1.074 1.876 1.074a.624.624 0 00.937-.547v-4.885a4.052 4.052 0 000-5.855zM10 11.25H5.625a.625.625 0 110-1.25H10a.624.624 0 110 1.25zm0-2.5H5.625a.625.625 0 010-1.25H10a.625.625 0 110 1.25zm6.875 7.673l-1.25-.716a.625.625 0 00-.62 0l-1.25.716v-2.985a4.053 4.053 0 003.125 0l-.005 2.985zM15.312 12.5a2.813 2.813 0 110-5.625 2.813 2.813 0 010 5.625z" fill="#F60303"/></svg>