<svg width="20" height="20" fill="none" xmlns="http://www.w3.org/2000/svg"><path d="M12.813 5.31c-.486 0-.97.057-1.443.169-.14-.206-.297-.4-.468-.58l.59-.845a.938.938 0 10-1.535-1.076l-.592.848a4.676 4.676 0 00-1.74-.39L7.447 2.42a.938.938 0 00-1.846.326l.18 1.015a4.687 4.687 0 00-1.501.961l-.849-.594a.938.938 0 10-1.075 1.536l.848.593a4.644 4.644 0 00-.39 1.738l-1.016.18a.938.938 0 10.326 1.847l1.015-.18c.077.195.167.384.269.566a4.375 4.375 0 003.155 7.403h6.25a6.25 6.25 0 000-12.5zm-5.313 0a2.813 2.813 0 012.066.908 6.279 6.279 0 00-2.504 2.87 4.363 4.363 0 00-2.087.271A2.812 2.812 0 017.5 5.312zm5.313 10.626h-6.25a2.5 2.5 0 010-5h.021a5.734 5.734 0 00-.02.258.939.939 0 101.875.109c.017-.29.062-.578.136-.86l.012-.043a4.38 4.38 0 114.226 5.536z" fill="#F60303"/></svg>