<svg width="20" height="28" fill="none" xmlns="http://www.w3.org/2000/svg"><path d="M10 5.875c-4.205 0-7.5 1.922-7.5 4.375v7.5c0 2.453 3.295 4.375 7.5 4.375 4.206 0 7.5-1.922 7.5-4.375v-7.5c0-2.453-3.294-4.375-7.5-4.375zM16.25 14c0 .752-.616 1.518-1.688 2.103-1.208.659-2.828 1.022-4.562 1.022-1.734 0-3.354-.363-4.562-1.022C4.366 15.518 3.75 14.752 3.75 14v-1.3c1.333 1.172 3.612 1.925 6.25 1.925s4.917-.756 6.25-1.925V14zm-1.688 5.853c-1.208.659-2.828 1.022-4.562 1.022-1.734 0-3.354-.363-4.562-1.022-1.072-.585-1.688-1.351-1.688-2.103v-1.3c1.333 1.172 3.612 1.925 6.25 1.925s4.917-.756 6.25-1.925v1.3c0 .752-.616 1.518-1.688 2.103z" fill="#F60303"/></svg>