<svg width="16" height="16" fill="none" xmlns="http://www.w3.org/2000/svg"><path d="M4.484 5.266h1.042v1.562H4.484V5.266z" fill="#F60303"/><path d="M1.724 6.83h1.98V4.879a.39.39 0 01.39-.391h1.823a.39.39 0 01.39.39v1.954h7.97a.39.39 0 000-.782h-.654l-.482-4.365a.39.39 0 00-.388-.348H11.58a.39.39 0 00-.388.348l-.483 4.365h-.757V2.021a.391.391 0 00-.58-.349l-1.764.98V2.02a.39.39 0 00-.58-.35l-1.763.98v-.63a.391.391 0 00-.58-.349L2.341 2.974a.39.39 0 00-.201.341V6.05h-.417a.39.39 0 000 .782zm5.755-2.343H8a.39.39 0 010 .781h-.52a.39.39 0 010-.781zm6.797 3.123h-1.98a.39.39 0 00-.39.39 3.908 3.908 0 01-3.125 3.828v-1.617A2.345 2.345 0 0010.344 8a.39.39 0 00-.39-.391h-.782a.39.39 0 00-.39.39.781.781 0 01-1.563 0 .39.39 0 00-.39-.39h-.782a.39.39 0 00-.39.39c0 1.02.652 1.889 1.562 2.21v1.618A3.908 3.908 0 014.094 8a.39.39 0 00-.39-.39h-1.98a.39.39 0 000 .78h.43c.016.253.048.502.096.746l-.413.111a.39.39 0 00.202.755l.412-.11c.081.237.177.469.288.694l-.37.214a.39.39 0 10.391.676l.37-.214c.14.207.293.406.46.596l-.304.304a.39.39 0 00.552.552l.304-.304c.19.166.389.319.597.458l-.215.372a.39.39 0 10.676.39l.216-.372c.225.11.456.206.694.287l-.112.416a.39.39 0 10.755.202l.111-.415c.245.048.494.081.745.098v.43a.39.39 0 10.782 0v-.43c.25-.017.5-.05.745-.098l.111.415a.39.39 0 00.755-.202l-.112-.416c.237-.08.47-.177.694-.287l.216.373a.39.39 0 10.676-.391l-.215-.372c.208-.14.407-.292.597-.458l.304.304a.39.39 0 00.552 0 .39.39 0 000-.552l-.304-.304c.167-.19.32-.389.46-.596l.37.214a.389.389 0 00.533-.143.39.39 0 00-.143-.533l-.37-.214c.112-.225.208-.457.289-.695l.412.11a.39.39 0 00.202-.755l-.413-.11c.048-.244.08-.493.096-.745h.43a.39.39 0 000-.782z" fill="#F60303"/></svg>