<svg width="22" height="22" fill="none" xmlns="http://www.w3.org/2000/svg"><path d="M17.875 4.125a7.517 7.517 0 00-3.039.639c-1.297-2.18-3.43-3.266-3.528-3.316a.688.688 0 00-.616 0c-.098.05-2.234 1.136-3.528 3.316a7.518 7.518 0 00-3.039-.639.688.688 0 00-.688.688V8.25a7.572 7.572 0 006.876 7.531v3.045l-3.13-1.566a.688.688 0 00-.616 1.23l4.125 2.063a.688.688 0 00.616 0l4.125-2.062a.688.688 0 00-.616-1.23l-3.13 1.565v-3.045a7.572 7.572 0 006.876-7.53V4.812a.687.687 0 00-.688-.688zM4.812 8.25V5.538a6.196 6.196 0 015.5 6.15V14.4a6.196 6.196 0 01-5.5-6.15zm12.375 0a6.197 6.197 0 01-5.5 6.15v-2.712a6.196 6.196 0 015.5-6.15V8.25z" fill="#fff"/></svg>