<svg width="24" height="24" fill="none" xmlns="http://www.w3.org/2000/svg"><path d="M23.047 11.403a1.457 1.457 0 00-.893-.687 6.895 6.895 0 00-2.078-.208c.375-1.861.093-3.333-.188-4.206a1.516 1.516 0 00-1.762-1.02 8.019 8.019 0 00-2.677 1.136 8.866 8.866 0 00-2.541-3.117 1.504 1.504 0 00-1.806 0 8.867 8.867 0 00-2.546 3.117 8.018 8.018 0 00-2.677-1.136 1.513 1.513 0 00-1.761 1.02c-.282.873-.563 2.344-.194 4.206a6.864 6.864 0 00-2.078.208 1.457 1.457 0 00-.893.687 1.5 1.5 0 00-.15 1.15c.318 1.179 1.294 3.42 4.25 5.186 2.956 1.767 5.553 1.761 6.952 1.761 1.398 0 4 0 6.937-1.76 2.956-1.767 3.932-4.008 4.25-5.188a1.499 1.499 0 00-.145-1.15zm-17.225 5.05C3.325 14.96 2.514 13.13 2.25 12.158a5.588 5.588 0 012.11-.11c.234.63.521 1.239.857 1.82a13.338 13.338 0 003.188 3.71 10.816 10.816 0 01-2.583-1.127zM12 17.85c-.875-.65-3-2.647-3-6.678C9 7.191 11.098 5.18 12 4.5c.902.68 3 2.692 3 6.674 0 4.03-2.125 6.025-3 6.676zm9.75-5.689c-.26.96-1.069 2.795-3.57 4.291-.809.487-1.677.865-2.584 1.125a13.339 13.339 0 003.188-3.709c.336-.581.623-1.19.858-1.82a5.597 5.597 0 012.108.112v.001z" fill="#fff"/></svg>