<svg width="20" height="20" fill="none" xmlns="http://www.w3.org/2000/svg"><path d="M18.523 13.108l-1.759 1.452.535 2.165a.625.625 0 01-.923.688l-2.001-1.177-2 1.177a.625.625 0 01-.924-.688l.535-2.165-1.759-1.452a.625.625 0 01.35-1.105l2.33-.18.894-2.07a.624.624 0 011.148 0l.893 2.07 2.331.18a.625.625 0 01.35 1.105zm-8.48 3.142a.625.625 0 01-.624.625H3.077a1.203 1.203 0 01-1.202-1.202V4.375a1.25 1.25 0 011.25-1.25h4.116a1.239 1.239 0 01.884.366l2.134 2.134h6.616a1.25 1.25 0 011.25 1.25v2.5a.625.625 0 11-1.25 0v-2.5H3.125v8.75h6.294a.625.625 0 01.625.625zM3.126 5.625h5.366l-1.25-1.25H3.125v1.25z" fill="#F60303"/></svg>