<svg width="24" height="24" fill="none" xmlns="http://www.w3.org/2000/svg"><path d="M12 2.25A9.75 9.75 0 1021.75 12 9.76 9.76 0 0012 2.25zM5.84 17.482l.236-.155a1.5 1.5 0 00.674-1.246l.02-3.397L8.735 9.75l.03.02 1.844 1.207c.309.218.689.311 1.064.26l2.952-.4a1.5 1.5 0 00.938-.508l2.078-2.415A1.5 1.5 0 0018 6.938v-.594a8.238 8.238 0 011.853 8.187l-1.513-1.383a1.5 1.5 0 00-1.587-.282l-2.855 1.186a1.508 1.508 0 00-.908 1.167l-.224 1.518a1.5 1.5 0 001.103 1.67l2.012.53.221.223A8.239 8.239 0 015.84 17.482z" fill="#fff"/></svg>