<svg width="20" height="28" fill="none" xmlns="http://www.w3.org/2000/svg"><path d="M10 5.875A8.125 8.125 0 1018.125 14 8.133 8.133 0 0010 5.875zM4.866 18.568l.197-.129a1.25 1.25 0 00.562-1.038l.016-2.83 1.638-2.446a.281.281 0 00.025.017l1.537 1.006c.257.181.574.259.886.216l2.46-.334c.304-.04.582-.19.782-.422l1.732-2.013c.194-.227.3-.515.299-.814v-.494a6.864 6.864 0 011.544 6.822l-1.26-1.153a1.25 1.25 0 00-1.323-.234l-2.38.988a1.256 1.256 0 00-.756.973l-.187 1.265a1.25 1.25 0 00.92 1.391l1.676.442.185.185a6.866 6.866 0 01-8.553-1.398z" fill="#F60303"/></svg>