<svg width="22" height="22" fill="none" xmlns="http://www.w3.org/2000/svg"><path d="M19.852 7.172l-8.511-5.238a.64.64 0 00-.681 0L2.148 7.172a.646.646 0 00-.315.557v2.619a.662.662 0 00.64.655.642.642 0 00.323-.079l.347-.183v8.774a.655.655 0 00.655.654h14.404a.655.655 0 00.655-.654V10.74l.347.183c.094.052.2.079.308.079a.675.675 0 00.334-.092.663.663 0 00.32-.563v-2.62a.646.646 0 00-.314-.556zM17.548 18.86h-2.292a5.37 5.37 0 00-3.608-1.925c0-.013.007-.026.007-.04 0 0-.266-4.01 1.964-5.238a5.395 5.395 0 00-1.292 3.068 4.583 4.583 0 003.256-4.377.655.655 0 00-.654-.655A4.574 4.574 0 0011 11.926a4.573 4.573 0 00-3.929-2.233.655.655 0 00-.654.655 4.583 4.583 0 003.256 4.377 5.395 5.395 0 00-1.292-3.068c2.373 1.29 1.964 5.238 1.964 5.238 0 .014.007.027.007.04a5.37 5.37 0 00-3.608 1.925H4.452v-8.826L11 6.51l6.548 3.522v8.827z" fill="#fff"/></svg>