<svg width="16" height="16" fill="none" xmlns="http://www.w3.org/2000/svg"><path d="M15.894 6.744l-1.595-3.191a1 1 0 00-1.342-.447l-1.555.777-3.274-.867a.509.509 0 00-.256 0l-3.275.867-1.554-.777a1 1 0 00-1.342.447L.106 6.743a1 1 0 00.447 1.342l1.688.845 3.468 2.476a.502.502 0 00.17.079l4 1a.5.5 0 00.474-.132l2.5-2.5.943-.942 1.65-.826a1 1 0 00.448-1.341zm-3.43 2.086l-2.152-1.723a.5.5 0 00-.667.038c-1.113 1.121-2.354.98-3.145.48L9.202 5h1.989l1.7 3.4-.428.43zm-2.618 2.616l-3.632-.908L3.139 8.34l1.75-3.5L8 4.017l.612.162L5.8 6.909l-.005.006a1 1 0 00.17 1.55c1.285.82 2.836.688 4.057-.312L11.75 9.54l-1.904 1.905zM8.24 13.62a.5.5 0 01-.607.364l-2.606-.652a.492.492 0 01-.17-.079L3.21 12.079a.5.5 0 01.582-.812l1.569 1.121 2.515.627a.5.5 0 01.364.607z" fill="#F60303"/></svg>