<svg width="24" height="24" fill="none" xmlns="http://www.w3.org/2000/svg"><path d="M23.84 10.116l-2.392-4.787a1.5 1.5 0 00-2.013-.67l-2.331 1.165-4.912-1.3a.763.763 0 00-.384 0l-4.912 1.3-2.331-1.165a1.5 1.5 0 00-2.013.67L.159 10.115a1.5 1.5 0 00.67 2.013l2.532 1.266 5.202 3.716a.756.756 0 00.254.117l6 1.5a.75.75 0 00.713-.197l3.75-3.75 1.413-1.414 2.477-1.238a1.5 1.5 0 00.67-2.012zm-5.145 3.128l-3.226-2.583a.75.75 0 00-1.002.057c-1.67 1.682-3.53 1.469-4.717.719l4.054-3.938h2.982l2.55 5.101-.641.644zm-3.926 3.925l-5.448-1.363-4.613-3.294 2.625-5.25L12 6.026l.919.242L8.7 10.363l-.008.009a1.5 1.5 0 00.255 2.326c1.928 1.23 4.254 1.031 6.086-.469l2.592 2.082-2.856 2.858zm-2.41 3.262a.75.75 0 01-.91.546l-3.91-.978a.74.74 0 01-.255-.117l-2.47-1.765a.75.75 0 01.872-1.218L8.04 18.58l3.773.942a.75.75 0 01.545.91z" fill="#fff"/></svg>