<svg width="20" height="20" fill="none" xmlns="http://www.w3.org/2000/svg"><path d="M17.767 3.114a.938.938 0 00-.881-.881c-3.094-.182-5.827.183-8.125 1.084-2.199.861-3.893 2.197-4.902 3.863-1.377 2.274-1.38 5.035-.036 7.671l-1.361 1.362A.939.939 0 103.79 17.54l1.362-1.362c1.307.667 2.646 1.004 3.941 1.004a7.133 7.133 0 003.73-1.04c1.665-1.008 3.001-2.704 3.863-4.901.898-2.3 1.263-5.034 1.081-8.128zm-5.919 11.424c-1.57.95-3.41 1.022-5.29.228l6.604-6.605a.94.94 0 00-1.328-1.328l-6.6 6.61c-.792-1.876-.72-3.722.235-5.291 1.633-2.698 5.51-4.197 10.468-4.082.108 4.956-1.39 8.834-4.089 10.468z" fill="#F60303"/></svg>