<svg width="22" height="22" fill="none" xmlns="http://www.w3.org/2000/svg"><path d="M20.99 5.157a.688.688 0 00-.667-.035c-3.689 1.805-6.324.96-9.109.067-2.93-.932-5.955-1.899-10.14.145a.688.688 0 00-.387.617v10.306a.687.687 0 00.99.618c3.689-1.805 6.324-.96 9.113-.067 1.654.529 3.338 1.067 5.242 1.067 1.47 0 3.071-.32 4.891-1.208a.688.688 0 00.386-.617V5.744a.687.687 0 00-.32-.587zM4.124 13.063a.687.687 0 01-1.375 0v-5.5a.688.688 0 111.375 0v5.5zM11 13.75a2.75 2.75 0 110-5.5 2.75 2.75 0 010 5.5zm8.25.688a.687.687 0 11-1.375 0v-5.5a.687.687 0 111.375 0v5.5z" fill="#fff"/></svg>