<svg width="16" height="16" fill="none" xmlns="http://www.w3.org/2000/svg"><g clip-path="url(#clip0_13498_26731)"><path d="M15.93 12.245L12.52 6.49a.992.992 0 00-.86-.49.99.99 0 00-.86.49l-.978 1.65a.25.25 0 000 .254l1.675 2.842a.508.508 0 01-.118.659.5.5 0 01-.738-.141l-4.28-7.261a1 1 0 00-1.723 0L.07 12.245A.5.5 0 00.514 13h14.972a.517.517 0 00.38-.16.5.5 0 00.064-.595zM4.027 7.5L5.5 5l1.473 2.5H4.027zM8.75 3.25a1.5 1.5 0 113 0 1.5 1.5 0 01-3 0z" fill="#F60303"/></g><defs><clipPath id="clip0_13498_26731"><path fill="#fff" d="M0 0h16v16H0z"/></clipPath></defs></svg>