<svg width="20" height="20" fill="none" xmlns="http://www.w3.org/2000/svg"><path d="M7.5 16.252a.625.625 0 01-.625.625h-3.75a1.875 1.875 0 01-1.623-2.813l2.188-3.773-1.08-.625a.625.625 0 01.15-1.148l2.56-.686a.625.625 0 01.766.443l.687 2.56a.625.625 0 01-.917.703l-1.084-.625-2.185 3.776a.625.625 0 00.538.938h3.75a.625.625 0 01.625.625zM10 2.502a.613.613 0 01.54.312l2.188 3.774-1.08.625a.625.625 0 00.149 1.142l2.56.687a.625.625 0 00.765-.442l.688-2.562a.625.625 0 00-.916-.703l-1.085.625-2.186-3.77a1.875 1.875 0 00-3.246 0L6.568 5.313a.625.625 0 001.082.625l1.81-3.125a.613.613 0 01.54-.312zm8.495 11.562l-1.808-3.125a.625.625 0 00-1.082.625l1.808 3.125a.625.625 0 01-.538.938H12.5v-1.25a.625.625 0 00-1.067-.442L9.558 15.81a.625.625 0 000 .884l1.875 1.875a.625.625 0 001.067-.442v-1.25h4.375a1.876 1.876 0 001.623-2.813h-.003z" fill="#fff"/></svg>