<svg width="24" height="24" fill="none" xmlns="http://www.w3.org/2000/svg"><path d="M14.25 21.001a.75.75 0 01-.75.75h-3a.75.75 0 110-1.5h3a.75.75 0 01.75.75zm6.714-6.39l-1.158 5.215a1.5 1.5 0 01-2.392.854l-2.554-1.93H9.142l-2.556 1.93a1.5 1.5 0 01-2.392-.854L3.036 14.61a1.509 1.509 0 01.31-1.285l2.678-3.212c.09-1.18.361-2.34.804-3.438 1.21-3.032 3.375-4.934 4.253-5.61a1.5 1.5 0 011.838 0c.875.676 3.044 2.578 4.253 5.61.443 1.098.714 2.258.804 3.438l2.677 3.212a1.508 1.508 0 01.311 1.285zM7.912 17.797c-1.007-1.833-1.619-3.636-1.834-5.407L4.5 14.285 5.659 19.5l.017-.012 2.236-1.691zm5.213-8.422a1.125 1.125 0 10-2.25 0 1.125 1.125 0 002.25 0zm6.375 4.909l-1.578-1.894c-.214 1.768-.825 3.57-1.834 5.409l2.236 1.687.017.012 1.159-5.214z" fill="#fff"/></svg>