<svg width="20" height="20" fill="none" xmlns="http://www.w3.org/2000/svg"><path d="M11.875 17.501a.625.625 0 01-.625.625h-2.5a.625.625 0 010-1.25h2.5a.625.625 0 01.625.625zm5.595-5.326l-.965 4.346a1.25 1.25 0 01-1.993.712l-2.128-1.607H7.618l-2.13 1.607a1.25 1.25 0 01-1.993-.712l-.965-4.346a1.257 1.257 0 01.26-1.07l2.23-2.677c.075-.984.301-1.95.67-2.865C6.698 3.036 8.502 1.45 9.234.887a1.25 1.25 0 011.532 0c.73.564 2.536 2.15 3.544 4.676.369.915.595 1.88.67 2.865l2.231 2.676a1.257 1.257 0 01.26 1.071zM6.593 14.831c-.839-1.527-1.348-3.029-1.528-4.505L3.75 11.904l.966 4.347.014-.01 1.863-1.41zm4.345-7.018a.938.938 0 10-1.876 0 .938.938 0 001.876 0zm5.312 4.091l-1.315-1.578c-.178 1.473-.687 2.975-1.528 4.507l1.863 1.406.014.01.966-4.345z" fill="#F60303"/></svg>