<svg width="22" height="22" fill="none" xmlns="http://www.w3.org/2000/svg"><path d="M19.483 3.637l-1.303.186.186-1.304c.08-.566-.61-.912-1.014-.507L14.96 4.404a.598.598 0 00-.169.338l-.27 1.895-2.953 2.952a1.773 1.773 0 00-.768-.18c-.989 0-1.793.805-1.793 1.793 0 .99.804 1.794 1.793 1.794.99 0 1.793-.805 1.793-1.793a1.76 1.76 0 00-.18-.769l2.953-2.952 1.895-.27a.598.598 0 00.338-.17l2.391-2.391c.404-.404.062-1.094-.507-1.014z" fill="#fff"/><path d="M15.65 8.879l-1.894 1.894c.02.137.033.277.033.42A2.992 2.992 0 0110.8 14.18a2.992 2.992 0 01-2.989-2.988 2.992 2.992 0 012.99-2.99c.142 0 .281.014.419.034l1.894-1.894a5.338 5.338 0 00-2.314-.53 5.386 5.386 0 00-5.38 5.38 5.386 5.386 0 005.38 5.38 5.386 5.386 0 005.38-5.38 5.34 5.34 0 00-.53-2.314z" fill="#fff"/><path d="M18.922 7.408l-.477.478a1.803 1.803 0 01-1.015.507l-.648.093c.378.829.594 1.746.594 2.715a6.583 6.583 0 01-6.576 6.576A6.583 6.583 0 014.225 11.2 6.583 6.583 0 0110.8 4.626c.969 0 1.886.216 2.715.593l.093-.648c.054-.381.235-.742.507-1.014l.478-.478a8.91 8.91 0 00-3.793-.845c-4.944 0-8.966 4.023-8.966 8.967 0 4.944 4.022 8.967 8.966 8.967 4.945 0 8.967-4.023 8.967-8.967a8.91 8.91 0 00-.845-3.793z" fill="#fff"/></svg>