<svg width="26" height="26" fill="none" xmlns="http://www.w3.org/2000/svg"><path d="M24.445 5.126a7.197 7.197 0 00-10.516 0A7.785 7.785 0 0013 6.316a7.773 7.773 0 00-.93-1.19 7.197 7.197 0 00-10.515 0 1.219 1.219 0 00.396 1.958l4.752 2.069a7.663 7.663 0 00-4.41 9.039 1.219 1.219 0 001.914.651l7.574-5.767v9.674a1.219 1.219 0 102.438 0v-9.674l7.57 5.768a1.218 1.218 0 001.915-.651 7.663 7.663 0 00-4.411-9.039l4.756-2.069a1.219 1.219 0 00.396-1.958v-.001zm-17.632.155a4.79 4.79 0 013.492 1.524 5.3 5.3 0 011.1 1.735l-6.53-2.842a4.7 4.7 0 011.938-.417zM4.508 15.554a5.253 5.253 0 013.874-4.405 5.362 5.362 0 012.088-.132l-5.962 4.537zM20.82 13.59c.353.603.58 1.271.668 1.964l-5.949-4.538a5.3 5.3 0 012.083.133 5.24 5.24 0 013.198 2.441zm-6.225-5.05a5.323 5.323 0 011.1-1.735 4.79 4.79 0 013.492-1.524 4.7 4.7 0 011.938.417l-6.53 2.842z" fill="#F60303"/></svg>