<svg width="26" height="26" fill="none" xmlns="http://www.w3.org/2000/svg"><path d="M20.431 6.055a8.124 8.124 0 00-14.862 0 7.719 7.719 0 006.212 14.118v3.39a1.22 1.22 0 002.438 0v-3.388c.905.358 1.87.543 2.844.544h.195a7.72 7.72 0 003.174-14.664zM17.2 18.282a5.281 5.281 0 01-2.981-.834v-3.694l4.202-2.101a1.219 1.219 0 10-1.091-2.18l-3.111 1.555v-2.09a1.219 1.219 0 10-2.438 0v4.527l-3.11-1.555a1.219 1.219 0 00-1.091 2.18l4.201 2.101v1.257a5.306 5.306 0 01-2.98.834c-2.796-.07-5.152-2.495-5.145-5.295a5.262 5.262 0 013.312-4.885 1.219 1.219 0 00.689-.711 5.687 5.687 0 0110.686 0 1.22 1.22 0 00.689.71 5.262 5.262 0 013.312 4.884c.008 2.799-2.348 5.224-5.144 5.297z" fill="#F60303"/></svg>