<svg width="20" height="20" fill="none" xmlns="http://www.w3.org/2000/svg"><g clip-path="url(#clip0_654_5)"><path d="M15.717 4.658a6.25 6.25 0 00-11.433 0 5.938 5.938 0 004.779 10.859v2.608a.938.938 0 001.875 0v-2.606a5.958 5.958 0 002.187.418h.15a5.937 5.937 0 002.442-11.28zm-2.486 9.404a4.063 4.063 0 01-2.293-.641V10.58l3.232-1.617a.938.938 0 10-.84-1.676l-2.392 1.196V6.875a.938.938 0 00-1.875 0v3.483L6.67 9.162a.938.938 0 00-.84 1.676l3.233 1.617v.966a4.082 4.082 0 01-2.293.641c-2.151-.053-3.963-1.918-3.957-4.072A4.048 4.048 0 015.36 6.232a.937.937 0 00.53-.547 4.375 4.375 0 018.22 0 .938.938 0 00.53.547 4.048 4.048 0 012.548 3.756c.006 2.153-1.806 4.019-3.957 4.074z" fill="#fff"/></g><defs><clipPath id="clip0_654_5"><path fill="#fff" d="M0 0h20v20H0z"/></clipPath></defs></svg>