<svg width="40" height="40" fill="none" xmlns="http://www.w3.org/2000/svg"><path d="M36.468 24.672c-.783-2.765-3.34-11.584-3.548-12.054a5.452 5.452 0 00-1.722-2.035c-.209-.73-.992-3.34-1.096-3.548A3.651 3.651 0 0026.815 5a3.63 3.63 0 00-3.653 3.653v3.235a5.446 5.446 0 00-.991 3.13 3.266 3.266 0 00-2.192-.834c-.835 0-1.618.313-2.192.835 0-1.148-.417-2.244-.991-3.131V8.653A3.63 3.63 0 0013.143 5a3.65 3.65 0 00-3.287 2.035c-.104.209-.626 2.035-1.096 3.548-.678.522-1.304 1.2-1.722 2.035-.209.47-2.765 9.289-3.548 12.002v.052c-.052.626-.157 1.252-.157 1.879a7.238 7.238 0 007.253 7.253 7.238 7.238 0 007.254-7.253v-2.662a3.234 3.234 0 002.139.835c.835 0 1.618-.313 2.14-.835v2.662c0 1.983.834 3.809 2.139 5.113 1.304 1.305 3.13 2.14 5.114 2.14a7.238 7.238 0 007.253-7.253c.104-.627 0-1.253-.157-1.879zm-25.725 5.584a3.72 3.72 0 01-3.705-3.705 3.72 3.72 0 013.705-3.705 3.72 3.72 0 013.705 3.705c-.052 2.035-1.67 3.705-3.705 3.705zm6.105-7.41c-1.252-2.087-3.6-3.549-6.21-3.549a7.07 7.07 0 00-4.956 1.983 407.901 407.901 0 012.4-8.14c.783-1.617 2.348-2.557 4.122-2.557 2.557 0 4.592 2.088 4.592 4.592v7.67h.052zm3.183.887c-1.2 0-2.14-.992-2.14-2.192 0-1.2.992-2.14 2.14-2.14 1.2 0 2.14.992 2.14 2.14 0 1.2-.94 2.192-2.14 2.192zm9.288 6.523a3.719 3.719 0 01-3.704-3.705 3.72 3.72 0 013.704-3.705 3.72 3.72 0 013.705 3.705 3.686 3.686 0 01-3.705 3.705zm.157-10.959a7.147 7.147 0 00-6.21 3.549v-7.723c0-2.557 2.088-4.592 4.592-4.592a4.58 4.58 0 014.123 2.557c.156.313 1.304 4.331 2.4 8.192-1.252-1.252-3.027-1.983-4.905-1.983z" fill="#fff"/><path d="M31.615 26.554a2.227 2.227 0 01-2.243 2.244c-1.253 0-2.244-1.044-2.244-2.244v-.157c.052-.156.104-.26.26-.365.105-.052.314-.104.418-.052a.47.47 0 00.26.052c.47 0 .888-.418.888-.887v-.209c-.052-.156 0-.313.104-.47.105-.104.261-.208.418-.208 1.2.104 2.14 1.096 2.14 2.296zm-18.628 0a2.227 2.227 0 01-2.244 2.244c-1.252 0-2.244-1.044-2.244-2.244v-.157c.052-.156.105-.26.261-.365a.556.556 0 01.418-.052.567.567 0 00.26.052c.47 0 .887-.418.887-.887v-.209c-.052-.156 0-.313.105-.47.104-.104.26-.208.417-.208 1.2.104 2.14 1.096 2.14 2.296zM24.78 15.382a.568.568 0 00.574-.47c.104-1.148 1.043-2.139 2.191-2.243a.611.611 0 00.47-.574.611.611 0 00-.574-.47c-1.67.209-2.974 1.565-3.131 3.183-.052.313.157.522.47.574zm-13.307-3.757a3.438 3.438 0 00-2.4 1.827s0 .052-.052.052c-.052.209-.209.574-.365 1.148a.463.463 0 00.365.626h.157c.208 0 .417-.157.521-.365.157-.522.261-.887.313-1.096.366-.626.94-1.096 1.67-1.252a.541.541 0 00.418-.627c-.053-.156-.366-.365-.627-.313z" fill="#fff"/></svg>