<svg width="372" height="240" fill="none" xmlns="http://www.w3.org/2000/svg"><path d="M57.086 106.613a1.186 1.186 0 010 2.372H35.02a1.186 1.186 0 110-2.372h22.065zm3.894 6.407a1.185 1.185 0 110 2.371H38.914a1.186 1.186 0 110-2.371h22.064zm82.19-27.282a1.185 1.185 0 010 2.372h-22.065a1.185 1.185 0 110-2.372h22.065zm-4.136 7.879a1.186 1.186 0 110 2.371H116.97a1.186 1.186 0 110-2.37h22.064zm31.405 75.613a1.187 1.187 0 010 2.372h-22.065a1.185 1.185 0 010-2.372h22.065zm40.855-4.332a1.187 1.187 0 010 2.372H189.23a1.186 1.186 0 010-2.372h22.064zm66.375 38.457a1.187 1.187 0 010 2.372h-22.064a1.186 1.186 0 010-2.372h22.064zm1.965 6.446a1.185 1.185 0 110 2.371h-22.065a1.185 1.185 0 110-2.371h22.065zm61.051-132.727a1.186 1.186 0 010 2.371H318.62a1.185 1.185 0 110-2.37h22.065zM222.896 66.047a1.186 1.186 0 110 2.371h-22.064a1.186 1.186 0 110-2.371h22.064zm-3.13 5.512a1.186 1.186 0 110 2.37h-22.064a1.186 1.186 0 110-2.37h22.064zM331.7 81.797a1.186 1.186 0 110 2.371h-22.064a1.186 1.186 0 110-2.371H331.7zm-167.646 92.555a1.185 1.185 0 110 2.371h-22.065a1.185 1.185 0 010-2.371h22.065z" fill="#EBEBEB"/><path d="M307.05 118.586h-54.079c-1.784 0-3.098-.376-3.943-1.127-.751-.845-1.127-2.159-1.127-3.943V22.257c0-1.783.376-3.05 1.127-3.802.845-.845 2.159-1.267 3.943-1.267h44.925c9.201 0 16.008 1.783 20.421 5.351 4.412 3.474 6.619 8.872 6.619 16.196v6.76c0 3.943-.704 7.182-2.113 9.717-1.314 2.441-3.38 4.272-6.196 5.492 6.009.564 10.468 2.63 13.379 6.197 2.91 3.568 4.365 8.778 4.365 15.632V95.49c0 7.886-2.253 13.707-6.759 17.463-4.413 3.755-11.267 5.633-20.562 5.633zm-27.462-77.457v15.21h11.971c1.784 0 3.098-.47 3.943-1.409.939-.939 1.408-2.347 1.408-4.225v-3.943c0-1.878-.469-3.286-1.408-4.225-.845-.939-2.159-1.408-3.943-1.408h-11.971zm0 36.898v16.618h18.308c1.784 0 3.098-.47 3.943-1.409.939-.939 1.409-2.347 1.409-4.225V83.52c0-1.878-.47-3.24-1.409-4.084-.845-.939-2.159-1.408-3.943-1.408h-18.308zm-53.417 40.559h-65.345c-1.784 0-3.099-.376-3.943-1.127-.752-.845-1.127-2.159-1.127-3.943V22.257c0-1.783.375-3.05 1.127-3.802.844-.845 2.159-1.267 3.943-1.267h65.345c1.784 0 3.052.422 3.803 1.267.845.751 1.267 2.019 1.267 3.802v16.478c0 1.784-.422 3.098-1.267 3.943-.751.751-2.019 1.127-3.803 1.127h-38.869v10.844h27.462c1.784 0 3.051.422 3.803 1.267.845.751 1.267 2.019 1.267 3.803v15.068c0 1.784-.422 3.099-1.267 3.944-.752.75-2.019 1.126-3.803 1.126h-27.462V91.97h38.869c1.784 0 3.052.422 3.803 1.267.845.751 1.267 2.019 1.267 3.803v16.477c0 1.784-.422 3.098-1.267 3.943-.751.751-2.019 1.127-3.803 1.127zM111.527 17.188h20.984c1.784 0 3.051.422 3.802 1.267.845.751 1.268 2.019 1.268 3.802V76.9c0 3.004-.141 5.821-.423 8.45-.187 2.535-.892 5.54-2.112 9.013l-7.042 19.153c-.469 1.408-1.173 2.629-2.112 3.662-.845.939-2.019 1.408-3.521 1.408h-18.73c-1.503 0-2.864-.329-4.085-.986-1.22-.657-2.018-1.737-2.394-3.239l-6.478-22.956c-.282-.938-.657-1.549-1.127-1.83-.375-.376-.845-.564-1.408-.564h-1.267c-.564 0-1.08.188-1.55.564-.375.281-.704.892-.985 1.83l-6.62 22.956c-.375 1.408-1.08 2.488-2.112 3.239-1.033.657-2.3.986-3.802.986h-18.59c-1.502 0-2.817-.469-3.943-1.408-1.033-.939-1.784-2.16-2.254-3.662l-7.041-19.435c-1.22-3.474-1.972-6.478-2.254-9.013a118.916 118.916 0 01-.281-8.45v-54.36c0-1.784.375-3.052 1.127-3.803.845-.845 2.159-1.267 3.943-1.267h21.688c1.784 0 3.051.422 3.802 1.267.845.751 1.268 2.019 1.268 3.802v51.826l8.168-17.744c.751-1.596 1.737-2.723 2.957-3.38 1.22-.658 2.723-.986 4.507-.986h5.915c1.784 0 3.286.328 4.507.986 1.22.657 2.206 1.783 2.957 3.38l8.168 17.744V22.257c0-1.783.376-3.05 1.127-3.802.845-.845 2.159-1.267 3.943-1.267zm218.135 200.528h-55.918c-1.527 0-2.652-.322-3.375-.965-.642-.723-.964-1.847-.964-3.374v-78.093c0-1.527.322-2.611.964-3.254.723-.723 1.848-1.085 3.375-1.085h55.918c1.527 0 2.611.362 3.254 1.085.723.643 1.085 1.727 1.085 3.254v14.1c0 1.527-.362 2.651-1.085 3.374-.643.643-1.727.965-3.254.965H296.4v9.279h23.501c1.526 0 2.611.362 3.253 1.085.724.642 1.085 1.727 1.085 3.254v12.895c0 1.526-.361 2.651-1.085 3.374-.642.643-1.727.964-3.253.964H296.4v10.364h33.262c1.527 0 2.611.362 3.254 1.085.723.643 1.085 1.727 1.085 3.254v14.1c0 1.527-.362 2.651-1.085 3.374-.643.643-1.727.965-3.254.965zm-98.369 0h-19.524c-1.526 0-2.651-.322-3.374-.965-.643-.723-.964-1.847-.964-3.374v-59.172h-17.716c-1.526 0-2.651-.322-3.374-.965-.643-.723-.964-1.847-.964-3.374v-14.582c0-1.527.321-2.611.964-3.254.723-.723 1.848-1.085 3.374-1.085h63.632c1.526 0 2.611.362 3.254 1.085.723.643 1.084 1.727 1.084 3.254v14.582c0 1.527-.361 2.651-1.084 3.374-.643.643-1.728.965-3.254.965h-17.716v59.172c0 1.527-.362 2.651-1.085 3.374-.642.643-1.727.965-3.253.965zm-111.532 0c-1.527 0-2.652-.322-3.375-.965-.643-.723-.964-1.847-.964-3.374v-14.341c0-1.527.321-2.611.964-3.254.723-.723 1.848-1.085 3.375-1.085h11.93v-40.492h-11.93c-1.527 0-2.652-.322-3.375-.965-.643-.723-.964-1.847-.964-3.374v-14.582c0-1.527.321-2.611.964-3.254.723-.723 1.848-1.085 3.375-1.085H171.1c1.526 0 2.611.362 3.253 1.085.724.643 1.085 1.727 1.085 3.254v14.582c0 1.527-.361 2.651-1.085 3.374-.642.643-1.727.965-3.253.965h-11.69v40.492h11.69c1.526 0 2.611.362 3.253 1.085.724.643 1.085 1.727 1.085 3.254v14.341c0 1.527-.361 2.651-1.085 3.374-.642.643-1.727.965-3.253.965h-51.339zm-40.541 0H41.139c-1.526 0-2.651-.322-3.374-.965-.643-.723-.964-1.847-.964-3.374v-14.1c0-1.527.321-2.611.964-3.254.723-.723 1.848-1.085 3.374-1.085h32.419c1.044 0 1.807-.321 2.29-.964.562-.723.843-1.566.843-2.531 0-1.365-.281-2.37-.844-3.012-.482-.643-1.245-1.005-2.29-1.085l-18.077-2.531c-5.624-.803-10.163-2.651-13.618-5.543-3.374-2.893-5.061-7.713-5.061-14.462v-12.654c0-6.829 2.21-12.052 6.628-15.667 4.419-3.696 10.525-5.544 18.318-5.544H95.49c1.527 0 2.611.362 3.254 1.085.723.643 1.085 1.727 1.085 3.254v14.341c0 1.527-.362 2.651-1.085 3.374-.643.643-1.727.965-3.254.965H67.41c-1.044 0-1.848.361-2.41 1.084-.562.643-.844 1.487-.844 2.531s.282 1.928.844 2.651c.562.723 1.366 1.125 2.41 1.205l17.957 2.411c5.624.803 10.163 2.651 13.618 5.543 3.455 2.893 5.182 7.713 5.182 14.462v12.654c0 6.829-2.249 12.092-6.749 15.787-4.419 3.616-10.484 5.424-18.197 5.424z" fill="#EBEBEB"/><path d="M24.152 178.103L6.487 222.389h40.602l-17.666-44.286c-.95-2.382-4.321-2.382-5.271 0z" fill="#F60303"/><path d="M23.05 177.666c1.347-3.377 6.128-3.377 7.475 0l18.313 45.912H4.736l18.314-45.912zm5.272.879c-.553-1.386-2.516-1.386-3.069 0l-17.016 42.66h37.101l-17.016-42.66z" fill="#323139"/><path opacity=".23" d="M8.586 217.125l-2.1 5.263H47.09l-2.1-5.263H8.586z" fill="#323139"/><path opacity=".23" d="M45.794 215.938l3.047 7.635H4.736l3.046-7.635h38.012zM8.236 221.2H45.34l-1.153-2.891H9.391L8.236 221.2z" fill="#323139"/><path d="M27.218 181.849a1.188 1.188 0 011.546.652l13.371 32.859a1.186 1.186 0 01-2.197.893l-13.372-32.858a1.187 1.187 0 01.652-1.546z" fill="#fff" fill-opacity=".16"/><path d="M50.022 225.479H3.556a2.378 2.378 0 01-2.37-2.371 2.377 2.377 0 012.37-2.37h46.466a2.377 2.377 0 012.37 2.37 2.379 2.379 0 01-2.37 2.371z" fill="#890101"/><path d="M51.206 223.107a1.19 1.19 0 00-1.183-1.185H3.556c-.649 0-1.185.536-1.185 1.185 0 .648.536 1.184 1.185 1.184h46.467c.647 0 1.183-.537 1.183-1.184zm2.372 0a3.563 3.563 0 01-3.555 3.555H3.556A3.562 3.562 0 010 223.107a3.562 3.562 0 013.556-3.556h46.467a3.563 3.563 0 013.555 3.556z" fill="#323139"/><path opacity=".23" d="M50.022 223.108H3.556a2.37 2.37 0 01-2.04-1.186 2.34 2.34 0 00-.33 1.186 2.377 2.377 0 002.37 2.37h46.466a2.377 2.377 0 002.37-2.37c0-.433-.127-.835-.332-1.186a2.366 2.366 0 01-2.038 1.186z" fill="#B10202"/><path d="M11.381 210.117h30.813l-5.333-13.371H16.716l-5.335 13.371z" fill="#323139"/><path d="M37.665 195.562l6.28 15.743H9.63l5.982-14.997.3-.746h21.752zm-24.534 13.37h27.313l-4.387-10.998H17.519l-4.388 10.998z" fill="#323139"/><path d="M33.472 197.224a1.188 1.188 0 011.546.652l4.062 9.981a1.187 1.187 0 01-2.198.894l-4.061-9.981a1.187 1.187 0 01.651-1.546zm135.097 5.35h-3.337v26.353h3.337v-26.353z" fill="#fff"/><path d="M168.57 201.387c.655 0 1.186.53 1.186 1.185v26.352c0 .655-.531 1.187-1.186 1.187h-3.338a1.186 1.186 0 01-1.186-1.187v-26.352c0-.655.531-1.185 1.186-1.185h3.338zm-2.153 26.352h.966v-23.981h-.966v23.981z" fill="#323139"/><path opacity=".57" d="M168.569 202.574h-3.337v8.04h3.337v-8.04z" fill="#323139"/><path opacity=".57" d="M169.756 201.387v10.411h-5.71v-10.411h5.71zm-3.339 8.039h.966v-5.668h-.966v5.668z" fill="#323139"/><path d="M171.095 227.742a1.186 1.186 0 010 2.372h-8.387a1.186 1.186 0 010-2.372h8.387z" fill="#323139"/><path d="M215.941 202.574h-3.338v26.353h3.338v-26.353z" fill="#fff"/><path d="M215.941 201.387c.655 0 1.186.53 1.186 1.185v26.352c0 .655-.531 1.187-1.186 1.187h-3.338a1.186 1.186 0 01-1.186-1.187v-26.352c0-.655.531-1.185 1.186-1.185h3.338zm-2.152 26.352h.965v-23.981h-.965v23.981z" fill="#323139"/><path opacity=".57" d="M215.941 202.574h-3.338v8.04h3.338v-8.04z" fill="#323139"/><path opacity=".57" d="M217.127 201.387v10.411h-5.71v-10.411h5.71zm-3.338 8.039h.965v-5.668h-.965v5.668z" fill="#323139"/><path d="M218.465 227.742a1.186 1.186 0 010 2.372h-8.388a1.185 1.185 0 010-2.372h8.388z" fill="#323139"/><path d="M228.369 203.598h-75.565c-1.2 0-2.174-.972-2.174-2.172v-13.211c0-1.2.973-2.172 2.174-2.172h75.565c1.2 0 2.172.972 2.172 2.172v13.211c0 1.2-.972 2.172-2.172 2.172z" fill="#F60303"/><path d="M229.355 188.213a.986.986 0 00-.986-.986h-75.565a.986.986 0 00-.988.986v13.211c0 .543.442.986.988.986h75.565a.986.986 0 00.986-.986v-13.211zm2.372 13.211a3.36 3.36 0 01-3.358 3.359h-75.565a3.36 3.36 0 01-3.359-3.359v-13.211a3.358 3.358 0 013.359-3.358h75.565a3.358 3.358 0 013.358 3.358v13.211z" fill="#323139"/><path opacity=".23" d="M228.369 194.821h-75.565c-1.2 0-2.174-.973-2.174-2.173v8.778c0 1.2.974 2.172 2.174 2.172h75.565c1.2 0 2.172-.972 2.172-2.172v-8.778c0 1.2-.972 2.173-2.172 2.173z" fill="#323139"/><path opacity=".23" d="M229.355 195.858a3.347 3.347 0 01-.986.148h-75.565a3.36 3.36 0 01-.988-.148v5.568c0 .544.442.986.988.986h75.565a.987.987 0 00.986-.986v-5.568zm2.372 5.568a3.357 3.357 0 01-3.358 3.358h-75.565a3.358 3.358 0 01-3.359-3.358v-8.778h2.371c0 .544.442.987.988.987h75.565a.986.986 0 00.986-.987h2.372v8.778z" fill="#323139"/><path d="M154.612 203.598h4.822l5.933-17.555h-4.821l-5.934 17.555z" fill="#323139"/><path d="M167.02 184.855l-6.735 19.928h-7.327l6.737-19.928h7.325zm-10.756 17.555h2.318l5.132-15.183h-2.316l-5.134 15.183zm10.586 1.188h4.822l5.933-17.555h-4.82l-5.935 17.555z" fill="#323139"/><path d="M179.258 184.855l-6.734 19.928h-7.327l6.736-19.928h7.325zm-10.755 17.555h2.318l5.131-15.183h-2.315l-5.134 15.183zm10.586 1.188h4.822l5.933-17.555h-4.821l-5.934 17.555z" fill="#323139"/><path d="M191.497 184.855l-6.735 19.928h-7.327l6.737-19.928h7.325zm-10.756 17.555h2.318l5.132-15.183h-2.316l-5.134 15.183zm10.587 1.188h4.821l5.935-17.555h-4.823l-5.933 17.555z" fill="#323139"/><path d="M203.736 184.855l-6.735 19.928h-7.326l6.735-19.928h7.326zm-10.755 17.555h2.317l5.132-15.183h-2.316l-5.133 15.183zm10.586 1.188h4.821l5.934-17.555H209.5l-5.933 17.555z" fill="#323139"/><path d="M215.975 184.855l-6.736 19.928h-7.326l6.736-19.928h7.326zm-10.756 17.555h2.317l5.133-15.183h-2.317l-5.133 15.183zm10.586 1.188h4.821l5.934-17.555h-4.822l-5.933 17.555z" fill="#323139"/><path d="M228.213 184.855l-6.735 19.928h-7.326l6.735-19.928h7.326zm-10.755 17.555h2.317l5.132-15.183h-2.317l-5.132 15.183z" fill="#323139"/><path opacity=".42" d="M225.443 188.012a1.185 1.185 0 110 2.371h-69.714a1.186 1.186 0 010-2.371h69.714z" fill="#FFEAA6"/><path d="M49.755 185.509L32.09 229.795h40.602l-17.665-44.286c-.949-2.382-4.32-2.382-5.272 0z" fill="#F60303"/><path d="M48.653 185.068c1.348-3.376 6.13-3.379 7.476 0l18.313 45.912H30.339l18.314-45.912zm5.272.879c-.551-1.384-2.514-1.387-3.068.001l-17.016 42.66h37.1l-17.016-42.661z" fill="#323139"/><path opacity=".23" d="M34.19 224.531l-2.1 5.262h40.603l-2.1-5.262H34.19z" fill="#323139"/><path opacity=".23" d="M71.397 223.344l3.047 7.634H30.339l3.047-7.634h38.011zm-37.558 5.261h37.103l-1.153-2.89H34.994l-1.154 2.89z" fill="#323139"/><path d="M52.822 189.256a1.186 1.186 0 011.545.652l13.371 32.858a1.187 1.187 0 01-2.197.894L52.17 190.801a1.186 1.186 0 01.651-1.545z" fill="#fff" fill-opacity=".16"/><path d="M75.625 232.885H29.16a2.377 2.377 0 01-2.37-2.37 2.378 2.378 0 012.37-2.37h46.466a2.377 2.377 0 012.37 2.37 2.378 2.378 0 01-2.37 2.37z" fill="#890101"/><path d="M76.81 230.513c0-.648-.536-1.184-1.184-1.185H29.159c-.648 0-1.184.537-1.184 1.185s.535 1.184 1.184 1.184h46.467c.647 0 1.183-.536 1.183-1.184zm2.372 0a3.564 3.564 0 01-3.556 3.556H29.159a3.562 3.562 0 01-3.556-3.556 3.563 3.563 0 013.556-3.556h46.467a3.563 3.563 0 013.556 3.556z" fill="#323139"/><path opacity=".23" d="M75.625 230.514H29.16a2.37 2.37 0 01-2.04-1.186 2.34 2.34 0 00-.33 1.186 2.377 2.377 0 002.37 2.37h46.466a2.377 2.377 0 002.37-2.37c0-.433-.125-.835-.33-1.186a2.365 2.365 0 01-2.04 1.186z" fill="#B10202"/><path d="M36.986 217.523h30.813l-5.335-13.371H42.32l-5.333 13.371z" fill="#323139"/><path d="M63.268 202.965l6.28 15.742H35.237l5.98-14.996.3-.746h21.752zm-24.532 13.37H66.05l-4.389-10.999H43.123l-4.386 10.999z" fill="#323139"/><path d="M59.077 204.631a1.186 1.186 0 011.546.652l4.06 9.982a1.185 1.185 0 11-2.197.893l-4.061-9.982a1.186 1.186 0 01.652-1.545z" fill="#fff"/><path d="M296.17 224.758a1.184 1.184 0 110 2.371h-27.568a1.185 1.185 0 110-2.371h27.568zm-3.927 4.508a1.185 1.185 0 110 2.371h-6.313a1.185 1.185 0 010-2.371h6.313zm-123.673 3.718a1.187 1.187 0 010 2.372h-3.338a1.186 1.186 0 010-2.372h3.338zm-14.206-7.199a1.186 1.186 0 110 2.371h-17.698a1.185 1.185 0 110-2.371h17.698zm81.766-2.953a1.186 1.186 0 110 2.371h-10.686a1.185 1.185 0 110-2.371h10.686zm-108.127 2.953a1.186 1.186 0 010 2.371H121.7a1.184 1.184 0 110-2.371h6.303zm-60.205 11.844a1.186 1.186 0 110 2.371H42.194a1.185 1.185 0 110-2.371h25.604zm-54.436-5.93a1.187 1.187 0 110 2.372H7.414a1.186 1.186 0 010-2.372h5.948z" fill="#323139"/><path d="M33.306 164.422a1.186 1.186 0 110 2.371H11.993a1.185 1.185 0 110-2.371h21.313zm109.269 26.39a1.186 1.186 0 010 2.372H121.7a1.185 1.185 0 010-2.372h20.875zm-10.439-7.796a1.186 1.186 0 110 2.371h-7.285a1.185 1.185 0 110-2.371h7.285zm111.555-6.262a1.186 1.186 0 010 2.371h-22.509a1.184 1.184 0 110-2.371h22.509zm0-6.305a1.186 1.186 0 010 2.372h-11.254a1.186 1.186 0 010-2.372h11.254zm24.911-5.551a1.187 1.187 0 110 2.372h-12.997a1.186 1.186 0 010-2.372h12.997zm-3.939-74.038a1.186 1.186 0 110 2.37h-30.326a1.185 1.185 0 110-2.37h30.326zm-15.162 5.511a1.187 1.187 0 110 2.371h-11.618a1.185 1.185 0 110-2.37h11.618zm-87.547-31.902a1.186 1.186 0 110 2.371h-16.439a1.185 1.185 0 110-2.371h16.439zm-6.543 7.094a1.186 1.186 0 110 2.37h-4.779a1.186 1.186 0 110-2.37h4.779zm-40.012-31.118a1.185 1.185 0 110 2.372h-14.966a1.185 1.185 0 110-2.372h14.966zm-7.483 7.095a1.186 1.186 0 110 2.37h-3.544a1.186 1.186 0 110-2.37h3.544zM45.33 75.5a1.186 1.186 0 110 2.371H25.266a1.185 1.185 0 110-2.371H45.33zm-5.942 6.3a1.185 1.185 0 110 2.372h-8.735a1.185 1.185 0 110-2.371h8.735zm287.506-39.386a1.186 1.186 0 110 2.371h-16.546a1.186 1.186 0 110-2.37h16.546zm-2.682 5.126a1.186 1.186 0 110 2.37h-8.852a1.186 1.186 0 110-2.37h8.852z" fill="#fff"/><path d="M215.941 232.984a1.187 1.187 0 010 2.372h-3.338a1.186 1.186 0 010-2.372h3.338z" fill="#323139"/><path d="M45.159 156.883a1.185 1.185 0 110 2.371H24.17a1.185 1.185 0 110-2.371h20.988zm278.192 23.633a1.185 1.185 0 110 2.371h-21.312a1.186 1.186 0 010-2.371h21.312zm7.917-5.481a1.185 1.185 0 010 2.371H310.28a1.185 1.185 0 110-2.371h20.988zm7.704-36.597h-3.942v89.221h3.942v-89.221z" fill="#fff"/><path d="M338.972 137.25c.655 0 1.186.531 1.186 1.186v89.221c0 .655-.531 1.186-1.186 1.186h-3.942a1.186 1.186 0 01-1.186-1.186v-89.221c0-.655.531-1.186 1.186-1.186h3.942zm-2.757 89.221h1.571v-86.85h-1.571v86.85z" fill="#323139"/><path opacity=".57" d="M338.972 138.438h-3.942v9.497h3.942v-9.497z" fill="#323139"/><path opacity=".57" d="M340.158 137.25v11.869h-6.314V137.25h6.314zm-3.943 9.497h1.571v-7.126h-1.571v7.126z" fill="#323139"/><path d="M341.956 226.473a1.185 1.185 0 110 2.371h-9.908a1.186 1.186 0 010-2.371h9.908z" fill="#323139"/><path d="M368.083 113.432l-24.866 24.866a8.789 8.789 0 01-12.429 0l-24.866-24.866a8.787 8.787 0 010-12.429l24.866-24.866a8.788 8.788 0 0112.429 0l24.866 24.866c3.432 3.431 3.432 8.996 0 12.429z" fill="#F60303"/><path d="M329.948 75.297c3.896-3.896 10.212-3.896 14.108 0l24.865 24.865c3.896 3.895 3.896 10.212 0 14.108l-24.865 24.865c-3.896 3.896-10.212 3.896-14.108 0l-24.865-24.865c-3.896-3.896-3.896-10.212 0-14.108l24.865-24.865zm12.43 1.678a7.602 7.602 0 00-10.752 0l-24.865 24.865a7.601 7.601 0 000 10.752l24.865 24.865a7.601 7.601 0 0010.752 0l24.866-24.865a7.603 7.603 0 000-10.752l-24.866-24.865z" fill="#323139"/><path d="M360.781 111.973l-19.025 19.025a6.724 6.724 0 01-9.509 0l-19.025-19.025a6.724 6.724 0 010-9.509l19.025-19.026a6.723 6.723 0 019.509 0l19.025 19.026a6.722 6.722 0 010 9.509z" fill="#F60303"/><path d="M329.679 128.428a1.186 1.186 0 011.677 0l1.73 1.729v.001a5.527 5.527 0 001.979 1.274 1.186 1.186 0 11-.828 2.223 7.857 7.857 0 01-2.512-1.521l-.317-.299-1.729-1.73a1.186 1.186 0 010-1.677zm12.968 0a1.187 1.187 0 011.678 1.677l-1.73 1.73a7.904 7.904 0 01-2.829 1.82 1.186 1.186 0 11-.828-2.223 5.521 5.521 0 001.979-1.275l1.73-1.729zm-19.31-6.342a1.187 1.187 0 011.678 0l3.458 3.459a1.185 1.185 0 11-1.676 1.678l-3.46-3.46a1.186 1.186 0 010-1.677zm25.651 0a1.187 1.187 0 011.678 1.677l-3.459 3.46a1.186 1.186 0 11-1.677-1.678l3.458-3.459zm-31.993-6.341a1.187 1.187 0 011.678 0l3.459 3.458a1.187 1.187 0 01-1.677 1.678l-3.46-3.46a1.185 1.185 0 010-1.676zm38.335 0a1.185 1.185 0 111.678 1.676l-3.46 3.46a1.185 1.185 0 11-1.676-1.678l3.458-3.458zm-44.07-7.29a1.186 1.186 0 011.526.698c.269.72.692 1.397 1.274 1.979l1.73 1.73a1.186 1.186 0 01-1.677 1.677l-1.73-1.729a7.904 7.904 0 01-1.82-2.829 1.187 1.187 0 01.697-1.526zm49.957.698a1.186 1.186 0 112.223.828 7.904 7.904 0 01-1.82 2.829l-1.73 1.729a1.186 1.186 0 01-1.677-1.677l1.73-1.73a5.513 5.513 0 001.274-1.979zm-47.104-9.26a1.186 1.186 0 011.677 1.678l-1.73 1.73a5.518 5.518 0 00-1.274 1.979 1.186 1.186 0 11-2.223-.828 7.904 7.904 0 011.82-2.829l1.73-1.73zm44.1 0a1.186 1.186 0 011.677 0l1.73 1.73a7.89 7.89 0 011.82 2.829 1.187 1.187 0 01-2.223.828 5.513 5.513 0 00-1.274-1.979l-1.73-1.73a1.187 1.187 0 010-1.678zm-37.758-6.341a1.186 1.186 0 011.677 1.677l-3.459 3.46a1.187 1.187 0 01-1.678-1.677l3.46-3.46zm31.417 0a1.185 1.185 0 011.676 0l3.46 3.46a1.185 1.185 0 11-1.678 1.676l-3.458-3.459a1.185 1.185 0 010-1.677zm-25.075-6.342a1.185 1.185 0 111.676 1.678l-3.458 3.458a1.187 1.187 0 01-1.678-1.676l3.46-3.46zm18.733 0a1.186 1.186 0 011.677 0l3.459 3.46a1.185 1.185 0 11-1.678 1.676l-3.458-3.458a1.187 1.187 0 010-1.678zm-11.293-6.432a1.186 1.186 0 11.828 2.223 5.518 5.518 0 00-1.979 1.274l-1.73 1.73a1.186 1.186 0 11-1.677-1.677l1.729-1.73a7.894 7.894 0 012.829-1.82zm4.003.697a1.187 1.187 0 011.526-.697 7.891 7.891 0 012.829 1.82l1.73 1.73a1.187 1.187 0 01-1.678 1.677l-1.73-1.73A5.515 5.515 0 00338.938 83a1.187 1.187 0 01-.698-1.526z" fill="#fff"/><path opacity=".23" d="M368.083 101.934l-24.866 24.865a8.787 8.787 0 01-12.429 0l-24.866-24.865c-.145-.145-.248-.313-.381-.465-3.01 3.452-2.907 8.676.381 11.964l24.866 24.866a8.787 8.787 0 0012.429 0l24.866-24.866c3.288-3.288 3.391-8.512.38-11.964-.132.152-.236.32-.38.465z" fill="#323139"/><path opacity=".23" d="M369.357 100.688c3.412 3.912 3.303 9.845-.435 13.583l-24.867 24.865c-3.895 3.895-10.211 3.896-14.106 0l-24.866-24.865c-3.737-3.738-3.847-9.671-.436-13.583l.893-1.024.894 1.021c.099.114.192.24.236.297.056.073.078.098.091.111l24.866 24.865a7.601 7.601 0 0010.752 0l24.865-24.865c.013-.013.036-.038.092-.111.043-.057.135-.183.235-.297l.893-1.02.893 1.023zm-63.712 2.644c-1.76 2.922-1.396 6.749 1.116 9.261l24.866 24.865a7.601 7.601 0 0010.752 0l24.865-24.865c2.512-2.512 2.874-6.338 1.114-9.26l-24.303 24.303c-3.895 3.896-10.21 3.896-14.106 0l-24.304-24.304z" fill="#323139"/><path d="M339.71 108.562h-5.056c-.413 0-.717-.087-.913-.26-.174-.196-.272-.501-.293-.914l-.49-12.589c-.021-.413.055-.707.229-.88.174-.196.467-.294.88-.294h6.23c.413 0 .706.098.88.293.174.174.25.468.229.881l-.457 12.589c-.022.413-.13.718-.326.914-.196.173-.5.26-.913.26zm.489 8.545h-6.001c-.413 0-.718-.087-.913-.261-.174-.195-.261-.5-.261-.913v-4.272c0-.413.087-.707.261-.881.195-.195.5-.293.913-.293h6.001c.413 0 .707.098.88.293.196.174.294.468.294.881v4.272c0 .413-.098.718-.294.913-.173.174-.467.261-.88.261z" fill="#fff"/><path d="M193.051 19.76c-3.01-11.403-14.613-18.329-26.106-15.491-11.492 2.837-18.539 14.366-15.897 25.861l42.003-10.37z" fill="#F60303"/><path d="M166.656 3.097c12.133-2.995 24.381 4.316 27.559 16.353l.313 1.183-44.38 10.956-.274-1.193c-2.788-12.133 4.65-24.304 16.782-27.3zm24.882 15.793c-3.304-10.065-13.852-16.037-24.304-13.456-10.452 2.58-17.011 12.774-15.251 23.222l39.555-9.766z" fill="#323139"/><path d="M165.05 23.663l-4.832-14.816c-.692-2.8 1.034-5.657 3.834-6.348l4.631-1.143c2.801-.692 5.657 1.033 6.348 3.834l2.618 15.364" fill="#F60303"/><path d="M168.395.188c3.338-.824 6.735 1.14 7.717 4.396l.088.319.019.086 2.618 15.364a1.204 1.204 0 01-2.374.404l-2.609-15.306a4.054 4.054 0 00-4.882-2.925l-4.632 1.142a4.056 4.056 0 00-2.961 4.86l4.816 14.763a1.204 1.204 0 01-2.289.747l-4.833-14.816a1.266 1.266 0 01-.024-.086c-.851-3.446 1.269-6.955 4.715-7.805l4.631-1.143z" fill="#323139"/><path opacity=".23" d="M151.059 20.474a21.533 21.533 0 00-.011 9.655l42.003-10.369a21.55 21.55 0 00-4.502-8.541l-37.49 9.255z" fill="#323139"/><path d="M194.468 22.814l-43.254 10.678a3.311 3.311 0 01-3.998-2.415 3.312 3.312 0 012.415-3.998L192.885 16.4a3.312 3.312 0 013.998 2.415 3.31 3.31 0 01-2.415 3.998z" fill="#890101"/><path d="M192.597 15.229a4.517 4.517 0 015.456 3.295l.049.226a4.516 4.516 0 01-3.345 5.23l-43.255 10.678a4.515 4.515 0 01-5.455-3.295 4.515 4.515 0 013.296-5.455l43.254-10.68zm3.118 3.873a2.11 2.11 0 00-2.542-1.535L149.92 28.245a2.108 2.108 0 00-1.536 2.541 2.109 2.109 0 002.542 1.534l43.253-10.678a2.108 2.108 0 001.576-2.33l-.04-.21z" fill="#323139"/><path opacity=".23" d="M193.585 19.233L150.33 29.91a3.305 3.305 0 01-3.006-.761 3.267 3.267 0 00-.108 1.925 3.312 3.312 0 003.998 2.415l43.254-10.678a3.313 3.313 0 002.415-3.998 3.277 3.277 0 00-.991-1.654 3.307 3.307 0 01-2.307 2.073z" fill="#B10202"/></svg>