<svg width="22" height="22" viewBox="0 0 22 22" fill="none" xmlns="http://www.w3.org/2000/svg">
<path d="M18.2188 6.53125V6.1875C18.2179 5.44264 17.997 4.71463 17.5839 4.09483C17.1707 3.47504 16.5837 2.99107 15.8966 2.70366C15.2094 2.41625 14.4526 2.3382 13.7212 2.4793C12.9899 2.6204 12.3164 2.97437 11.7855 3.4968C11.7541 3.52845 11.7293 3.56601 11.7125 3.60731C11.6956 3.64861 11.6872 3.69283 11.6875 3.73742V11.3618C11.6877 11.4238 11.7046 11.4846 11.7365 11.5377C11.7684 11.5908 11.814 11.6344 11.8686 11.6637C11.9232 11.693 11.9847 11.7071 12.0467 11.7043C12.1086 11.7015 12.1686 11.6821 12.2204 11.648C12.8741 11.2288 13.6335 11.0041 14.41 11C14.5898 10.9967 14.764 11.0623 14.8968 11.1835C15.0297 11.3046 15.111 11.4721 15.1242 11.6514C15.1291 11.7447 15.1149 11.838 15.0826 11.9256C15.0502 12.0132 15.0004 12.0933 14.936 12.161C14.8717 12.2288 14.7942 12.2827 14.7084 12.3194C14.6225 12.3562 14.5301 12.3751 14.4367 12.375C13.7073 12.375 13.0079 12.6647 12.4921 13.1805C11.9764 13.6962 11.6867 14.3957 11.6867 15.125V18.0366C11.6866 18.088 11.6981 18.1388 11.7202 18.1852C11.7424 18.2316 11.7747 18.2724 11.8147 18.3047C12.3026 18.7084 12.877 18.9942 13.4933 19.1399C14.1096 19.2855 14.7511 19.287 15.3681 19.1444C15.9851 19.0017 16.5608 18.7187 17.0506 18.3173C17.5404 17.9159 17.9311 17.4069 18.1921 16.83C18.2184 16.772 18.2281 16.7078 18.22 16.6446C18.2119 16.5814 18.1865 16.5217 18.1465 16.4722C18.1064 16.4226 18.0534 16.3852 17.9934 16.364C17.9333 16.3428 17.8685 16.3387 17.8063 16.3522C17.3778 16.4504 16.9396 16.5 16.5 16.5H15.8357C15.6584 16.5022 15.4867 16.4372 15.3552 16.3182C15.2238 16.1991 15.1421 16.0348 15.1268 15.858C15.1205 15.764 15.1337 15.6697 15.1654 15.5809C15.1972 15.4922 15.2468 15.4109 15.3113 15.3422C15.3758 15.2734 15.4537 15.2187 15.5402 15.1813C15.6267 15.144 15.72 15.1248 15.8143 15.125H16.5018C17.22 15.1261 17.9278 14.9527 18.5643 14.6197C19.3179 14.2272 19.9441 13.6279 20.3693 12.8921C20.7944 12.1563 21.001 11.3146 20.9647 10.4656C20.9285 9.61655 20.6509 8.79549 20.1645 8.09865C19.6782 7.40181 19.0032 6.85809 18.2188 6.53125ZM17.1875 9.625H16.8438C16.0233 9.625 15.2364 9.29905 14.6562 8.71886C14.076 8.13867 13.75 7.35176 13.75 6.53125V6.1875C13.75 6.00516 13.8225 5.8303 13.9514 5.70136C14.0803 5.57243 14.2552 5.5 14.4375 5.5C14.6199 5.5 14.7947 5.57243 14.9237 5.70136C15.0526 5.8303 15.125 6.00516 15.125 6.1875V6.53125C15.125 6.75696 15.1695 6.98046 15.2559 7.18899C15.3422 7.39752 15.4688 7.58699 15.6284 7.74659C15.9508 8.06892 16.3879 8.25 16.8438 8.25H17.1875C17.3699 8.25 17.5447 8.32243 17.6737 8.45136C17.8026 8.5803 17.875 8.75516 17.875 8.9375C17.875 9.11984 17.8026 9.2947 17.6737 9.42364C17.5447 9.55257 17.3699 9.625 17.1875 9.625ZM7.56254 2.40625C6.56004 2.40739 5.59892 2.80613 4.89005 3.51501C4.18117 4.22388 3.78242 5.185 3.78129 6.1875V6.53125C2.99696 6.85826 2.32213 7.40213 1.83594 8.09906C1.34974 8.796 1.07234 9.61711 1.03626 10.4661C1.00018 11.3151 1.20691 12.1568 1.63222 12.8925C2.05753 13.6281 2.68378 14.2273 3.43754 14.6197C4.07397 14.9527 4.78176 15.1261 5.50004 15.125H6.16433C6.342 15.1224 6.51406 15.1871 6.64592 15.3062C6.77777 15.4253 6.85963 15.5899 6.87504 15.767C6.88128 15.861 6.86812 15.9553 6.83638 16.0441C6.80464 16.1328 6.75499 16.2141 6.69051 16.2828C6.62604 16.3516 6.54812 16.4063 6.46159 16.4437C6.37507 16.481 6.28179 16.5002 6.18754 16.5H5.50004C5.06011 16.5002 4.62158 16.4503 4.19293 16.3513C4.13072 16.3378 4.06597 16.3417 4.00588 16.3628C3.9458 16.3839 3.89276 16.4212 3.85266 16.4707C3.81256 16.5201 3.78698 16.5798 3.77878 16.6429C3.77058 16.706 3.78007 16.7702 3.80621 16.8283C4.06723 17.4054 4.45782 17.9145 4.94761 18.3161C5.43741 18.7176 6.01322 19.0008 6.63027 19.1437C7.24733 19.2865 7.88901 19.2851 8.50544 19.1396C9.12187 18.9941 9.69644 18.7084 10.1845 18.3047C10.2245 18.2724 10.2568 18.2316 10.279 18.1852C10.3011 18.1388 10.3126 18.088 10.3125 18.0366V15.125C10.3125 14.3957 10.0228 13.6962 9.50708 13.1805C8.99136 12.6647 8.29188 12.375 7.56254 12.375C7.46913 12.3751 7.37669 12.3562 7.29083 12.3194C7.20498 12.2827 7.12752 12.2288 7.06318 12.161C6.99885 12.0933 6.94898 12.0132 6.91664 11.9256C6.88429 11.838 6.87013 11.7447 6.87504 11.6514C6.8882 11.4719 6.96968 11.3044 7.1027 11.1832C7.23571 11.062 7.41013 10.9964 7.59004 11C8.3666 11.0041 9.126 11.2288 9.77973 11.648C9.83149 11.6821 9.8915 11.7015 9.95341 11.7043C10.0153 11.7071 10.0768 11.693 10.1314 11.6637C10.186 11.6344 10.2317 11.5908 10.2636 11.5377C10.2955 11.4846 10.3124 11.4238 10.3125 11.3618V3.73742C10.3128 3.64719 10.2777 3.56045 10.2146 3.49594C9.50867 2.79746 8.5556 2.40585 7.56254 2.40625ZM8.25004 6.53125C8.25004 7.35176 7.92409 8.13867 7.3439 8.71886C6.76371 9.29905 5.9768 9.625 5.15629 9.625H4.81254C4.6302 9.625 4.45533 9.55257 4.3264 9.42364C4.19747 9.2947 4.12504 9.11984 4.12504 8.9375C4.12504 8.75516 4.19747 8.5803 4.3264 8.45136C4.45533 8.32243 4.6302 8.25 4.81254 8.25H5.15629C5.382 8.25 5.6055 8.20554 5.81402 8.11917C6.02255 8.03279 6.21203 7.90619 6.37163 7.74659C6.53123 7.58699 6.65783 7.39752 6.74421 7.18899C6.83058 6.98046 6.87504 6.75696 6.87504 6.53125V6.1875C6.87504 6.00516 6.94747 5.8303 7.0764 5.70136C7.20533 5.57243 7.3802 5.5 7.56254 5.5C7.74487 5.5 7.91974 5.57243 8.04867 5.70136C8.1776 5.8303 8.25004 6.00516 8.25004 6.1875V6.53125Z" fill="white"/>
</svg>
