<svg width="16" height="16" viewBox="0 0 16 16" fill="none" xmlns="http://www.w3.org/2000/svg">
<path d="M13 1.75H11.75V1.5C11.75 1.30109 11.671 1.11032 11.5303 0.96967C11.3897 0.829018 11.1989 0.75 11 0.75C10.8011 0.75 10.6103 0.829018 10.4697 0.96967C10.329 1.11032 10.25 1.30109 10.25 1.5V1.75H5.75V1.5C5.75 1.30109 5.67098 1.11032 5.53033 0.96967C5.38968 0.829018 5.19891 0.75 5 0.75C4.80109 0.75 4.61032 0.829018 4.46967 0.96967C4.32902 1.11032 4.25 1.30109 4.25 1.5V1.75H3C2.66848 1.75 2.35054 1.8817 2.11612 2.11612C1.8817 2.35054 1.75 2.66848 1.75 3V13C1.75 13.3315 1.8817 13.6495 2.11612 13.8839C2.35054 14.1183 2.66848 14.25 3 14.25H13C13.3315 14.25 13.6495 14.1183 13.8839 13.8839C14.1183 13.6495 14.25 13.3315 14.25 13V3C14.25 2.66848 14.1183 2.35054 13.8839 2.11612C13.6495 1.8817 13.3315 1.75 13 1.75ZM4.25 3.25C4.25 3.44891 4.32902 3.63968 4.46967 3.78033C4.61032 3.92098 4.80109 4 5 4C5.19891 4 5.38968 3.92098 5.53033 3.78033C5.67098 3.63968 5.75 3.44891 5.75 3.25H10.25C10.25 3.44891 10.329 3.63968 10.4697 3.78033C10.6103 3.92098 10.8011 4 11 4C11.1989 4 11.3897 3.92098 11.5303 3.78033C11.671 3.63968 11.75 3.44891 11.75 3.25H12.75V4.75H3.25V3.25H4.25ZM3.25 12.75V6.25H12.75V12.75H3.25ZM10.7806 7.46938C10.8505 7.53905 10.906 7.62185 10.9439 7.71301C10.9817 7.80417 11.0012 7.90191 11.0012 8.00062C11.0012 8.09934 10.9817 8.19707 10.9439 8.28824C10.906 8.3794 10.8505 8.4622 10.7806 8.53187L7.78062 11.5319C7.71095 11.6018 7.62815 11.6573 7.53699 11.6951C7.44583 11.733 7.34809 11.7525 7.24937 11.7525C7.15066 11.7525 7.05292 11.733 6.96176 11.6951C6.8706 11.6573 6.7878 11.6018 6.71812 11.5319L5.21812 10.0319C5.07723 9.89098 4.99807 9.69988 4.99807 9.50062C4.99807 9.30137 5.07723 9.11027 5.21812 8.96937C5.35902 8.82848 5.55012 8.74932 5.74937 8.74932C5.94863 8.74932 6.13973 8.82848 6.28062 8.96937L7.25 9.9375L9.71937 7.4675C9.78915 7.39789 9.87197 7.34272 9.96308 7.30513C10.0542 7.26755 10.1518 7.2483 10.2504 7.24847C10.349 7.24865 10.4465 7.26825 10.5375 7.30615C10.6285 7.34405 10.7111 7.39952 10.7806 7.46938Z" fill="white"/>
</svg>
