<svg width="22" height="22" viewBox="0 0 22 22" fill="none" xmlns="http://www.w3.org/2000/svg">
<path d="M20.625 8.9375H19.6969L17.3095 3.56641C17.2015 3.3234 17.0253 3.11694 16.8023 2.97203C16.5793 2.82713 16.3191 2.75 16.0531 2.75H5.94687C5.68093 2.75 5.4207 2.82713 5.1977 2.97203C4.9747 3.11694 4.79851 3.3234 4.69047 3.56641L2.30312 8.9375H1.375C1.19266 8.9375 1.0178 9.00993 0.888864 9.13886C0.759933 9.2678 0.6875 9.44266 0.6875 9.625C0.6875 9.80734 0.759933 9.9822 0.888864 10.1111C1.0178 10.2401 1.19266 10.3125 1.375 10.3125H2.0625V17.1875C2.0625 17.5522 2.20737 17.9019 2.46523 18.1598C2.72309 18.4176 3.07283 18.5625 3.4375 18.5625H5.5C5.86467 18.5625 6.21441 18.4176 6.47227 18.1598C6.73013 17.9019 6.875 17.5522 6.875 17.1875V16.5H15.125V17.1875C15.125 17.5522 15.2699 17.9019 15.5277 18.1598C15.7856 18.4176 16.1353 18.5625 16.5 18.5625H18.5625C18.9272 18.5625 19.2769 18.4176 19.5348 18.1598C19.7926 17.9019 19.9375 17.5522 19.9375 17.1875V10.3125H20.625C20.8073 10.3125 20.9822 10.2401 21.1111 10.1111C21.2401 9.9822 21.3125 9.80734 21.3125 9.625C21.3125 9.44266 21.2401 9.2678 21.1111 9.13886C20.9822 9.00993 20.8073 8.9375 20.625 8.9375ZM6.875 13.0625H4.8125C4.63016 13.0625 4.4553 12.9901 4.32636 12.8611C4.19743 12.7322 4.125 12.5573 4.125 12.375C4.125 12.1927 4.19743 12.0178 4.32636 11.8889C4.4553 11.7599 4.63016 11.6875 4.8125 11.6875H6.875C7.05734 11.6875 7.2322 11.7599 7.36114 11.8889C7.49007 12.0178 7.5625 12.1927 7.5625 12.375C7.5625 12.5573 7.49007 12.7322 7.36114 12.8611C7.2322 12.9901 7.05734 13.0625 6.875 13.0625ZM17.1875 13.0625H15.125C14.9427 13.0625 14.7678 12.9901 14.6389 12.8611C14.5099 12.7322 14.4375 12.5573 14.4375 12.375C14.4375 12.1927 14.5099 12.0178 14.6389 11.8889C14.7678 11.7599 14.9427 11.6875 15.125 11.6875H17.1875C17.3698 11.6875 17.5447 11.7599 17.6736 11.8889C17.8026 12.0178 17.875 12.1927 17.875 12.375C17.875 12.5573 17.8026 12.7322 17.6736 12.8611C17.5447 12.9901 17.3698 13.0625 17.1875 13.0625ZM3.80789 8.9375L5.94687 4.125H16.0531L18.1921 8.9375H3.80789Z" fill="white"/>
</svg>
