<svg width="22" height="22" viewBox="0 0 22 22" fill="none" xmlns="http://www.w3.org/2000/svg">
<path d="M19.9375 7.43617V4.8125C19.9375 4.44783 19.7926 4.09809 19.5348 3.84023C19.2769 3.58237 18.9272 3.4375 18.5625 3.4375H3.4375C3.07283 3.4375 2.72309 3.58237 2.46523 3.84023C2.20737 4.09809 2.0625 4.44783 2.0625 4.8125V15.8125C2.0625 16.1772 2.20737 16.5269 2.46523 16.7848C2.72309 17.0426 3.07283 17.1875 3.4375 17.1875H13.75V19.25C13.7489 19.3712 13.7799 19.4905 13.8398 19.5959C13.8997 19.7013 13.9864 19.789 14.0911 19.85C14.1958 19.9111 14.3147 19.9434 14.436 19.9437C14.5572 19.944 14.6763 19.9122 14.7812 19.8516L16.8438 18.6708L18.9062 19.8516C19.0112 19.9122 19.1303 19.944 19.2515 19.9437C19.3728 19.9434 19.4917 19.9111 19.5964 19.85C19.7011 19.789 19.7878 19.7013 19.8477 19.5959C19.9076 19.4905 19.9386 19.3712 19.9375 19.25V13.8763C20.3721 13.4601 20.718 12.9603 20.9542 12.4069C21.1905 11.8535 21.3123 11.258 21.3123 10.6562C21.3123 10.0545 21.1905 9.45901 20.9542 8.90561C20.718 8.3522 20.3721 7.85235 19.9375 7.43617ZM11 12.375H6.1875C6.00516 12.375 5.8303 12.3026 5.70136 12.1736C5.57243 12.0447 5.5 11.8698 5.5 11.6875C5.5 11.5052 5.57243 11.3303 5.70136 11.2014C5.8303 11.0724 6.00516 11 6.1875 11H11C11.1823 11 11.3572 11.0724 11.4861 11.2014C11.6151 11.3303 11.6875 11.5052 11.6875 11.6875C11.6875 11.8698 11.6151 12.0447 11.4861 12.1736C11.3572 12.3026 11.1823 12.375 11 12.375ZM11 9.625H6.1875C6.00516 9.625 5.8303 9.55257 5.70136 9.42364C5.57243 9.2947 5.5 9.11984 5.5 8.9375C5.5 8.75516 5.57243 8.5803 5.70136 8.45136C5.8303 8.32243 6.00516 8.25 6.1875 8.25H11C11.1823 8.25 11.3572 8.32243 11.4861 8.45136C11.6151 8.5803 11.6875 8.75516 11.6875 8.9375C11.6875 9.11984 11.6151 9.2947 11.4861 9.42364C11.3572 9.55257 11.1823 9.625 11 9.625ZM18.5625 18.0649L17.1875 17.2777C17.0836 17.2183 16.966 17.1871 16.8463 17.1871C16.7267 17.1871 16.6091 17.2183 16.5052 17.2777L15.1302 18.0649V14.7812C15.6746 15.0087 16.2588 15.1259 16.8489 15.1259C17.439 15.1259 18.0232 15.0087 18.5677 14.7812L18.5625 18.0649ZM16.8438 13.75C16.2319 13.75 15.6337 13.5686 15.125 13.2286C14.6162 12.8887 14.2197 12.4055 13.9855 11.8402C13.7513 11.2749 13.6901 10.6528 13.8094 10.0527C13.9288 9.45256 14.2235 8.90131 14.6561 8.46864C15.0888 8.03597 15.6401 7.74132 16.2402 7.62195C16.8403 7.50257 17.4624 7.56384 18.0277 7.798C18.593 8.03216 19.0762 8.42869 19.4161 8.93745C19.7561 9.44622 19.9375 10.0444 19.9375 10.6562C19.9375 11.0625 19.8575 11.4648 19.702 11.8402C19.5465 12.2155 19.3186 12.5566 19.0314 12.8439C18.7441 13.1311 18.403 13.359 18.0277 13.5145C17.6523 13.67 17.25 13.75 16.8438 13.75Z" fill="white"/>
</svg>
