<svg width="20" height="20" viewBox="0 0 20 20" fill="none" xmlns="http://www.w3.org/2000/svg">
<path d="M18.125 6.76016V4.375C18.125 4.04348 17.9933 3.72554 17.7589 3.49112C17.5245 3.2567 17.2065 3.125 16.875 3.125H3.125C2.79348 3.125 2.47554 3.2567 2.24112 3.49112C2.0067 3.72554 1.875 4.04348 1.875 4.375V14.375C1.875 14.7065 2.0067 15.0245 2.24112 15.2589C2.47554 15.4933 2.79348 15.625 3.125 15.625H12.5V17.5C12.499 17.6102 12.5272 17.7187 12.5816 17.8145C12.6361 17.9103 12.7149 17.99 12.8101 18.0455C12.9052 18.101 13.0134 18.1304 13.1236 18.1306C13.2338 18.1309 13.3421 18.102 13.4375 18.0469L15.3125 16.9734L17.1875 18.0469C17.2829 18.102 17.3912 18.1309 17.5014 18.1306C17.6116 18.1304 17.7198 18.101 17.8149 18.0455C17.9101 17.99 17.9889 17.9103 18.0434 17.8145C18.0978 17.7187 18.126 17.6102 18.125 17.5V12.6148C18.5201 12.2365 18.8345 11.7821 19.0493 11.279C19.2641 10.7759 19.3748 10.2345 19.3748 9.6875C19.3748 9.14047 19.2641 8.5991 19.0493 8.09601C18.8345 7.59291 18.5201 7.1385 18.125 6.76016ZM10 11.25H5.625C5.45924 11.25 5.30027 11.1842 5.18306 11.0669C5.06585 10.9497 5 10.7908 5 10.625C5 10.4592 5.06585 10.3003 5.18306 10.1831C5.30027 10.0658 5.45924 10 5.625 10H10C10.1658 10 10.3247 10.0658 10.4419 10.1831C10.5592 10.3003 10.625 10.4592 10.625 10.625C10.625 10.7908 10.5592 10.9497 10.4419 11.0669C10.3247 11.1842 10.1658 11.25 10 11.25ZM10 8.75H5.625C5.45924 8.75 5.30027 8.68415 5.18306 8.56694C5.06585 8.44973 5 8.29076 5 8.125C5 7.95924 5.06585 7.80027 5.18306 7.68306C5.30027 7.56585 5.45924 7.5 5.625 7.5H10C10.1658 7.5 10.3247 7.56585 10.4419 7.68306C10.5592 7.80027 10.625 7.95924 10.625 8.125C10.625 8.29076 10.5592 8.44973 10.4419 8.56694C10.3247 8.68415 10.1658 8.75 10 8.75ZM16.875 16.4227L15.625 15.707C15.5305 15.653 15.4236 15.6246 15.3148 15.6246C15.206 15.6246 15.0991 15.653 15.0047 15.707L13.7547 16.4227V13.4375C14.2497 13.6443 14.7808 13.7508 15.3172 13.7508C15.8536 13.7508 16.3847 13.6443 16.8797 13.4375L16.875 16.4227ZM15.3125 12.5C14.7562 12.5 14.2125 12.335 13.75 12.026C13.2874 11.717 12.927 11.2777 12.7141 10.7638C12.5012 10.2499 12.4455 9.68438 12.554 9.13881C12.6626 8.59324 12.9304 8.0921 13.3238 7.69876C13.7171 7.30543 14.2182 7.03756 14.7638 6.92904C15.3094 6.82052 15.8749 6.87622 16.3888 7.08909C16.9027 7.30196 17.342 7.66245 17.651 8.12496C17.9601 8.58747 18.125 9.13124 18.125 9.6875C18.125 10.0568 18.0523 10.4226 17.9109 10.7638C17.7696 11.105 17.5624 11.4151 17.3012 11.6762C17.0401 11.9374 16.73 12.1446 16.3888 12.2859C16.0476 12.4273 15.6818 12.5 15.3125 12.5Z" fill="#F60303"/>
</svg>
