<svg width="20" height="20" viewBox="0 0 20 20" fill="none" xmlns="http://www.w3.org/2000/svg">
<path d="M12.8125 5.31068C12.3269 5.31073 11.8429 5.3671 11.3703 5.47865C11.2297 5.27326 11.073 5.07942 10.9015 4.89897L11.4929 4.05365C11.6356 3.84997 11.6915 3.59797 11.6484 3.35307C11.6052 3.10818 11.4665 2.89045 11.2629 2.74779C11.0592 2.60514 10.8072 2.54923 10.5623 2.59238C10.3174 2.63553 10.0997 2.77419 9.95701 2.97787L9.36482 3.82631C8.81554 3.5858 8.22513 3.45318 7.62576 3.43568L7.44607 2.42006C7.39856 2.17934 7.25858 1.96683 7.05616 1.82815C6.85374 1.68948 6.60502 1.63569 6.36338 1.67833C6.12175 1.72097 5.90647 1.85665 5.76374 2.05623C5.62101 2.25581 5.56222 2.5034 5.59998 2.74584L5.77966 3.76147C5.22256 3.98286 4.71309 4.30907 4.27888 4.7224L3.43044 4.12787C3.22677 3.98521 2.97476 3.92931 2.72986 3.97246C2.48497 4.01561 2.26724 4.15427 2.12458 4.35795C1.98193 4.56163 1.92602 4.81363 1.96917 5.05853C2.01232 5.30343 2.15098 5.52115 2.35466 5.66381L3.2031 6.25678C2.96194 6.80557 2.82929 7.39585 2.81248 7.99506L1.79685 8.17475C1.56579 8.21522 1.3583 8.34086 1.21533 8.52684C1.07237 8.71283 1.00433 8.94565 1.02464 9.17935C1.04495 9.41305 1.15213 9.63064 1.32503 9.78918C1.49794 9.94772 1.72399 10.0357 1.95857 10.0357C2.01355 10.0356 2.06843 10.0309 2.12263 10.0216L3.13826 9.84193C3.21495 10.0366 3.30473 10.2258 3.40701 10.4083C2.81389 11.0271 2.41561 11.8065 2.26163 12.6497C2.10765 13.4929 2.20475 14.3628 2.54087 15.1513C2.87698 15.9398 3.43732 16.6122 4.15228 17.085C4.86724 17.5577 5.70533 17.8101 6.56248 17.8107H12.8125C14.4701 17.8107 16.0598 17.1522 17.2319 15.9801C18.404 14.808 19.0625 13.2183 19.0625 11.5607C19.0625 9.90308 18.404 8.31337 17.2319 7.14127C16.0598 5.96916 14.4701 5.31068 12.8125 5.31068ZM7.49998 5.31068C7.88837 5.311 8.2725 5.39175 8.62814 5.54786C8.98379 5.70396 9.30324 5.93204 9.56638 6.21772C8.45426 6.89222 7.57906 7.89545 7.06169 9.08881C6.89595 9.07001 6.72928 9.06062 6.56248 9.06068C6.01903 9.06063 5.48036 9.16211 4.97419 9.3599C4.76427 8.93113 4.66694 8.45599 4.69138 7.97921C4.71582 7.50244 4.86122 7.03973 5.11388 6.63467C5.36655 6.22962 5.71816 5.89554 6.1356 5.66391C6.55304 5.43228 7.02258 5.31072 7.49998 5.31068ZM12.8125 15.9357H6.56248C5.89943 15.9357 5.26355 15.6723 4.79471 15.2035C4.32587 14.7346 4.06248 14.0987 4.06248 13.4357C4.06248 12.7726 4.32587 12.1368 4.79471 11.6679C5.26355 11.1991 5.89943 10.9357 6.56248 10.9357H6.58435C6.57576 11.0216 6.56873 11.1076 6.56404 11.1935C6.54953 11.4421 6.6344 11.6864 6.79996 11.8724C6.96551 12.0585 7.19821 12.1712 7.44685 12.1857C7.69549 12.2002 7.93971 12.1153 8.12578 11.9498C8.31185 11.7842 8.42453 11.5515 8.43904 11.3029C8.45557 11.0126 8.50111 10.7247 8.57498 10.4435L8.58669 10.4005C8.80209 9.61302 9.23332 8.9014 9.83171 8.34598C10.4301 7.79056 11.1718 7.41345 11.9732 7.25723C12.7745 7.10101 13.6036 7.17189 14.3668 7.46187C15.13 7.75186 15.7969 8.24939 16.2924 8.89833C16.7878 9.54726 17.092 10.3218 17.1706 11.1344C17.2492 11.947 17.099 12.7655 16.7371 13.4973C16.3752 14.2292 15.816 14.8453 15.1225 15.2762C14.429 15.707 13.6289 15.9354 12.8125 15.9357Z" fill="#F60303"/>
</svg>
