<svg width="20" height="28" viewBox="0 0 20 28" fill="none" xmlns="http://www.w3.org/2000/svg">
<path d="M10 5.875C5.79453 5.875 2.5 7.79688 2.5 10.25V17.75C2.5 20.2031 5.79453 22.125 10 22.125C14.2055 22.125 17.5 20.2031 17.5 17.75V10.25C17.5 7.79688 14.2055 5.875 10 5.875ZM16.25 14C16.25 14.7516 15.6344 15.518 14.5617 16.1031C13.3539 16.7617 11.7336 17.125 10 17.125C8.26641 17.125 6.64609 16.7617 5.43828 16.1031C4.36563 15.518 3.75 14.7516 3.75 14V12.7C5.08281 13.8719 7.36172 14.625 10 14.625C12.6383 14.625 14.9172 13.8688 16.25 12.7V14ZM14.5617 19.8531C13.3539 20.5117 11.7336 20.875 10 20.875C8.26641 20.875 6.64609 20.5117 5.43828 19.8531C4.36563 19.268 3.75 18.5016 3.75 17.75V16.45C5.08281 17.6219 7.36172 18.375 10 18.375C12.6383 18.375 14.9172 17.6187 16.25 16.45V17.75C16.25 18.5016 15.6344 19.268 14.5617 19.8531Z" fill="#F60303"/>
</svg>
