<svg width="16" height="16" viewBox="0 0 16 16" fill="none" xmlns="http://www.w3.org/2000/svg">
<path d="M4.48438 5.26562H5.52604V6.82812H4.48438V5.26562Z" fill="#F60303"/>
<path d="M1.724 6.83073H3.70317V4.8776C3.70317 4.66188 3.87806 4.48698 4.09379 4.48698H5.91671C6.13244 4.48698 6.30733 4.66188 6.30733 4.8776V6.83073H14.2761C14.4918 6.83073 14.6667 6.65583 14.6667 6.4401C14.6667 6.22437 14.4918 6.04948 14.2761 6.04948H13.6233L13.1409 1.68367C13.119 1.48573 12.9518 1.33594 12.7526 1.33594H11.5808C11.3816 1.33594 11.2144 1.48573 11.1925 1.68367L10.7101 6.04948H9.95317V2.02052C9.95317 1.91466 9.914 1.81107 9.83874 1.73661C9.71152 1.61076 9.52197 1.5887 9.37283 1.67156L7.60942 2.65122V2.02073C7.60942 1.9149 7.57033 1.8113 7.49517 1.7368C7.36804 1.61076 7.17832 1.58862 7.0291 1.67156L5.26567 2.65122V2.02044C5.26567 1.91456 5.22645 1.81094 5.15116 1.73651C5.02395 1.61073 4.83449 1.5887 4.68535 1.67154L2.3416 2.97362C2.21757 3.04253 2.14067 3.17326 2.14067 3.3151V6.04948H1.724C1.50827 6.04948 1.33337 6.22437 1.33337 6.4401C1.33337 6.65583 1.50827 6.83073 1.724 6.83073ZM7.47921 4.48698H8.00004C8.21577 4.48698 8.39067 4.66188 8.39067 4.8776C8.39067 5.09333 8.21577 5.26823 8.00004 5.26823H7.47921C7.26348 5.26823 7.08858 5.09333 7.08858 4.8776C7.08858 4.66188 7.26348 4.48698 7.47921 4.48698Z" fill="#F60303"/>
<path d="M14.2761 7.60938L12.2969 7.60969C12.0812 7.60969 11.9063 7.78458 11.9063 8.00031C11.9063 9.89013 10.5643 11.4664 8.78129 11.8284V10.2105C9.69155 9.88875 10.3438 9.02078 10.3438 8.00031C10.3438 7.78458 10.1689 7.60969 9.95317 7.60969H9.17192C8.95619 7.60969 8.78129 7.78458 8.78129 8.00031C8.78129 8.43177 8.4315 8.78128 8.00004 8.7813C7.56858 8.78128 7.21879 8.43177 7.21879 8.00031C7.21879 7.78458 7.04389 7.60969 6.82817 7.60969H6.04692C5.83119 7.60969 5.65629 7.78458 5.65629 8.00031C5.65629 9.02078 6.30853 9.88875 7.21879 10.2105V11.8284C5.4358 11.4664 4.09379 9.89013 4.09379 8.00031C4.09379 7.78458 3.91889 7.60969 3.70317 7.60969L1.724 7.60938C1.50827 7.60938 1.33337 7.78427 1.33337 8C1.33337 8.21573 1.50827 8.39062 1.724 8.39062H2.15376C2.17022 8.64263 2.20238 8.89159 2.2502 9.13625L1.83676 9.24703C1.62837 9.30289 1.50473 9.51706 1.56056 9.72547C1.60733 9.89997 1.76514 10.0151 1.93762 10.0151C1.97108 10.0151 2.00512 10.0107 2.039 10.0017L2.45142 9.89115C2.5322 10.1289 2.62832 10.361 2.73929 10.5863L2.36955 10.7997C2.1827 10.9076 2.11869 11.1465 2.22658 11.3333C2.29892 11.4586 2.43022 11.5287 2.56522 11.5287C2.6315 11.5287 2.69866 11.5118 2.76017 11.4763L3.13077 11.2623C3.26996 11.4692 3.42324 11.668 3.58978 11.8578L3.28598 12.1616C3.13343 12.3142 3.13343 12.5615 3.28598 12.7141C3.36225 12.7903 3.46223 12.8285 3.56218 12.8285C3.66212 12.8285 3.76212 12.7903 3.83837 12.7141L4.14236 12.4101C4.33189 12.5758 4.53103 12.7286 4.73866 12.8676L4.52369 13.2399C4.4158 13.4268 4.47981 13.6657 4.66666 13.7735C4.72817 13.809 4.79533 13.8259 4.8616 13.8259C4.9966 13.8259 5.12791 13.7559 5.20025 13.6305L5.41551 13.2577C5.64056 13.3682 5.87246 13.4642 6.10975 13.5451L5.9983 13.9611C5.94246 14.1695 6.06611 14.3837 6.27449 14.4395C6.30837 14.4486 6.34236 14.4529 6.37587 14.4529C6.54832 14.4529 6.70619 14.3378 6.75293 14.1633L6.86428 13.7478C7.10936 13.7963 7.35822 13.829 7.60934 13.8459V14.276C7.60934 14.4918 7.78423 14.6667 7.99996 14.6667C8.21569 14.6667 8.39059 14.4918 8.39059 14.276V13.8459C8.64171 13.829 8.89056 13.7963 9.13564 13.7478L9.24699 14.1633C9.29376 14.3378 9.45158 14.4529 9.62405 14.4529C9.65751 14.4529 9.69155 14.4486 9.72543 14.4395C9.93382 14.3836 10.0575 14.1695 10.0016 13.9611L9.89017 13.5451C10.1275 13.4642 10.3594 13.3682 10.5844 13.2577L10.7997 13.6305C10.872 13.7558 11.0033 13.8259 11.1383 13.8259C11.2046 13.8259 11.2718 13.809 11.3333 13.7735C11.5201 13.6656 11.5841 13.4267 11.4762 13.2399L11.2613 12.8676C11.4689 12.7286 11.668 12.5758 11.8576 12.4101L12.1616 12.714C12.2378 12.7903 12.3378 12.8285 12.4377 12.8285C12.5377 12.8285 12.6377 12.7903 12.7139 12.714C12.8665 12.5615 12.8665 12.3142 12.7139 12.1616L12.4102 11.8578C12.5767 11.668 12.73 11.4692 12.8692 11.2623L13.2398 11.4763C13.3013 11.5118 13.3685 11.5287 13.4347 11.5287C13.5697 11.5287 13.701 11.4586 13.7734 11.3333C13.8813 11.1465 13.8173 10.9076 13.6304 10.7997L13.2607 10.5863C13.3716 10.361 13.4677 10.1289 13.5485 9.89115L13.961 10.0017C13.9948 10.0107 14.0288 10.0151 14.0623 10.0151C14.2348 10.0151 14.3926 9.89997 14.4394 9.72547C14.4952 9.51706 14.3716 9.30286 14.1632 9.24703L13.7498 9.13625C13.7976 8.89159 13.8297 8.64263 13.8462 8.39062H14.2761C14.4918 8.39062 14.6667 8.21573 14.6667 8C14.6667 7.78427 14.4918 7.60938 14.2761 7.60938Z" fill="#F60303"/>
</svg>
