<svg width="24" height="24" viewBox="0 0 24 24" fill="none" xmlns="http://www.w3.org/2000/svg">
<path d="M16.2928 4.82648C15.1269 3.59789 13.815 2.51671 12.3862 1.60711C12.2696 1.53702 12.1361 1.5 12 1.5C11.8639 1.5 11.7304 1.53702 11.6137 1.60711C10.185 2.51671 8.87305 3.59789 7.70719 4.82648C5.11781 7.54523 3.75 10.5443 3.75 13.5002C3.75 15.6883 4.61919 17.7867 6.16637 19.3339C7.71354 20.881 9.81196 21.7502 12 21.7502C14.188 21.7502 16.2865 20.881 17.8336 19.3339C19.3808 17.7867 20.25 15.6883 20.25 13.5002C20.25 10.5443 18.8822 7.54523 16.2928 4.82648ZM9 17.2502C9 14.6562 11.1122 12.8177 12 12.1596C12.8888 12.8159 15 14.6562 15 17.2502C15 18.0459 14.6839 18.8089 14.1213 19.3716C13.5587 19.9342 12.7956 20.2502 12 20.2502C11.2044 20.2502 10.4413 19.9342 9.87868 19.3716C9.31607 18.8089 9 18.0459 9 17.2502Z" fill="white"/>
</svg>
