<svg width="22" height="22" viewBox="0 0 22 22" fill="none" xmlns="http://www.w3.org/2000/svg">
<path d="M17.875 4.12549C16.8287 4.12455 15.7937 4.34202 14.8363 4.76401C13.5386 2.58377 11.4056 1.49838 11.3077 1.44768C11.2121 1.39988 11.1068 1.375 11 1.375C10.8932 1.375 10.7879 1.39988 10.6923 1.44768C10.5944 1.49752 8.45797 2.58377 7.16375 4.76401C6.2063 4.34202 5.17131 4.12455 4.125 4.12549C3.94266 4.12549 3.7678 4.19793 3.63886 4.32686C3.50993 4.45579 3.4375 4.63066 3.4375 4.81299V8.25049C3.43977 10.1365 4.14578 11.9537 5.41735 13.3466C6.68893 14.7394 8.43452 15.6076 10.3125 15.7812V18.826L7.18266 17.2602C7.10185 17.2198 7.01388 17.1957 6.92377 17.1893C6.83365 17.1829 6.74316 17.1943 6.65745 17.2229C6.57175 17.2514 6.49251 17.2966 6.42426 17.3558C6.35601 17.415 6.30009 17.487 6.25969 17.5678C6.21929 17.6486 6.19519 17.7366 6.18879 17.8267C6.18239 17.9168 6.19379 18.0073 6.22236 18.093C6.25093 18.1787 6.2961 18.258 6.35529 18.3262C6.41448 18.3945 6.48654 18.4504 6.56734 18.4908L10.6923 20.5533C10.7879 20.6011 10.8932 20.626 11 20.626C11.1068 20.626 11.2121 20.6011 11.3077 20.5533L15.4327 18.4908C15.5958 18.4092 15.7199 18.2661 15.7776 18.093C15.8353 17.9199 15.8219 17.731 15.7403 17.5678C15.6587 17.4046 15.5156 17.2805 15.3425 17.2229C15.1695 17.1652 14.9805 17.1786 14.8173 17.2602L11.6875 18.826V15.7812C13.5655 15.6076 15.3111 14.7394 16.5826 13.3466C17.8542 11.9537 18.5602 10.1365 18.5625 8.25049V4.81299C18.5625 4.63066 18.4901 4.45579 18.3611 4.32686C18.2322 4.19793 18.0573 4.12549 17.875 4.12549ZM4.8125 8.25049V5.5383C6.32441 5.70924 7.72056 6.4305 8.73487 7.56463C9.74919 8.69876 10.3107 10.1665 10.3125 11.688V14.4002C8.80059 14.2292 7.40444 13.508 6.39013 12.3739C5.37581 11.2397 4.81426 9.77203 4.8125 8.25049ZM17.1875 8.25049C17.1857 9.77203 16.6242 11.2397 15.6099 12.3739C14.5956 13.508 13.1994 14.2292 11.6875 14.4002V11.688C11.6893 10.1665 12.2508 8.69876 13.2651 7.56463C14.2794 6.4305 15.6756 5.70924 17.1875 5.5383V8.25049Z" fill="white"/>
</svg>
