<svg width="24" height="24" viewBox="0 0 24 24" fill="none" xmlns="http://www.w3.org/2000/svg">
<path d="M23.0466 11.4028C22.9509 11.2347 22.8227 11.0874 22.6695 10.9694C22.5163 10.8514 22.3411 10.7652 22.1541 10.7156C21.4759 10.5411 20.775 10.4709 20.0757 10.5075C20.4507 8.64656 20.1694 7.17469 19.8882 6.30188C19.7734 5.94339 19.5295 5.64041 19.2037 5.45187C18.8779 5.26334 18.4937 5.20275 18.1257 5.28188C17.1717 5.49434 16.2646 5.87942 15.4491 6.41812C14.8519 5.1981 13.9823 4.13161 12.9075 3.30094C12.6471 3.1056 12.3303 3 12.0047 3C11.6792 3 11.3624 3.1056 11.1019 3.30094C10.0254 4.13108 9.15425 5.19762 8.55567 6.41812C7.74019 5.87942 6.83309 5.49434 5.87911 5.28188C5.51122 5.20234 5.1269 5.26278 4.80118 5.45139C4.47545 5.63999 4.23171 5.94322 4.11755 6.30188C3.8363 7.17469 3.55505 8.64563 3.92442 10.5075C3.22506 10.4709 2.52421 10.5411 1.84599 10.7156C1.65904 10.7652 1.48383 10.8514 1.33059 10.9694C1.17735 11.0874 1.04915 11.2347 0.953486 11.4028C0.853491 11.5749 0.788732 11.7651 0.762979 11.9624C0.737227 12.1598 0.750996 12.3602 0.803486 12.5522C1.1213 13.7316 2.09724 15.9731 5.05317 17.7394C8.00911 19.5056 10.606 19.5 12.0047 19.5C13.4035 19.5 16.005 19.5 18.9422 17.7394C21.8982 15.9731 22.8741 13.7316 23.1919 12.5522C23.2451 12.3605 23.2597 12.1602 23.2347 11.9629C23.2098 11.7656 23.1458 11.5752 23.0466 11.4028ZM5.82192 16.4522C3.32536 14.9597 2.51442 13.1297 2.25005 12.1594C2.93981 11.9891 3.65572 11.9518 4.35942 12.0497C4.59436 12.679 4.88129 13.2877 5.21724 13.8694C6.0421 15.2915 7.12276 16.5489 8.40474 17.5781C7.49822 17.3175 6.62986 16.9389 5.82192 16.4522ZM12 17.85C11.1254 17.1994 9.00005 15.2034 9.00005 11.1722C9.00005 7.19062 11.0982 5.17875 12 4.5C12.9019 5.18062 15 7.1925 15 11.1741C15 15.2034 12.8747 17.1994 12 17.85ZM21.75 12.1613C21.4904 13.1213 20.6813 14.9559 18.1791 16.4522C17.3711 16.9386 16.5028 17.3169 15.5963 17.5772C16.8783 16.5479 17.9589 15.2906 18.7838 13.8684C19.1197 13.2867 19.4067 12.6781 19.6416 12.0487C20.3451 11.9518 21.0607 11.9897 21.75 12.1603V12.1613Z" fill="white"/>
</svg>
