<svg width="20" height="28" viewBox="0 0 20 28" fill="none" xmlns="http://www.w3.org/2000/svg">
<path d="M10 5.875C8.39303 5.875 6.82214 6.35152 5.486 7.24431C4.14985 8.1371 3.10844 9.40605 2.49348 10.8907C1.87852 12.3753 1.71762 14.009 2.03112 15.5851C2.34463 17.1612 3.11846 18.6089 4.25476 19.7452C5.39106 20.8815 6.8388 21.6554 8.4149 21.9689C9.99099 22.2824 11.6247 22.1215 13.1093 21.5065C14.594 20.8916 15.8629 19.8502 16.7557 18.514C17.6485 17.1779 18.125 15.607 18.125 14C18.1227 11.8458 17.266 9.78051 15.7427 8.25727C14.2195 6.73403 12.1542 5.87727 10 5.875ZM4.86641 18.568L5.06328 18.4391C5.2352 18.3257 5.37644 18.1715 5.47443 17.9904C5.57243 17.8093 5.62415 17.6067 5.625 17.4008L5.64141 14.5703L7.27891 12.125C7.28693 12.1312 7.29527 12.1369 7.30391 12.1422L8.84063 13.1477C9.09816 13.3294 9.41504 13.4067 9.72735 13.3641L12.1875 13.0305C12.4909 12.99 12.7689 12.8396 12.9688 12.6078L14.7008 10.5953C14.8945 10.3684 15.0006 10.0796 15 9.78125V9.28672C15.8454 10.1811 16.4348 11.2863 16.7065 12.4866C16.9782 13.6868 16.9223 14.9381 16.5445 16.1094L15.2836 14.9563C15.1083 14.7953 14.8907 14.6878 14.6564 14.6463C14.4221 14.6048 14.1809 14.631 13.9609 14.7219L11.5813 15.7102C11.3823 15.7937 11.2082 15.927 11.0757 16.0974C10.9432 16.2678 10.8569 16.4694 10.825 16.6828L10.6383 17.9477C10.5934 18.2521 10.6624 18.5624 10.8321 18.8191C11.0017 19.0759 11.2601 19.261 11.5578 19.3391L13.2344 19.7812L13.4188 19.9664C12.0497 20.7519 10.4518 21.0417 8.89407 20.787C7.33635 20.5323 5.91397 19.7486 4.86641 18.568Z" fill="#F60303"/>
</svg>
