<svg width="22" height="22" viewBox="0 0 22 22" fill="none" xmlns="http://www.w3.org/2000/svg">
<path d="M19.8524 7.17219L11.3405 1.93407C11.2385 1.86995 11.1205 1.83594 11 1.83594C10.8796 1.83594 10.7616 1.86995 10.6596 1.93407L2.14766 7.17219C2.05148 7.2297 1.97192 7.31126 1.91681 7.40884C1.86171 7.50643 1.83295 7.61667 1.83338 7.72874V10.3478C1.83416 10.4613 1.86408 10.5727 1.92026 10.6712C1.97643 10.7698 2.05699 10.8524 2.15421 10.9109C2.2506 10.9692 2.36065 11.0011 2.47329 11.0034C2.58593 11.0057 2.69719 10.9783 2.79588 10.924L3.1429 10.7407V19.5145C3.1429 19.6882 3.21189 19.8547 3.33468 19.9775C3.45747 20.1003 3.62401 20.1693 3.79766 20.1693H18.2024C18.3761 20.1693 18.5426 20.1003 18.6654 19.9775C18.7882 19.8547 18.8572 19.6882 18.8572 19.5145V10.7407L19.2042 10.924C19.2984 10.9759 19.4044 11.0029 19.5119 11.0026C19.6293 11.0016 19.7444 10.97 19.8459 10.9109C19.9431 10.8524 20.0236 10.7698 20.0798 10.6712C20.136 10.5727 20.1659 10.4613 20.1667 10.3478V7.72874C20.1671 7.61667 20.1384 7.50643 20.0833 7.40884C20.0282 7.31126 19.9486 7.2297 19.8524 7.17219ZM17.5477 18.8597H15.256C14.3544 17.7673 13.0577 17.0754 11.6483 16.9347C11.6483 16.9216 11.6548 16.9085 11.6548 16.8954C11.6548 16.8954 11.389 12.885 13.6191 11.6573C12.8757 12.5181 12.4233 13.5917 12.3266 14.7249C13.2668 14.4406 14.0908 13.8618 14.6772 13.0737C15.2635 12.2857 15.5812 11.3301 15.5834 10.3478C15.5834 10.1741 15.5144 10.0076 15.3916 9.88481C15.2688 9.76202 15.1023 9.69303 14.9286 9.69303C14.1365 9.69319 13.358 9.89904 12.6694 10.2904C11.9807 10.6818 11.4055 11.2453 11 11.9258C10.5946 11.2453 10.0194 10.6818 9.33071 10.2904C8.64206 9.89904 7.86357 9.69319 7.07147 9.69303C6.89782 9.69303 6.73128 9.76202 6.60849 9.88481C6.48569 10.0076 6.41671 10.1741 6.41671 10.3478C6.41887 11.3301 6.73654 12.2857 7.3229 13.0737C7.90925 13.8618 8.73327 14.4406 9.67349 14.7249C9.57675 13.5917 9.12438 12.5181 8.38099 11.6573C10.7545 12.9466 10.3453 16.8954 10.3453 16.8954C10.3453 16.9085 10.3518 16.9216 10.3518 16.9347C8.94241 17.0754 7.64567 17.7673 6.74409 18.8597H4.45243V10.0335L11 6.51088L17.5477 10.0335V18.8597Z" fill="white"/>
</svg>
