<svg width="16" height="16" viewBox="0 0 16 16" fill="none" xmlns="http://www.w3.org/2000/svg">
<path d="M15.8937 6.7439L14.2987 3.55265C14.24 3.43519 14.1586 3.33046 14.0594 3.24443C13.9602 3.1584 13.845 3.09276 13.7203 3.05127C13.5957 3.00977 13.4642 2.99322 13.3332 3.00258C13.2022 3.01193 13.0743 3.047 12.9568 3.10577L11.4025 3.88265L8.1281 3.0164C8.04408 2.99453 7.95587 2.99453 7.87185 3.0164L4.59747 3.88265L3.0431 3.10577C2.92565 3.047 2.79777 3.01193 2.66677 3.00258C2.53577 2.99322 2.40421 3.00977 2.2796 3.05127C2.15499 3.09276 2.03978 3.1584 1.94054 3.24443C1.8413 3.33046 1.75998 3.43519 1.70122 3.55265L0.106223 6.74327C0.0474452 6.86072 0.0123791 6.9886 0.00302689 7.1196C-0.00632531 7.2506 0.0102196 7.38216 0.0517167 7.50677C0.0932138 7.63138 0.15885 7.74659 0.244878 7.84583C0.330906 7.94507 0.435639 8.02639 0.553098 8.08515L2.2406 8.92952L5.70872 11.4064C5.75983 11.4428 5.81727 11.4693 5.8781 11.4845L9.8781 12.4845C9.96187 12.5055 10.0496 12.5045 10.1329 12.4815C10.2161 12.4585 10.292 12.4143 10.3531 12.3533L12.8531 9.85327L13.7956 8.91077L15.4468 8.08515C15.6839 7.96648 15.8641 7.75854 15.9479 7.50703C16.0317 7.25552 16.0122 6.98103 15.8937 6.7439ZM12.4631 8.82952L10.3125 7.10702C10.2161 7.02986 10.0946 6.99107 9.97141 6.99811C9.84818 7.00515 9.73191 7.05752 9.64497 7.14515C8.53185 8.2664 7.29122 8.12452 6.49997 7.62452L9.20247 4.99952H11.1906L12.8912 8.40015L12.4631 8.82952ZM9.84622 11.4458L6.21372 10.5376L3.13872 8.3414L4.88872 4.8414L7.99997 4.01702L8.61247 4.1789L5.79997 6.9089L5.79497 6.91452C5.6891 7.02039 5.60835 7.14869 5.55869 7.28993C5.50903 7.43118 5.49172 7.58178 5.50803 7.73061C5.52435 7.87945 5.57388 8.02271 5.65297 8.14985C5.73205 8.27698 5.83868 8.38473 5.96497 8.46515C7.24997 9.28577 8.8006 9.15265 10.0218 8.15265L11.75 9.54077L9.84622 11.4458ZM8.23872 13.6208C8.21171 13.7288 8.14939 13.8248 8.06164 13.8934C7.97389 13.962 7.86574 13.9994 7.75435 13.9995C7.71327 13.9995 7.67234 13.9944 7.63247 13.9845L5.0256 13.3326C4.96468 13.3176 4.9072 13.2911 4.85622 13.2545L3.20935 12.0783C3.10809 11.9988 3.0414 11.8833 3.02316 11.7558C3.00493 11.6284 3.03656 11.4988 3.11147 11.3941C3.18638 11.2894 3.29879 11.2176 3.42529 11.1937C3.5518 11.1698 3.68265 11.1956 3.7906 11.2658L5.35997 12.387L7.87497 13.0145C8.00359 13.0467 8.11417 13.1286 8.18238 13.2423C8.25059 13.356 8.27086 13.4921 8.23872 13.6208Z" fill="#F60303"/>
</svg>
