<svg width="24" height="24" viewBox="0 0 24 24" fill="none" xmlns="http://www.w3.org/2000/svg">
<path d="M23.8406 10.1158L21.4481 5.32897C21.3599 5.15278 21.238 4.99568 21.0891 4.86664C20.9403 4.7376 20.7674 4.63915 20.5805 4.5769C20.3936 4.51465 20.1963 4.48984 19.9998 4.50387C19.8033 4.51789 19.6114 4.57049 19.4353 4.65866L17.1037 5.82397L12.1921 4.5246C12.0661 4.4918 11.9338 4.4918 11.8078 4.5246L6.89621 5.82397L4.56465 4.65866C4.38847 4.57049 4.19666 4.51789 4.00015 4.50387C3.80365 4.48984 3.60631 4.51465 3.4194 4.5769C3.23249 4.63915 3.05967 4.7376 2.91081 4.86664C2.76195 4.99568 2.63997 5.15278 2.55183 5.32897L0.159334 10.1149C0.0711678 10.2911 0.0185686 10.4829 0.00454033 10.6794C-0.00948797 10.8759 0.0153294 11.0732 0.0775751 11.2602C0.139821 11.4471 0.238276 11.6199 0.367317 11.7687C0.496358 11.9176 0.653459 12.0396 0.829646 12.1277L3.3609 13.3943L8.56308 17.1096C8.63974 17.1641 8.7259 17.2039 8.81715 17.2268L14.8171 18.7268C14.9428 18.7583 15.0745 18.7567 15.1993 18.7222C15.3242 18.6877 15.438 18.6215 15.5296 18.5299L19.2796 14.7799L20.6934 13.3662L23.1703 12.1277C23.5259 11.9497 23.7962 11.6378 23.9219 11.2605C24.0476 10.8833 24.0183 10.4716 23.8406 10.1158ZM18.6946 13.2443L15.4687 10.6605C15.3242 10.5448 15.142 10.4866 14.9571 10.4972C14.7723 10.5077 14.5979 10.5863 14.4675 10.7177C12.7978 12.3996 10.9368 12.1868 9.74996 11.4368L13.8037 7.49928H16.7859L19.3368 12.6002L18.6946 13.2443ZM14.7693 17.1687L9.32058 15.8065L4.70808 12.5121L7.33308 7.2621L12 6.02553L12.9187 6.26835L8.69996 10.3633L8.69246 10.3718C8.53365 10.5306 8.41253 10.723 8.33804 10.9349C8.26354 11.1468 8.23757 11.3727 8.26205 11.5959C8.28653 11.8192 8.36082 12.0341 8.47945 12.2248C8.59808 12.4155 8.75802 12.5771 8.94746 12.6977C10.875 13.9287 13.2009 13.729 15.0328 12.229L17.625 14.3112L14.7693 17.1687ZM12.3581 20.4312C12.3176 20.5933 12.2241 20.7372 12.0925 20.8401C11.9608 20.943 11.7986 20.9991 11.6315 20.9993C11.5699 20.9992 11.5085 20.9916 11.4487 20.9768L7.5384 19.999C7.44703 19.9764 7.3608 19.9367 7.28433 19.8818L4.81402 18.1174C4.66213 17.9981 4.56209 17.8249 4.53474 17.6337C4.50739 17.4426 4.55484 17.2482 4.6672 17.0911C4.77956 16.9341 4.94818 16.8264 5.13794 16.7906C5.3277 16.7547 5.52397 16.7934 5.6859 16.8987L8.03996 18.5805L11.8125 19.5218C12.0054 19.57 12.1712 19.693 12.2736 19.8635C12.3759 20.034 12.4063 20.2382 12.3581 20.4312Z" fill="white"/>
</svg>
