<svg width="16" height="16" viewBox="0 0 16 16" fill="none" xmlns="http://www.w3.org/2000/svg">
<path d="M14.25 9.275V8.5C14.2465 7.23861 13.863 6.00754 13.1495 4.96736C12.436 3.92717 11.4255 3.12614 10.25 2.66875V2.5C10.25 2.33585 10.2177 2.1733 10.1548 2.02165C10.092 1.86999 9.99996 1.73219 9.88388 1.61612C9.76781 1.50004 9.63001 1.40797 9.47835 1.34515C9.3267 1.28233 9.16415 1.25 9 1.25H7C6.66848 1.25 6.35054 1.3817 6.11612 1.61612C5.8817 1.85054 5.75 2.16848 5.75 2.5V2.66875C4.57446 3.12614 3.56403 3.92717 2.8505 4.96736C2.13698 6.00754 1.75347 7.23861 1.75 8.5V9.275C1.46766 9.33263 1.2139 9.48605 1.03167 9.70927C0.849446 9.9325 0.749941 10.2118 0.75 10.5V12C0.75 12.3315 0.881696 12.6495 1.11612 12.8839C1.35054 13.1183 1.66848 13.25 2 13.25H14C14.3315 13.25 14.6495 13.1183 14.8839 12.8839C15.1183 12.6495 15.25 12.3315 15.25 12V10.5C15.2501 10.2118 15.1506 9.9325 14.9683 9.70927C14.7861 9.48605 14.5323 9.33263 14.25 9.275ZM12.75 8.5V9.25H10.25V4.31687C11.0041 4.72516 11.6343 5.32912 12.0743 6.06524C12.5142 6.80136 12.7476 7.64244 12.75 8.5ZM8.75 2.75V9.25H7.25V2.75H8.75ZM5.75 4.31687V9.25H3.25V8.5C3.25238 7.64244 3.48581 6.80136 3.92575 6.06524C4.36568 5.32912 4.99586 4.72516 5.75 4.31687ZM13.75 11.75H2.25V10.75H13.75V11.75Z" fill="white"/>
</svg>
