<svg width="20" height="28" viewBox="0 0 20 28" fill="none" xmlns="http://www.w3.org/2000/svg">
<path d="M10 5.875C8.39303 5.875 6.82214 6.35152 5.486 7.24431C4.14985 8.1371 3.10844 9.40605 2.49348 10.8907C1.87852 12.3753 1.71762 14.009 2.03112 15.5851C2.34463 17.1612 3.11846 18.6089 4.25476 19.7452C5.39106 20.8815 6.8388 21.6554 8.4149 21.9689C9.99099 22.2824 11.6247 22.1215 13.1093 21.5065C14.594 20.8916 15.8629 19.8502 16.7557 18.514C17.6485 17.1779 18.125 15.607 18.125 14C18.1227 11.8458 17.266 9.78051 15.7427 8.25727C14.2195 6.73403 12.1542 5.87727 10 5.875ZM9.6875 9.625C9.87292 9.625 10.0542 9.67998 10.2084 9.783C10.3625 9.88601 10.4827 10.0324 10.5536 10.2037C10.6246 10.375 10.6432 10.5635 10.607 10.7454C10.5708 10.9273 10.4815 11.0943 10.3504 11.2254C10.2193 11.3565 10.0523 11.4458 9.8704 11.482C9.68854 11.5182 9.50004 11.4996 9.32874 11.4286C9.15743 11.3577 9.01101 11.2375 8.908 11.0833C8.80499 10.9292 8.75 10.7479 8.75 10.5625C8.75 10.3139 8.84878 10.0754 9.02459 9.89959C9.20041 9.72377 9.43886 9.625 9.6875 9.625ZM10.625 18.375C10.2935 18.375 9.97554 18.2433 9.74112 18.0089C9.5067 17.7745 9.375 17.4565 9.375 17.125V14C9.20924 14 9.05027 13.9342 8.93306 13.8169C8.81585 13.6997 8.75 13.5408 8.75 13.375C8.75 13.2092 8.81585 13.0503 8.93306 12.9331C9.05027 12.8158 9.20924 12.75 9.375 12.75C9.70652 12.75 10.0245 12.8817 10.2589 13.1161C10.4933 13.3505 10.625 13.6685 10.625 14V17.125C10.7908 17.125 10.9497 17.1908 11.0669 17.3081C11.1842 17.4253 11.25 17.5842 11.25 17.75C11.25 17.9158 11.1842 18.0747 11.0669 18.1919C10.9497 18.3092 10.7908 18.375 10.625 18.375Z" fill="#F60303"/>
</svg>
