<svg width="20" height="20" viewBox="0 0 20 20" fill="none" xmlns="http://www.w3.org/2000/svg">
<path d="M17.7672 3.11424C17.7538 2.88489 17.6566 2.66844 17.4942 2.50599C17.3317 2.34353 17.1153 2.24639 16.8859 2.23299C13.7922 2.05096 11.0586 2.41581 8.76093 3.31659C6.56249 4.17831 4.86796 5.51424 3.85858 7.17987C2.48202 9.45409 2.4789 12.215 3.82343 14.851L2.46171 16.2127C2.3745 16.2999 2.30533 16.4034 2.25813 16.5174C2.21094 16.6313 2.18665 16.7534 2.18665 16.8767C2.18665 17.0001 2.21094 17.1222 2.25813 17.2361C2.30533 17.3501 2.3745 17.4536 2.46171 17.5408C2.63783 17.7169 2.8767 17.8159 3.12577 17.8159C3.2491 17.8159 3.37122 17.7916 3.48516 17.7444C3.5991 17.6972 3.70263 17.628 3.78983 17.5408L5.15155 16.1791C6.45937 16.8463 7.79843 17.183 9.09296 17.183C10.4082 17.1871 11.699 16.8275 12.8226 16.1439C14.4883 15.1346 15.8242 13.4392 16.6859 11.2416C17.5844 8.94237 17.9492 6.20799 17.7672 3.11424ZM11.8484 14.5377C10.2789 15.4885 8.43749 15.5603 6.5578 14.7658L13.1625 8.16112C13.2497 8.07391 13.3189 7.97038 13.3661 7.85644C13.4133 7.7425 13.4376 7.62038 13.4376 7.49706C13.4376 7.37373 13.4133 7.25161 13.3661 7.13767C13.3189 7.02373 13.2497 6.9202 13.1625 6.83299C13.0753 6.74579 12.9718 6.67661 12.8578 6.62942C12.7439 6.58222 12.6218 6.55793 12.4984 6.55793C12.3751 6.55793 12.253 6.58222 12.139 6.62942C12.0251 6.67661 11.9216 6.74579 11.8344 6.83299L5.23437 13.4424C4.44218 11.5674 4.51405 9.72127 5.46874 8.15174C7.10233 5.45409 10.9797 3.95487 15.9375 4.06971C16.0453 9.02596 14.5461 12.9041 11.8484 14.5377Z" fill="#F60303"/>
</svg>
