<svg width="24" height="24" viewBox="0 0 24 24" fill="none" xmlns="http://www.w3.org/2000/svg">
<path d="M20.25 8.99709C20.2508 7.60678 19.9003 6.23881 19.2309 5.02023C18.5616 3.80166 17.5951 2.77202 16.4213 2.02693C15.2475 1.28185 13.9044 0.845491 12.5168 0.758394C11.1293 0.671296 9.74217 0.936282 8.48441 1.52874C7.22665 2.1212 6.13901 3.02191 5.32253 4.14721C4.50604 5.27252 3.98718 6.58592 3.81415 7.96542C3.64111 9.34492 3.81951 10.7458 4.33278 12.0379C4.84605 13.33 5.67753 14.4714 6.75 15.3561V22.4971C6.74991 22.625 6.78253 22.7508 6.84477 22.8625C6.907 22.9743 6.99678 23.0683 7.10558 23.1355C7.21437 23.2028 7.33856 23.2411 7.46634 23.2469C7.59412 23.2526 7.72124 23.2256 7.83563 23.1683L12 21.0908L16.1653 23.173C16.2697 23.223 16.3842 23.2483 16.5 23.2471C16.6989 23.2471 16.8897 23.1681 17.0303 23.0274C17.171 22.8868 17.25 22.696 17.25 22.4971V15.3561C18.1884 14.5833 18.944 13.6123 19.4627 12.5128C19.9814 11.4134 20.2503 10.2127 20.25 8.99709ZM5.25 8.99709C5.25 7.66206 5.64588 6.35702 6.38758 5.24699C7.12928 4.13696 8.18349 3.27179 9.41689 2.7609C10.6503 2.25001 12.0075 2.11634 13.3169 2.37679C14.6262 2.63724 15.829 3.28011 16.773 4.22412C17.717 5.16812 18.3599 6.37085 18.6203 7.68023C18.8808 8.9896 18.7471 10.3468 18.2362 11.5802C17.7253 12.8136 16.8601 13.8678 15.7501 14.6095C14.6401 15.3512 13.335 15.7471 12 15.7471C10.2104 15.7451 8.49466 15.0333 7.22922 13.7679C5.96378 12.5024 5.25199 10.7867 5.25 8.99709ZM6.75 8.99709C6.75 7.95873 7.05791 6.9437 7.63479 6.08034C8.21166 5.21699 9.0316 4.54408 9.99091 4.14672C10.9502 3.74936 12.0058 3.64539 13.0242 3.84796C14.0426 4.05054 14.9781 4.55055 15.7123 5.28478C16.4465 6.019 16.9466 6.95446 17.1491 7.97286C17.3517 8.99126 17.2477 10.0469 16.8504 11.0062C16.453 11.9655 15.7801 12.7854 14.9167 13.3623C14.0534 13.9392 13.0384 14.2471 12 14.2471C10.6081 14.2456 9.27358 13.692 8.28934 12.7078C7.30509 11.7235 6.75149 10.389 6.75 8.99709Z" fill="white"/>
</svg>
