<svg width="26" height="26" viewBox="0 0 26 26" fill="none" xmlns="http://www.w3.org/2000/svg">
<path d="M21.9375 9.74994C21.9384 8.24377 21.5586 6.7618 20.8335 5.44168C20.1083 4.12156 19.0613 3.00611 17.7897 2.19894C16.5181 1.39176 15.0631 0.919042 13.5599 0.824686C12.0567 0.73033 10.554 1.0174 9.19144 1.65923C7.82887 2.30106 6.6506 3.27683 5.76607 4.49591C4.88154 5.71499 4.31945 7.13784 4.13199 8.63229C3.94454 10.1268 4.13781 11.6444 4.69385 13.0441C5.24988 14.4439 6.15066 15.6805 7.3125 16.6389V24.3749C7.3124 24.5135 7.34774 24.6498 7.41516 24.7709C7.48259 24.8919 7.57985 24.9937 7.69771 25.0666C7.81557 25.1395 7.9501 25.181 8.08853 25.1872C8.22696 25.1934 8.36468 25.1641 8.4886 25.1021L13 22.8515L17.5124 25.1072C17.6256 25.1613 17.7496 25.1888 17.875 25.1874C18.0905 25.1874 18.2972 25.1018 18.4495 24.9495C18.6019 24.7971 18.6875 24.5904 18.6875 24.3749V16.6389C19.7041 15.8017 20.5227 14.7498 21.0846 13.5587C21.6465 12.3676 21.9378 11.0669 21.9375 9.74994ZM5.6875 9.74994C5.6875 8.30366 6.11637 6.88986 6.91988 5.68733C7.72339 4.48479 8.86544 3.54753 10.2016 2.99407C11.5378 2.4406 13.0081 2.29579 14.4266 2.57794C15.8451 2.8601 17.148 3.55655 18.1707 4.57922C19.1934 5.60189 19.8898 6.90485 20.172 8.32334C20.4542 9.74182 20.3093 11.2121 19.7559 12.5483C19.2024 13.8845 18.2651 15.0266 17.0626 15.8301C15.8601 16.6336 14.4463 17.0624 13 17.0624C11.0613 17.0603 9.20255 16.2892 7.83166 14.9183C6.46076 13.5474 5.68965 11.6887 5.6875 9.74994ZM7.3125 9.74994C7.3125 8.62506 7.64607 7.52544 8.27102 6.59013C8.89597 5.65483 9.78423 4.92585 10.8235 4.49537C11.8627 4.0649 13.0063 3.95227 14.1096 4.17172C15.2128 4.39117 16.2263 4.93286 17.0217 5.72827C17.8171 6.52368 18.3588 7.53709 18.5782 8.64036C18.7977 9.74363 18.685 10.8872 18.2546 11.9264C17.8241 12.9657 17.0951 13.854 16.1598 14.4789C15.2245 15.1039 14.1249 15.4374 13 15.4374C11.4921 15.4358 10.0464 14.8361 8.98011 13.7698C7.91385 12.7036 7.31411 11.2579 7.3125 9.74994Z" fill="#F60303"/>
</svg>
