<svg width="22" height="22" viewBox="0 0 22 22" fill="none" xmlns="http://www.w3.org/2000/svg">
<path d="M20.9894 5.15656C20.8904 5.09479 20.7773 5.05922 20.6608 5.05321C20.5443 5.04719 20.4282 5.07093 20.3234 5.12218C16.6341 6.92687 13.9992 6.08125 11.214 5.18921C8.28437 4.25679 5.25937 3.29 1.07336 5.33359C0.957753 5.39004 0.860304 5.47779 0.792092 5.58686C0.72388 5.69594 0.687643 5.82197 0.6875 5.95062V16.2571C0.687484 16.3738 0.717147 16.4885 0.773699 16.5905C0.830251 16.6925 0.911831 16.7785 1.01076 16.8403C1.10969 16.9021 1.22272 16.9377 1.33921 16.9438C1.4557 16.9498 1.57182 16.9262 1.67664 16.875C5.36594 15.0703 8.00078 15.9159 10.7903 16.808C12.4437 17.3365 14.1281 17.8753 16.0325 17.8753C17.5012 17.8753 19.103 17.5556 20.9232 16.667C21.0388 16.6106 21.1363 16.5228 21.2045 16.4138C21.2727 16.3047 21.3089 16.1786 21.3091 16.05V5.74351C21.3101 5.62656 21.2813 5.51128 21.2253 5.40857C21.1694 5.30586 21.0882 5.21912 20.9894 5.15656ZM4.125 13.0628C4.125 13.2451 4.05257 13.42 3.92364 13.5489C3.7947 13.6779 3.61984 13.7503 3.4375 13.7503C3.25516 13.7503 3.0803 13.6779 2.95136 13.5489C2.82243 13.42 2.75 13.2451 2.75 13.0628V7.56281C2.75 7.38047 2.82243 7.2056 2.95136 7.07667C3.0803 6.94774 3.25516 6.87531 3.4375 6.87531C3.61984 6.87531 3.7947 6.94774 3.92364 7.07667C4.05257 7.2056 4.125 7.38047 4.125 7.56281V13.0628ZM11 13.7503C10.4561 13.7503 9.92442 13.589 9.47218 13.2868C9.01995 12.9847 8.66747 12.5552 8.45933 12.0527C8.25119 11.5502 8.19673 10.9973 8.30284 10.4638C8.40895 9.93036 8.67086 9.44036 9.05546 9.05577C9.44005 8.67117 9.93005 8.40926 10.4635 8.30315C10.9969 8.19704 11.5499 8.2515 12.0524 8.45964C12.5549 8.66778 12.9844 9.02026 13.2865 9.47249C13.5887 9.92473 13.75 10.4564 13.75 11.0003C13.75 11.7297 13.4603 12.4291 12.9445 12.9449C12.4288 13.4606 11.7293 13.7503 11 13.7503ZM19.25 14.4378C19.25 14.6201 19.1776 14.795 19.0486 14.9239C18.9197 15.0529 18.7448 15.1253 18.5625 15.1253C18.3802 15.1253 18.2053 15.0529 18.0764 14.9239C17.9474 14.795 17.875 14.6201 17.875 14.4378V8.93781C17.875 8.75547 17.9474 8.5806 18.0764 8.45167C18.2053 8.32274 18.3802 8.25031 18.5625 8.25031C18.7448 8.25031 18.9197 8.32274 19.0486 8.45167C19.1776 8.5806 19.25 8.75547 19.25 8.93781V14.4378Z" fill="white"/>
</svg>
