<svg width="20" height="20" viewBox="0 0 20 20" fill="none" xmlns="http://www.w3.org/2000/svg">
<path d="M7.50008 16.2519C7.50008 16.4177 7.43423 16.5767 7.31702 16.6939C7.19981 16.8111 7.04084 16.8769 6.87508 16.8769H3.12508C2.79604 16.8767 2.47286 16.7899 2.18798 16.6253C1.9031 16.4607 1.66657 16.2239 1.50214 15.9389C1.33771 15.6539 1.25117 15.3307 1.25122 15.0016C1.25127 14.6726 1.33791 14.3494 1.50242 14.0644L3.68992 10.291L2.61024 9.66599C2.50204 9.60468 2.41459 9.51249 2.35907 9.4012C2.30356 9.28991 2.28251 9.1646 2.29862 9.04128C2.31473 8.91796 2.36726 8.80226 2.44949 8.70896C2.53172 8.61566 2.63992 8.54902 2.76024 8.51756L5.32039 7.8324C5.3997 7.81114 5.48242 7.80571 5.56382 7.81643C5.64523 7.82715 5.72372 7.8538 5.79482 7.89486C5.86592 7.93593 5.92824 7.9906 5.9782 8.05575C6.02816 8.12091 6.0648 8.19527 6.08602 8.27459L6.77274 10.8347C6.80479 10.9542 6.8007 11.0804 6.76097 11.1975C6.72124 11.3147 6.64767 11.4173 6.54956 11.4926C6.45144 11.5679 6.33321 11.6124 6.20981 11.6204C6.08641 11.6285 5.96339 11.5998 5.85633 11.5379L4.77195 10.9129L2.5868 14.6894C2.53207 14.7842 2.50319 14.8917 2.50306 15.0012C2.50293 15.1106 2.53155 15.2182 2.58605 15.3131C2.64055 15.4081 2.71903 15.487 2.81362 15.5421C2.90822 15.5972 3.01562 15.6264 3.12508 15.6269H6.87508C7.04084 15.6269 7.19981 15.6928 7.31702 15.81C7.43423 15.9272 7.50008 16.0862 7.50008 16.2519ZM10.0001 2.50193C10.1099 2.50083 10.218 2.52925 10.3131 2.58422C10.4082 2.63919 10.4868 2.7187 10.5407 2.81443L12.7282 6.58787L11.6485 7.21287C11.5423 7.27484 11.4568 7.36674 11.4026 7.47708C11.3484 7.58742 11.3279 7.7113 11.3438 7.83322C11.3596 7.95513 11.411 8.06966 11.4917 8.16248C11.5723 8.2553 11.6785 8.32229 11.797 8.35506L14.3579 9.04178C14.4107 9.05564 14.465 9.06273 14.5196 9.06287C14.6571 9.06274 14.7907 9.01728 14.8997 8.93352C15.0088 8.84977 15.0872 8.7324 15.1227 8.59959L15.8095 6.03787C15.8414 5.91854 15.8372 5.79243 15.7975 5.67546C15.7578 5.55849 15.6843 5.45592 15.5863 5.38068C15.4884 5.30545 15.3703 5.26093 15.247 5.25276C15.1238 5.24458 15.0009 5.27311 14.8938 5.33474L13.8087 5.95974L11.6227 2.18943C11.458 1.90493 11.2214 1.66874 10.9366 1.50454C10.6518 1.34034 10.3288 1.25391 10.0001 1.25391C9.67133 1.25391 9.34837 1.34034 9.06357 1.50454C8.77877 1.66874 8.54214 1.90493 8.37742 2.18943L6.56805 5.31443C6.49031 5.4576 6.47154 5.62546 6.51574 5.78226C6.55994 5.93906 6.66362 6.0724 6.80469 6.15388C6.94576 6.23537 7.11306 6.25855 7.27097 6.21849C7.42888 6.17844 7.56491 6.07831 7.65008 5.93943L9.45945 2.81443C9.51332 2.7187 9.59191 2.63919 9.68702 2.58422C9.78212 2.52925 9.89024 2.50083 10.0001 2.50193ZM18.4946 14.0644L16.6868 10.9394C16.6003 10.8034 16.4646 10.706 16.308 10.6677C16.1515 10.6293 15.9861 10.653 15.8466 10.7336C15.707 10.8143 15.604 10.9458 15.5591 11.1006C15.5142 11.2554 15.5308 11.4216 15.6055 11.5644L17.4134 14.6894C17.4681 14.7842 17.497 14.8917 17.4971 15.0012C17.4972 15.1106 17.4686 15.2182 17.4141 15.3131C17.3596 15.4081 17.2811 15.487 17.1865 15.5421C17.0919 15.5972 16.9845 15.6264 16.8751 15.6269H12.5001V14.3769C12.5002 14.2532 12.4636 14.1323 12.3949 14.0294C12.3262 13.9266 12.2286 13.8464 12.1143 13.799C12.0001 13.7517 11.8743 13.7393 11.753 13.7635C11.6317 13.7876 11.5203 13.8472 11.4329 13.9347L9.55789 15.8097C9.49978 15.8678 9.45368 15.9367 9.42223 16.0126C9.39078 16.0885 9.37459 16.1698 9.37459 16.2519C9.37459 16.3341 9.39078 16.4154 9.42223 16.4913C9.45368 16.5671 9.49978 16.6361 9.55789 16.6941L11.4329 18.5691C11.5203 18.6566 11.6317 18.7162 11.753 18.7404C11.8743 18.7645 12.0001 18.7522 12.1143 18.7048C12.2286 18.6575 12.3262 18.5773 12.3949 18.4744C12.4636 18.3715 12.5002 18.2506 12.5001 18.1269V16.8769H16.8751C17.2041 16.8767 17.5273 16.7899 17.8122 16.6253C18.0971 16.4607 18.3336 16.2239 18.498 15.9389C18.6625 15.6539 18.749 15.3307 18.7489 15.0016C18.7489 14.6726 18.6623 14.3494 18.4977 14.0644H18.4946Z" fill="white"/>
</svg>
