<svg width="20" height="20" viewBox="0 0 20 20" fill="none" xmlns="http://www.w3.org/2000/svg">
<path d="M11.8751 17.501C11.8751 17.6667 11.8092 17.8257 11.692 17.9429C11.5748 18.0601 11.4158 18.126 11.2501 18.126H8.75006C8.5843 18.126 8.42533 18.0601 8.30812 17.9429C8.19091 17.8257 8.12506 17.6667 8.12506 17.501C8.12506 17.3352 8.19091 17.1762 8.30812 17.059C8.42533 16.9418 8.5843 16.876 8.75006 16.876H11.2501C11.4158 16.876 11.5748 16.9418 11.692 17.059C11.8092 17.1762 11.8751 17.3352 11.8751 17.501ZM17.4704 12.1752L16.5047 16.5213C16.4589 16.7277 16.3615 16.9191 16.2216 17.0776C16.0817 17.2361 15.9039 17.3565 15.7048 17.4276C15.5057 17.4987 15.2919 17.5181 15.0832 17.4841C14.8746 17.4501 14.678 17.3637 14.5118 17.233L12.3837 15.626H7.61803L5.48834 17.233C5.32216 17.3637 5.12555 17.4501 4.9169 17.4841C4.70825 17.5181 4.49437 17.4987 4.29528 17.4276C4.09619 17.3565 3.91838 17.2361 3.77848 17.0776C3.63859 16.9191 3.54118 16.7277 3.49537 16.5213L2.52975 12.1752C2.48879 11.9887 2.49086 11.7953 2.5358 11.6097C2.58074 11.4241 2.66737 11.2512 2.78912 11.1041L5.02037 8.42754C5.09526 7.4439 5.32108 6.47764 5.6899 5.56269C6.69772 3.03613 8.5024 1.45097 9.23444 0.886912C9.45354 0.717134 9.72287 0.625 10.0001 0.625C10.2772 0.625 10.5466 0.717134 10.7657 0.886912C11.4954 1.45097 13.3024 3.03613 14.3102 5.56269C14.679 6.47764 14.9049 7.4439 14.9797 8.42754L17.211 11.1041C17.3327 11.2512 17.4194 11.4241 17.4643 11.6097C17.5093 11.7953 17.5113 11.9887 17.4704 12.1752ZM6.59303 14.8314C5.75397 13.3038 5.24459 11.802 5.0649 10.326L3.75006 11.9041L4.71569 16.251L4.72975 16.2408L6.59303 14.8314ZM10.9376 7.81347C10.9376 7.62805 10.8826 7.4468 10.7796 7.29263C10.6765 7.13846 10.5301 7.01829 10.3588 6.94734C10.1875 6.87638 9.99902 6.85781 9.81716 6.89399C9.63531 6.93016 9.46826 7.01945 9.33715 7.15056C9.20604 7.28167 9.11675 7.44872 9.08057 7.63058C9.0444 7.81243 9.06297 8.00093 9.13392 8.17224C9.20488 8.34355 9.32504 8.48996 9.47921 8.59298C9.63338 8.69599 9.81464 8.75097 10.0001 8.75097C10.2487 8.75097 10.4872 8.6522 10.663 8.47639C10.8388 8.30057 10.9376 8.06212 10.9376 7.81347ZM16.2501 11.9041L14.9352 10.326C14.7571 11.7989 14.2477 13.3012 13.4071 14.833L15.2704 16.2393L15.2844 16.2494L16.2501 11.9041Z" fill="#F60303"/>
</svg>
