<svg width="24" height="24" viewBox="0 0 24 24" fill="none" xmlns="http://www.w3.org/2000/svg">
<path d="M14.25 21.0012C14.25 21.2001 14.171 21.3908 14.0303 21.5315C13.8897 21.6722 13.6989 21.7512 13.5 21.7512H10.5C10.3011 21.7512 10.1103 21.6722 9.96965 21.5315C9.82899 21.3908 9.74998 21.2001 9.74998 21.0012C9.74998 20.8023 9.82899 20.6115 9.96965 20.4708C10.1103 20.3302 10.3011 20.2512 10.5 20.2512H13.5C13.6989 20.2512 13.8897 20.3302 14.0303 20.4708C14.171 20.6115 14.25 20.8023 14.25 21.0012ZM20.9643 14.6102L19.8056 19.8255C19.7506 20.0732 19.6337 20.3029 19.4659 20.4931C19.298 20.6833 19.0846 20.8278 18.8457 20.9131C18.6068 20.9984 18.3502 21.0218 18.0998 20.9809C17.8494 20.9401 17.6135 20.8364 17.414 20.6796L14.8603 18.7512H9.14154L6.58591 20.6796C6.38649 20.8364 6.15056 20.9401 5.90018 20.9809C5.6498 21.0218 5.39315 20.9984 5.15424 20.9131C4.91533 20.8278 4.70196 20.6833 4.53408 20.4931C4.36621 20.3029 4.24932 20.0732 4.19435 19.8255L3.0356 14.6102C2.98645 14.3864 2.98893 14.1544 3.04286 13.9316C3.09679 13.7089 3.20075 13.5014 3.34685 13.3249L6.02435 10.113C6.11422 8.93268 6.3852 7.77317 6.82779 6.67523C8.03716 3.64336 10.2028 1.74117 11.0812 1.06429C11.3442 0.86056 11.6673 0.75 12 0.75C12.3326 0.75 12.6558 0.86056 12.9187 1.06429C13.7944 1.74117 15.9628 3.64336 17.1722 6.67523C17.6148 7.77317 17.8857 8.93268 17.9756 10.113L20.6531 13.3249C20.7992 13.5014 20.9032 13.7089 20.9571 13.9316C21.011 14.1544 21.0135 14.3864 20.9643 14.6102ZM7.91154 17.7977C6.90466 15.9646 6.29341 14.1624 6.07779 12.3912L4.49997 14.2849L5.65872 19.5012L5.6756 19.489L7.91154 17.7977ZM13.125 9.37617C13.125 9.15367 13.059 8.93616 12.9354 8.75115C12.8118 8.56615 12.6361 8.42195 12.4305 8.3368C12.2249 8.25166 11.9987 8.22938 11.7805 8.27279C11.5623 8.31619 11.3618 8.42334 11.2045 8.58067C11.0471 8.73801 10.94 8.93846 10.8966 9.15669C10.8532 9.37492 10.8755 9.60112 10.9606 9.80669C11.0458 10.0123 11.19 10.188 11.375 10.3116C11.56 10.4352 11.7775 10.5012 12 10.5012C12.2983 10.5012 12.5845 10.3826 12.7955 10.1717C13.0064 9.96069 13.125 9.67454 13.125 9.37617ZM19.5 14.2849L17.9222 12.3912C17.7084 14.1587 17.0972 15.9615 16.0884 17.7996L18.3244 19.4871L18.3412 19.4993L19.5 14.2849Z" fill="white"/>
</svg>
