<svg width="22" height="22" viewBox="0 0 22 22" fill="none" xmlns="http://www.w3.org/2000/svg">
<path d="M17.875 3.4375H4.125C3.76033 3.4375 3.41059 3.58237 3.15273 3.84023C2.89487 4.09809 2.75 4.44783 2.75 4.8125V9.625C2.75 14.1556 4.94313 16.9013 6.78305 18.407C8.76477 20.0277 10.7362 20.5777 10.8221 20.6009C10.9403 20.6331 11.0649 20.6331 11.183 20.6009C11.269 20.5777 13.2378 20.0277 15.2221 18.407C17.0569 16.9013 19.25 14.1556 19.25 9.625V4.8125C19.25 4.44783 19.1051 4.09809 18.8473 3.84023C18.5894 3.58237 18.2397 3.4375 17.875 3.4375ZM14.9256 9.42391L10.1131 14.2364C10.0493 14.3003 9.97345 14.351 9.88999 14.3856C9.80653 14.4202 9.71707 14.438 9.62672 14.438C9.53637 14.438 9.44691 14.4202 9.36345 14.3856C9.27999 14.351 9.20416 14.3003 9.14031 14.2364L7.07781 12.1739C6.94881 12.0449 6.87634 11.8699 6.87634 11.6875C6.87634 11.5051 6.94881 11.3301 7.07781 11.2011C7.20682 11.0721 7.38178 10.9996 7.56422 10.9996C7.74666 10.9996 7.92162 11.0721 8.05062 11.2011L9.625 12.778L13.9511 8.45109C14.015 8.38722 14.0908 8.33655 14.1743 8.30198C14.2577 8.26741 14.3472 8.24962 14.4375 8.24962C14.5278 8.24962 14.6173 8.26741 14.7007 8.30198C14.7842 8.33655 14.86 8.38722 14.9239 8.45109C14.9878 8.51497 15.0385 8.5908 15.073 8.67426C15.1076 8.75772 15.1254 8.84717 15.1254 8.9375C15.1254 9.02783 15.1076 9.11728 15.073 9.20074C15.0385 9.2842 14.9878 9.36003 14.9239 9.42391H14.9256Z" fill="white"/>
</svg>
