<svg width="22" height="22" viewBox="0 0 22 22" fill="none" xmlns="http://www.w3.org/2000/svg">
<path d="M19.4831 3.63658L18.1798 3.82281L18.366 2.51947C18.4469 1.95296 17.7569 1.6067 17.3516 2.0124L14.9605 4.40354C14.8691 4.49499 14.8097 4.61369 14.7914 4.74174L14.5207 6.63666L11.5685 9.58885C11.3347 9.47699 11.0762 9.40917 10.8002 9.40917C9.81128 9.40917 9.00684 10.2136 9.00684 11.2025C9.00684 12.1914 9.81128 12.9958 10.8002 12.9958C11.7891 12.9958 12.5935 12.1914 12.5935 11.2025C12.5935 10.9265 12.5257 10.6679 12.4138 10.4342L15.366 7.48196L17.2609 7.21125C17.389 7.19296 17.5077 7.13362 17.5991 7.04217L19.9903 4.65104C20.3943 4.24688 20.0522 3.55684 19.4831 3.63658Z" fill="white"/>
<path d="M15.6499 8.87889L13.7561 10.7726C13.7755 10.9102 13.7891 11.0496 13.7891 11.1925C13.7891 12.8407 12.4484 14.1814 10.8002 14.1814C9.15203 14.1814 7.8113 12.8407 7.8113 11.1925C7.8113 9.54433 9.152 8.2036 10.8002 8.2036C10.943 8.2036 11.0825 8.21714 11.22 8.23661L13.1138 6.34281C12.4118 6.0065 11.6292 5.8125 10.8002 5.8125C7.83368 5.8125 5.42017 8.22602 5.42017 11.1925C5.42017 14.1591 7.83368 16.5726 10.8002 16.5726C13.7667 16.5726 16.1802 14.1591 16.1802 11.1925C16.1802 10.3635 15.9863 9.58089 15.6499 8.87889Z" fill="white"/>
<path d="M18.9221 7.40845L18.4445 7.88608C18.1721 8.15872 17.8117 8.3389 17.4301 8.39336L16.782 8.486C17.1598 9.31486 17.3758 10.2324 17.3758 11.2011C17.3758 14.8269 14.426 17.7767 10.8002 17.7767C7.17443 17.7767 4.22463 14.8269 4.22463 11.2011C4.22463 7.57531 7.17447 4.62551 10.8002 4.62551C11.769 4.62551 12.6865 4.84154 13.5154 5.21934L13.608 4.57123C13.6624 4.18963 13.8426 3.82927 14.1152 3.55663L14.5928 3.07918C13.4148 2.52749 12.1306 2.23438 10.8002 2.23438C5.85587 2.23438 1.8335 6.25678 1.8335 11.2011C1.8335 16.1455 5.8559 20.1679 10.8002 20.1679C15.7446 20.1679 19.767 16.1455 19.767 11.2011C19.767 9.87066 19.4739 8.5864 18.9221 7.40845Z" fill="white"/>
</svg>
