<svg width="26" height="26" viewBox="0 0 26 26" fill="none" xmlns="http://www.w3.org/2000/svg">
<path d="M24.4452 5.126C23.7719 4.40574 22.9577 3.83151 22.0532 3.43892C21.1488 3.04633 20.1733 2.84375 19.1873 2.84375C18.2013 2.84375 17.2259 3.04633 16.3214 3.43892C15.4169 3.83151 14.6028 4.40574 13.9294 5.126C13.5818 5.49169 13.2706 5.89034 13.0001 6.31631C12.7297 5.89034 12.4185 5.49169 12.0708 5.126C11.3975 4.40574 10.5833 3.83151 9.67887 3.43892C8.77441 3.04633 7.79894 2.84375 6.81295 2.84375C5.82696 2.84375 4.85148 3.04633 3.94702 3.43892C3.04256 3.83151 2.22841 4.40574 1.55506 5.126C1.4198 5.26798 1.32081 5.4405 1.26647 5.62891C1.21214 5.81732 1.20407 6.01606 1.24294 6.20826C1.28182 6.40046 1.3665 6.58044 1.48979 6.73292C1.61309 6.8854 1.77135 7.00588 1.95115 7.08413L6.70326 9.15296C5.00154 9.87433 3.6179 11.1865 2.80733 12.8476C1.99675 14.5086 1.81388 16.4067 2.2924 18.192C2.34464 18.3848 2.44346 18.5618 2.58016 18.7074C2.71686 18.853 2.88725 18.9628 3.07635 19.0271C3.26544 19.0914 3.46744 19.1082 3.66457 19.0761C3.8617 19.044 4.04792 18.964 4.20685 18.843L11.7814 13.0763V22.7501C11.7814 23.0734 11.9098 23.3834 12.1383 23.6119C12.3669 23.8405 12.6769 23.9689 13.0001 23.9689C13.3234 23.9689 13.6334 23.8405 13.8619 23.6119C14.0905 23.3834 14.2189 23.0734 14.2189 22.7501V13.0763L21.7894 18.844C21.9483 18.965 22.1345 19.0451 22.3316 19.0772C22.5288 19.1093 22.7308 19.0924 22.9199 19.0281C23.109 18.9638 23.2793 18.854 23.416 18.7084C23.5527 18.5628 23.6516 18.3858 23.7038 18.193C24.1823 16.4077 23.9995 14.5097 23.1889 12.8486C22.3783 11.1875 20.9947 9.87535 19.2929 9.15397L24.0491 7.08514C24.2289 7.00689 24.3872 6.88641 24.5105 6.73393C24.6338 6.58145 24.7184 6.40147 24.7573 6.20928C24.7962 6.01708 24.7881 5.81834 24.7338 5.62993C24.6795 5.44152 24.5805 5.269 24.4452 5.12702V5.126ZM6.81295 5.28139C7.46821 5.28297 8.11619 5.41899 8.71678 5.68103C9.31738 5.94307 9.85782 6.32556 10.3047 6.80483C10.7808 7.30608 11.1548 7.89528 11.4056 8.53952L4.87513 5.6978C5.48413 5.42284 6.14475 5.28088 6.81295 5.28139ZM4.50849 15.5544C4.64266 14.5181 5.0829 13.5452 5.77293 12.7604C6.46296 11.9756 7.3714 11.4144 8.38209 11.1487C8.83142 11.0293 9.29436 10.9689 9.75927 10.9689C9.99707 10.9683 10.2346 10.9842 10.4702 11.0166L4.50849 15.5544ZM20.8204 13.5902C21.1727 14.1934 21.3996 14.8615 21.4877 15.5544L15.5392 11.0156C16.2355 10.9215 16.9436 10.9667 17.6222 11.1487C18.2899 11.3249 18.9161 11.6313 19.4649 12.0503C20.0138 12.4693 20.4745 12.9927 20.8204 13.5902ZM14.5947 8.53952C14.8455 7.89528 15.2195 7.30608 15.6956 6.80483C16.1424 6.32556 16.6829 5.94307 17.2835 5.68103C17.8841 5.41899 18.5321 5.28297 19.1873 5.28139C19.8555 5.28088 20.5161 5.42284 21.1251 5.6978L14.5947 8.53952Z" fill="#F60303"/>
</svg>
