<svg width="26" height="26" viewBox="0 0 26 26" fill="none" xmlns="http://www.w3.org/2000/svg">
<path d="M20.4315 6.05537C19.795 4.61535 18.7538 3.39129 17.4345 2.53203C16.1152 1.67277 14.5747 1.21533 13.0002 1.21533C11.4258 1.21533 9.88526 1.67277 8.56596 2.53203C7.24667 3.39129 6.20544 4.61535 5.56889 6.05537C3.78234 6.93346 2.40411 8.46784 1.72206 10.338C1.04002 12.2082 1.1069 14.2696 1.90873 16.0917C2.71057 17.9137 4.18535 19.3556 6.02507 20.116C7.86479 20.8764 9.92717 20.8967 11.7815 20.1726V23.5627C11.7815 23.8859 11.9099 24.1959 12.1384 24.4245C12.367 24.6531 12.677 24.7815 13.0002 24.7815C13.3235 24.7815 13.6334 24.6531 13.862 24.4245C14.0906 24.1959 14.219 23.8859 14.219 23.5627V20.1746C15.1242 20.5332 16.089 20.7179 17.0627 20.719H17.2577C18.9881 20.6763 20.654 20.0533 21.9877 18.95C23.3214 17.8467 24.2456 16.3272 24.6117 14.6354C24.9779 12.9437 24.7648 11.1779 24.0067 9.62187C23.2486 8.06581 21.9894 6.80971 20.4315 6.05537ZM17.1998 18.2815C16.1452 18.3075 15.107 18.017 14.219 17.4476V13.7538L18.4206 11.6525C18.5661 11.5823 18.6962 11.4839 18.8033 11.363C18.9104 11.242 18.9924 11.101 19.0445 10.9481C19.0967 10.7953 19.1179 10.6335 19.107 10.4724C19.096 10.3112 19.0532 10.1538 18.9809 10.0094C18.9086 9.86491 18.8083 9.73627 18.6858 9.63092C18.5634 9.52557 18.4212 9.44562 18.2676 9.3957C18.114 9.34579 17.9519 9.32692 17.791 9.34018C17.63 9.35344 17.4732 9.39857 17.3298 9.47295L14.219 11.0279V8.93771C14.219 8.61448 14.0906 8.30449 13.862 8.07593C13.6334 7.84737 13.3235 7.71896 13.0002 7.71896C12.677 7.71896 12.367 7.84737 12.1384 8.07593C11.9099 8.30449 11.7815 8.61448 11.7815 8.93771V13.4654L8.67061 11.9104C8.38225 11.7713 8.05071 11.7512 7.74767 11.8546C7.44463 11.9579 7.19442 12.1763 7.05112 12.4627C6.90783 12.749 6.88296 13.0802 6.9819 13.3847C7.08083 13.6892 7.29561 13.9426 7.57983 14.09L11.7815 16.1913V17.4476C10.8928 18.0157 9.85502 18.306 8.80061 18.2815C6.0046 18.2114 3.64936 15.7871 3.65647 12.987C3.6569 11.9349 3.97268 10.9072 4.56305 10.0364C5.15342 9.16557 5.99127 8.49173 6.96842 8.10185C7.12654 8.0381 7.26953 7.94189 7.38814 7.81943C7.50675 7.69697 7.59835 7.55099 7.65702 7.39091C8.05673 6.29499 8.78376 5.34848 9.73956 4.6797C10.6954 4.01092 11.8337 3.65222 13.0002 3.65222C14.1668 3.65222 15.3051 4.01092 16.2609 4.6797C17.2167 5.34848 17.9437 6.29499 18.3434 7.39091C18.4021 7.55099 18.4937 7.69697 18.6123 7.81943C18.7309 7.94189 18.8739 8.0381 19.032 8.10185C20.0088 8.4916 20.8465 9.16513 21.4368 10.0355C22.0272 10.9059 22.3431 11.9333 22.344 12.985C22.3521 15.784 19.9958 18.2094 17.1998 18.2815Z" fill="#F60303"/>
</svg>
