<svg width="20" height="20" viewBox="0 0 20 20" fill="none" xmlns="http://www.w3.org/2000/svg">
<g clip-path="url(#clip0_654_5)">
<path d="M15.7166 4.65767C15.227 3.54997 14.426 2.60838 13.4112 1.94741C12.3963 1.28645 11.2113 0.93457 10.0002 0.93457C8.7891 0.93457 7.60408 1.28645 6.58924 1.94741C5.5744 2.60838 4.77346 3.54997 4.2838 4.65767C2.90953 5.33313 1.84935 6.51342 1.3247 7.95203C0.800052 9.39065 0.851497 10.9763 1.46829 12.3779C2.08509 13.7795 3.21954 14.8886 4.63471 15.4735C6.04987 16.0585 7.63632 16.0741 9.06271 15.517V18.1249C9.06271 18.3735 9.16148 18.612 9.33729 18.7878C9.51311 18.9636 9.75157 19.0624 10.0002 19.0624C10.2488 19.0624 10.4873 18.9636 10.6631 18.7878C10.8389 18.612 10.9377 18.3735 10.9377 18.1249V15.5186C11.6341 15.7945 12.3762 15.9365 13.1252 15.9374H13.2752C14.6063 15.9046 15.8877 15.4253 16.9136 14.5766C17.9396 13.728 18.6505 12.559 18.9321 11.2577C19.2138 9.95636 19.0499 8.59812 18.4667 7.40114C17.8836 6.20417 16.915 5.23794 15.7166 4.65767ZM13.2307 14.0624C12.4194 14.0824 11.6208 13.859 10.9377 13.421V10.5795L14.1697 8.96314C14.2816 8.90915 14.3817 8.83344 14.4641 8.74043C14.5465 8.64742 14.6096 8.53896 14.6497 8.42135C14.6898 8.30374 14.7061 8.17934 14.6977 8.05536C14.6893 7.93139 14.6563 7.81033 14.6007 7.69921C14.5451 7.58809 14.468 7.48914 14.3738 7.4081C14.2796 7.32706 14.1702 7.26556 14.052 7.22716C13.9339 7.18877 13.8092 7.17425 13.6854 7.18445C13.5616 7.19465 13.441 7.22937 13.3307 7.28658L10.9377 8.48267V6.87486C10.9377 6.62622 10.8389 6.38776 10.6631 6.21195C10.4873 6.03613 10.2488 5.93736 10.0002 5.93736C9.75157 5.93736 9.51311 6.03613 9.33729 6.21195C9.16148 6.38776 9.06271 6.62622 9.06271 6.87486V10.3577L6.66974 9.16158C6.44792 9.05456 6.19289 9.03912 5.95978 9.1186C5.72667 9.19809 5.5342 9.36612 5.42398 9.58636C5.31375 9.80661 5.29462 10.0614 5.37073 10.2956C5.44683 10.5299 5.61205 10.7247 5.83068 10.8381L9.06271 12.4545V13.421C8.37913 13.8579 7.58082 14.0812 6.76974 14.0624C4.61896 14.0085 2.80724 12.1436 2.81271 9.98971C2.81304 9.18043 3.05595 8.38983 3.51008 7.71998C3.96421 7.05014 4.60871 6.5318 5.36036 6.23189C5.48199 6.18286 5.59198 6.10885 5.68322 6.01465C5.77446 5.92045 5.84492 5.80815 5.89005 5.68502C6.19752 4.842 6.75678 4.11392 7.49201 3.59947C8.22723 3.08502 9.10287 2.8091 10.0002 2.8091C10.8975 2.8091 11.7732 3.08502 12.5084 3.59947C13.2436 4.11392 13.8029 4.842 14.1104 5.68502C14.1555 5.80815 14.226 5.92045 14.3172 6.01465C14.4084 6.10885 14.5184 6.18286 14.6401 6.23189C15.3915 6.5317 16.0358 7.0498 16.4899 7.71934C16.944 8.38888 17.1871 9.17913 17.1877 9.98814C17.194 12.1413 15.3815 14.0069 13.2307 14.0624Z" fill="white"/>
</g>
<defs>
<clipPath id="clip0_654_5">
<rect width="20" height="20" fill="white"/>
</clipPath>
</defs>
</svg>
