<svg width="16" height="16" viewBox="0 0 16 16" fill="none" xmlns="http://www.w3.org/2000/svg">
<path d="M7.82373 9.81199C8.45189 9.284 8.90246 8.57558 9.11434 7.78282C9.32622 6.99005 9.28915 6.15131 9.00816 5.38032C8.72718 4.60934 8.21587 3.94343 7.54359 3.47291C6.8713 3.00238 6.07056 2.75 5.24998 2.75C4.42939 2.75 3.62865 3.00238 2.95636 3.47291C2.28408 3.94343 1.77277 4.60934 1.49179 5.38032C1.2108 6.15131 1.17373 6.99005 1.38561 7.78282C1.59749 8.57558 2.04807 9.284 2.67623 9.81199C1.69534 10.2555 0.845298 10.9443 0.2081 11.812C0.0904106 11.9724 0.0412491 12.1729 0.0714307 12.3695C0.101612 12.5662 0.208665 12.7427 0.369038 12.8604C0.529411 12.9781 0.729968 13.0273 0.926588 12.9971C1.12321 12.9669 1.29979 12.8599 1.41748 12.6995C1.85856 12.0971 2.43545 11.6071 3.10133 11.2694C3.76722 10.9316 4.50334 10.7556 5.24998 10.7556C5.99661 10.7556 6.73273 10.9316 7.39862 11.2694C8.0645 11.6071 8.64139 12.0971 9.08247 12.6995C9.20016 12.86 9.37677 12.9671 9.57345 12.9973C9.77013 13.0276 9.97077 12.9784 10.1312 12.8607C10.2917 12.7431 10.3988 12.5664 10.4291 12.3698C10.4593 12.1731 10.4102 11.9725 10.2925 11.812C9.6549 10.9444 8.80469 10.2557 7.82373 9.81199ZM2.74998 6.75324C2.74998 6.25879 2.8966 5.77544 3.1713 5.36432C3.446 4.9532 3.83645 4.63276 4.29327 4.44355C4.75008 4.25433 5.25275 4.20482 5.7377 4.30128C6.22265 4.39774 6.66811 4.63585 7.01774 4.98548C7.36737 5.33511 7.60548 5.78057 7.70194 6.26552C7.7984 6.75047 7.74889 7.25314 7.55967 7.70995C7.37046 8.16677 7.05002 8.55722 6.6389 8.83192C6.22778 9.10662 5.74443 9.25324 5.24998 9.25324C4.58693 9.25324 3.95105 8.98985 3.48221 8.52101C3.01337 8.05217 2.74998 7.41629 2.74998 6.75324ZM15.6312 12.8576C15.5518 12.916 15.4617 12.9581 15.366 12.9816C15.2703 13.0051 15.171 13.0095 15.0736 12.9946C14.9762 12.9797 14.8827 12.9457 14.7984 12.8947C14.7141 12.8436 14.6408 12.7764 14.5825 12.697C14.1403 12.0957 13.5632 11.6066 12.8975 11.269C12.2319 10.9314 11.4963 10.7548 10.75 10.7532C10.5511 10.7532 10.3603 10.6742 10.2196 10.5336C10.079 10.3929 9.99997 10.2022 9.99997 10.0032C9.99997 9.80433 10.079 9.61357 10.2196 9.47291C10.3603 9.33226 10.5511 9.25324 10.75 9.25324C11.1053 9.25261 11.4564 9.17624 11.7799 9.02921C12.1034 8.88219 12.3919 8.66789 12.626 8.40061C12.8601 8.13333 13.0346 7.8192 13.1378 7.47917C13.241 7.13915 13.2705 6.78103 13.2244 6.4287C13.1782 6.07637 13.0575 5.73792 12.8703 5.43592C12.683 5.13392 12.4336 4.8753 12.1385 4.6773C11.8435 4.47931 11.5096 4.34649 11.1591 4.2877C10.8087 4.22891 10.4497 4.2455 10.1062 4.33637C10.0103 4.36413 9.90976 4.37244 9.81056 4.36082C9.71136 4.34921 9.61547 4.31789 9.52854 4.26872C9.4416 4.21954 9.36537 4.1535 9.3043 4.07447C9.24324 3.99543 9.19857 3.90499 9.17293 3.80846C9.14729 3.71193 9.14118 3.61125 9.15498 3.51233C9.16877 3.41341 9.20219 3.31824 9.25326 3.2324C9.30433 3.14657 9.37204 3.0718 9.4524 3.01249C9.53276 2.95317 9.62415 2.91051 9.72122 2.88699C10.5996 2.65424 11.5311 2.72753 12.3623 3.09479C13.1935 3.46205 13.8749 4.10139 14.2943 4.90755C14.7137 5.71371 14.8461 6.63865 14.6696 7.53009C14.4932 8.42152 14.0185 9.22632 13.3237 9.81199C14.3046 10.2555 15.1547 10.9443 15.7918 11.812C15.9087 11.9721 15.9574 12.172 15.9273 12.368C15.8972 12.5639 15.7907 12.7399 15.6312 12.8576Z" fill="white"/>
</svg>
