<svg width="40" height="40" viewBox="0 0 40 40" fill="none" xmlns="http://www.w3.org/2000/svg">
<path d="M36.4682 24.6721C35.6854 21.9066 33.1286 13.088 32.9199 12.6184C32.5024 11.7835 31.9284 11.1051 31.1979 10.5833C30.9892 9.85281 30.2065 7.24377 30.1021 7.03505C29.4759 5.78271 28.2236 5 26.8147 5C24.7797 5 23.1621 6.6176 23.1621 8.65265V11.8879C22.5359 12.7749 22.1706 13.8707 22.1706 15.0187C21.5966 14.4969 20.8139 14.1838 19.979 14.1838C19.1441 14.1838 18.3614 14.4969 17.7874 15.0187C17.7874 13.8707 17.37 12.7749 16.796 11.8879V8.65265C16.796 6.6176 15.1784 5 13.1434 5C11.7345 5 10.4821 5.78271 9.85597 7.03505C9.75161 7.24377 9.2298 9.0701 8.76017 10.5833C8.08182 11.1051 7.45565 11.7835 7.03821 12.6184C6.82948 13.088 4.27263 21.9066 3.48992 24.62V24.6721C3.43774 25.2983 3.33337 25.9245 3.33337 26.5507C3.33337 30.5686 6.56858 33.8038 10.5865 33.8038C14.6044 33.8038 17.8396 30.5686 17.8396 26.5507V23.8894C18.4136 24.4112 19.1963 24.7243 19.979 24.7243C20.8139 24.7243 21.5966 24.4112 22.1184 23.8894V26.5507C22.1184 28.5335 22.9533 30.3598 24.2579 31.6644C25.5624 32.9689 27.3887 33.8038 29.3716 33.8038C33.3895 33.8038 36.6247 30.5686 36.6247 26.5507C36.7291 25.9245 36.6247 25.2983 36.4682 24.6721ZM10.743 30.2555C8.70799 30.2555 7.03821 28.5857 7.03821 26.5507C7.03821 24.5156 8.70799 22.8458 10.743 22.8458C12.7781 22.8458 14.4479 24.5156 14.4479 26.5507C14.3957 28.5857 12.7781 30.2555 10.743 30.2555ZM16.8482 22.8458C15.5959 20.7586 13.2477 19.2975 10.6387 19.2975C8.70799 19.2975 6.98603 20.0281 5.68151 21.2804C6.7773 17.419 7.97746 13.4533 8.08182 13.1402C8.86453 11.5226 10.43 10.5833 12.2041 10.5833C14.761 10.5833 16.796 12.6706 16.796 15.1752V22.8458H16.8482ZM20.0312 23.7329C18.8311 23.7329 17.8918 22.7415 17.8918 21.5413C17.8918 20.3411 18.8832 19.4019 20.0312 19.4019C21.2314 19.4019 22.1706 20.3933 22.1706 21.5413C22.1706 22.7415 21.2314 23.7329 20.0312 23.7329ZM29.3194 30.2555C27.2843 30.2555 25.6146 28.5857 25.6146 26.5507C25.6146 24.5156 27.2843 22.8458 29.3194 22.8458C31.3544 22.8458 33.0242 24.5156 33.0242 26.5507C33.0242 28.5857 31.4066 30.2555 29.3194 30.2555ZM29.4759 19.2975C26.8147 19.2975 24.5188 20.7064 23.2664 22.8458V15.1231C23.2664 12.5662 25.3537 10.5312 27.8583 10.5312C29.6325 10.5312 31.1979 11.5226 31.9806 13.088C32.1372 13.4011 33.2851 17.419 34.3809 21.2804C33.1286 20.0281 31.3544 19.2975 29.4759 19.2975Z" fill="white"/>
<path d="M31.6152 26.5538C31.6152 27.8061 30.6238 28.7975 29.3715 28.7975C28.1191 28.7975 27.1277 27.7539 27.1277 26.5538C27.1277 26.5016 27.1277 26.4494 27.1277 26.3972C27.1799 26.2407 27.232 26.1363 27.3886 26.032C27.493 25.9798 27.7017 25.9276 27.806 25.9798C27.9104 26.032 27.9626 26.032 28.0669 26.032C28.5366 26.032 28.954 25.6145 28.954 25.1449C28.954 25.0927 28.954 24.9883 28.954 24.9362C28.9018 24.7796 28.954 24.6231 29.0584 24.4665C29.1627 24.3622 29.3193 24.2578 29.4758 24.2578C30.676 24.3622 31.6152 25.3536 31.6152 26.5538Z" fill="white"/>
<path d="M12.9867 26.5538C12.9867 27.8061 11.9953 28.7975 10.7429 28.7975C9.49058 28.7975 8.49915 27.7539 8.49915 26.5538C8.49915 26.5016 8.49915 26.4494 8.49915 26.3972C8.55133 26.2407 8.60351 26.1363 8.76005 26.032C8.86441 25.9798 9.02095 25.9276 9.1775 25.9798C9.28186 26.032 9.38622 26.032 9.4384 26.032C9.90803 26.032 10.3255 25.6145 10.3255 25.1449C10.3255 25.0405 10.3255 24.9883 10.3255 24.9362C10.2733 24.7796 10.3255 24.6231 10.4298 24.4665C10.5342 24.3622 10.6907 24.2578 10.8473 24.2578C12.0474 24.3622 12.9867 25.3536 12.9867 26.5538Z" fill="white"/>
<path d="M24.7796 15.382C25.0927 15.382 25.3014 15.1733 25.3536 14.9124C25.458 13.7644 26.3972 12.773 27.5452 12.6686C27.8061 12.6164 28.0148 12.3555 28.0148 12.0946C27.9626 11.8337 27.7017 11.625 27.4408 11.625C25.7711 11.8337 24.4665 13.1904 24.31 14.808C24.2578 15.1211 24.4665 15.3298 24.7796 15.382Z" fill="white"/>
<path d="M11.4735 11.6254C10.4299 11.8341 9.54281 12.5124 9.07318 13.4517C9.07318 13.4517 9.07318 13.5039 9.021 13.5039C8.96882 13.7126 8.81228 14.0779 8.65573 14.6518C8.55137 14.9127 8.70791 15.2258 9.021 15.278H9.17754C9.38626 15.278 9.59499 15.1215 9.69935 14.9127C9.85589 14.3909 9.96025 14.0257 10.0124 13.817C10.3777 13.1908 10.9517 12.7212 11.6822 12.5646C11.9431 12.5124 12.1518 12.2515 12.0997 11.9384C12.0475 11.7819 11.7344 11.5732 11.4735 11.6254Z" fill="white"/>
</svg>
