<svg width="20" height="20" viewBox="0 0 20 20" fill="none" xmlns="http://www.w3.org/2000/svg">
<path d="M18.75 14.3744H18.125V4.52288L18.8805 4.36038C18.9625 4.34501 19.0405 4.31337 19.1101 4.26734C19.1797 4.22131 19.2394 4.16181 19.2856 4.09236C19.3318 4.02291 19.3636 3.94491 19.3792 3.86296C19.3948 3.78101 19.3939 3.69676 19.3764 3.61519C19.3589 3.53362 19.3253 3.45637 19.2775 3.388C19.2297 3.31962 19.1687 3.26151 19.0981 3.21709C19.0275 3.17266 18.9487 3.14282 18.8664 3.12933C18.784 3.11583 18.6999 3.11895 18.6188 3.13851L1.11875 6.88851C0.967988 6.92104 0.834578 7.00817 0.744183 7.13314C0.653788 7.2581 0.612791 7.41208 0.629078 7.56545C0.645365 7.71882 0.717786 7.86075 0.83241 7.96394C0.947035 8.06714 1.09577 8.1243 1.25 8.12445C1.29438 8.12437 1.33863 8.11965 1.38203 8.11038L1.875 8.00492V14.3744H1.25C1.08424 14.3744 0.925268 14.4403 0.808058 14.5575C0.690848 14.6747 0.625 14.8337 0.625 14.9994C0.625 15.1652 0.690848 15.3242 0.808058 15.4414C0.925268 15.5586 1.08424 15.6244 1.25 15.6244H18.75C18.9158 15.6244 19.0747 15.5586 19.1919 15.4414C19.3092 15.3242 19.375 15.1652 19.375 14.9994C19.375 14.8337 19.3092 14.6747 19.1919 14.5575C19.0747 14.4403 18.9158 14.3744 18.75 14.3744ZM14.375 14.3744H5.625V13.1244H14.375V14.3744ZM14.375 11.8744H5.625V10.6244H14.375V11.8744Z" fill="white"/>
</svg>
