<svg width="372" height="240" viewBox="0 0 372 240" fill="none" xmlns="http://www.w3.org/2000/svg">
<path d="M57.0856 106.613C57.7405 106.614 58.2713 107.144 58.2713 107.799C58.2713 108.454 57.7405 108.984 57.0856 108.985H35.0211C34.366 108.985 33.8354 108.454 33.8354 107.799C33.8354 107.144 34.366 106.613 35.0211 106.613H57.0856Z" fill="#EBEBEB"/>
<path d="M60.9793 113.02C61.6342 113.02 62.165 113.55 62.165 114.205C62.165 114.86 61.6342 115.391 60.9793 115.391H38.9148C38.2597 115.391 37.7291 114.86 37.7291 114.205C37.7291 113.55 38.2597 113.02 38.9148 113.02H60.9793Z" fill="#EBEBEB"/>
<path d="M143.17 85.7383C143.825 85.7385 144.355 86.269 144.355 86.9239C144.355 87.5789 143.825 88.1094 143.17 88.1096H121.105C120.45 88.1096 119.92 87.579 119.92 86.9239C119.92 86.2689 120.45 85.7383 121.105 85.7383H143.17Z" fill="#EBEBEB"/>
<path d="M139.034 93.6172C139.689 93.6174 140.22 94.1479 140.22 94.8029C140.22 95.4578 139.689 95.9883 139.034 95.9885H116.97C116.315 95.9885 115.784 95.4579 115.784 94.8029C115.784 94.1478 116.315 93.6172 116.97 93.6172H139.034Z" fill="#EBEBEB"/>
<path d="M170.439 169.23C171.094 169.231 171.625 169.761 171.625 170.416C171.625 171.071 171.094 171.602 170.439 171.602H148.374C147.719 171.602 147.189 171.071 147.189 170.416C147.189 169.761 147.719 169.23 148.374 169.23H170.439Z" fill="#EBEBEB"/>
<path d="M211.294 164.898C211.949 164.899 212.48 165.429 212.48 166.084C212.48 166.739 211.949 167.27 211.294 167.27H189.23C188.575 167.27 188.044 166.739 188.044 166.084C188.044 165.429 188.575 164.898 189.23 164.898H211.294Z" fill="#EBEBEB"/>
<path d="M277.669 203.355C278.324 203.356 278.855 203.886 278.855 204.541C278.855 205.196 278.324 205.727 277.669 205.727H255.605C254.95 205.727 254.419 205.196 254.419 204.541C254.419 203.886 254.95 203.355 255.605 203.355H277.669Z" fill="#EBEBEB"/>
<path d="M279.634 209.801C280.289 209.801 280.819 210.332 280.819 210.986C280.819 211.641 280.289 212.172 279.634 212.172H257.569C256.914 212.172 256.384 211.642 256.384 210.986C256.384 210.331 256.914 209.801 257.569 209.801H279.634Z" fill="#EBEBEB"/>
<path d="M340.685 77.0742C341.34 77.0745 341.871 77.605 341.871 78.2599C341.871 78.9148 341.34 79.4453 340.685 79.4455H318.62C317.965 79.4455 317.435 78.915 317.435 78.2599C317.435 77.6048 317.965 77.0742 318.62 77.0742H340.685Z" fill="#EBEBEB"/>
<path d="M222.896 66.0469C223.551 66.0471 224.082 66.5776 224.082 67.2325C224.082 67.8875 223.551 68.418 222.896 68.4182H200.832C200.177 68.4182 199.646 67.8876 199.646 67.2325C199.646 66.5775 200.177 66.0469 200.832 66.0469H222.896Z" fill="#EBEBEB"/>
<path d="M219.766 71.5586C220.421 71.5588 220.952 72.0893 220.952 72.7443C220.952 73.3992 220.421 73.9297 219.766 73.9299H197.702C197.047 73.9299 196.516 73.3993 196.516 72.7443C196.516 72.0892 197.047 71.5586 197.702 71.5586H219.766Z" fill="#EBEBEB"/>
<path d="M331.7 81.7969C332.355 81.7971 332.886 82.3276 332.886 82.9825C332.886 83.6375 332.355 84.168 331.7 84.1682H309.636C308.981 84.1682 308.45 83.6376 308.45 82.9825C308.45 82.3275 308.981 81.7969 309.636 81.7969H331.7Z" fill="#EBEBEB"/>
<path d="M164.054 174.352C164.709 174.352 165.24 174.882 165.24 175.537C165.24 176.192 164.709 176.723 164.054 176.723H141.989C141.334 176.723 140.804 176.192 140.804 175.537C140.804 174.882 141.334 174.352 141.989 174.352H164.054Z" fill="#EBEBEB"/>
<path d="M307.05 118.586H252.971C251.187 118.586 249.873 118.21 249.028 117.459C248.277 116.614 247.901 115.3 247.901 113.516V22.2574C247.901 20.4736 248.277 19.2061 249.028 18.455C249.873 17.61 251.187 17.1875 252.971 17.1875H297.896C307.097 17.1875 313.904 18.9714 318.317 22.5391C322.729 26.0129 324.936 31.4115 324.936 38.7347V45.4946C324.936 49.4378 324.232 52.677 322.823 55.2119C321.509 57.653 319.443 59.4838 316.627 60.7043C322.636 61.2677 327.095 63.3332 330.006 66.9009C332.916 70.4686 334.371 75.6794 334.371 82.5332V95.4897C334.371 103.376 332.118 109.197 327.612 112.953C323.199 116.708 316.345 118.586 307.05 118.586ZM279.588 41.1288V56.3386H291.559C293.343 56.3386 294.657 55.8691 295.502 54.9303C296.441 53.9914 296.91 52.5831 296.91 50.7053V46.7621C296.91 44.8843 296.441 43.476 295.502 42.5371C294.657 41.5982 293.343 41.1288 291.559 41.1288H279.588ZM279.588 78.0266V94.6447H297.896C299.68 94.6447 300.994 94.1752 301.839 93.2364C302.778 92.2975 303.248 90.8892 303.248 89.0114V83.519C303.248 81.6413 302.778 80.2799 301.839 79.4349C300.994 78.496 299.68 78.0266 297.896 78.0266H279.588Z" fill="#EBEBEB"/>
<path d="M226.171 118.586H160.826C159.042 118.586 157.727 118.21 156.883 117.459C156.131 116.614 155.756 115.3 155.756 113.516V22.2574C155.756 20.4736 156.131 19.2061 156.883 18.455C157.727 17.61 159.042 17.1875 160.826 17.1875H226.171C227.955 17.1875 229.223 17.61 229.974 18.455C230.819 19.2061 231.241 20.4736 231.241 22.2574V38.7347C231.241 40.5185 230.819 41.833 229.974 42.6779C229.223 43.429 227.955 43.8046 226.171 43.8046H187.302V54.6486H214.764C216.548 54.6486 217.815 55.0711 218.567 55.9161C219.412 56.6672 219.834 57.9347 219.834 59.7185V74.7875C219.834 76.5713 219.412 77.8857 218.567 78.7307C217.815 79.4818 216.548 79.8574 214.764 79.8574H187.302V91.9689H226.171C227.955 91.9689 229.223 92.3914 229.974 93.2364C230.819 93.9875 231.241 95.2549 231.241 97.0388V113.516C231.241 115.3 230.819 116.614 229.974 117.459C229.223 118.21 227.955 118.586 226.171 118.586Z" fill="#EBEBEB"/>
<path d="M111.527 17.1875H132.511C134.295 17.1875 135.562 17.61 136.313 18.455C137.158 19.2061 137.581 20.4736 137.581 22.2574V76.8999C137.581 79.9043 137.44 82.721 137.158 85.3498C136.971 87.8848 136.266 90.8892 135.046 94.363L128.004 113.516C127.535 114.924 126.831 116.145 125.892 117.178C125.047 118.117 123.873 118.586 122.371 118.586H103.641C102.138 118.586 100.777 118.257 99.5564 117.6C98.3359 116.943 97.5378 115.863 97.1623 114.361L90.684 91.4055C90.4024 90.4667 90.0268 89.8564 89.5574 89.5747C89.1818 89.1992 88.7124 89.0114 88.1491 89.0114H86.8816C86.3183 89.0114 85.8019 89.1992 85.3324 89.5747C84.9569 89.8564 84.6283 90.4667 84.3466 91.4055L77.7276 114.361C77.352 115.769 76.6478 116.849 75.6151 117.6C74.5823 118.257 73.3148 118.586 71.8126 118.586H53.2229C51.7207 118.586 50.4063 118.117 49.2797 117.178C48.2469 116.239 47.4958 115.018 47.0264 113.516L39.9848 94.0814C38.7643 90.6075 38.0132 87.6031 37.7315 85.0681C37.5437 82.4393 37.4498 79.6227 37.4498 76.6183V22.2574C37.4498 20.4736 37.8254 19.2061 38.5765 18.455C39.4215 17.61 40.7359 17.1875 42.5198 17.1875H64.2078C65.9916 17.1875 67.2591 17.61 68.0102 18.455C68.8552 19.2061 69.2777 20.4736 69.2777 22.2574V74.0833L77.4459 56.3386C78.197 54.7425 79.1828 53.6158 80.4033 52.9586C81.6239 52.3014 83.1261 51.9728 84.9099 51.9728H90.8249C92.6087 51.9728 94.1109 52.3014 95.3315 52.9586C96.552 53.6158 97.5378 54.7425 98.2889 56.3386L106.457 74.0833V22.2574C106.457 20.4736 106.833 19.2061 107.584 18.455C108.429 17.61 109.743 17.1875 111.527 17.1875Z" fill="#EBEBEB"/>
<path d="M329.662 217.716H273.744C272.217 217.716 271.092 217.394 270.369 216.751C269.727 216.028 269.405 214.904 269.405 213.377V135.284C269.405 133.757 269.727 132.673 270.369 132.03C271.092 131.307 272.217 130.945 273.744 130.945H329.662C331.189 130.945 332.273 131.307 332.916 132.03C333.639 132.673 334.001 133.757 334.001 135.284V149.384C334.001 150.911 333.639 152.035 332.916 152.758C332.273 153.401 331.189 153.723 329.662 153.723H296.4V163.002H319.901C321.427 163.002 322.512 163.364 323.154 164.087C323.878 164.729 324.239 165.814 324.239 167.341V180.236C324.239 181.762 323.878 182.887 323.154 183.61C322.512 184.253 321.427 184.574 319.901 184.574H296.4V194.938H329.662C331.189 194.938 332.273 195.3 332.916 196.023C333.639 196.666 334.001 197.75 334.001 199.277V213.377C334.001 214.904 333.639 216.028 332.916 216.751C332.273 217.394 331.189 217.716 329.662 217.716Z" fill="#EBEBEB"/>
<path d="M231.293 217.716H211.769C210.243 217.716 209.118 217.394 208.395 216.751C207.752 216.028 207.431 214.904 207.431 213.377V154.205H189.715C188.189 154.205 187.064 153.883 186.341 153.24C185.698 152.517 185.377 151.393 185.377 149.866V135.284C185.377 133.757 185.698 132.673 186.341 132.03C187.064 131.307 188.189 130.945 189.715 130.945H253.347C254.873 130.945 255.958 131.307 256.601 132.03C257.324 132.673 257.685 133.757 257.685 135.284V149.866C257.685 151.393 257.324 152.517 256.601 153.24C255.958 153.883 254.873 154.205 253.347 154.205H235.631V213.377C235.631 214.904 235.269 216.028 234.546 216.751C233.904 217.394 232.819 217.716 231.293 217.716Z" fill="#EBEBEB"/>
<path d="M119.761 217.716C118.234 217.716 117.109 217.394 116.386 216.751C115.743 216.028 115.422 214.904 115.422 213.377V199.036C115.422 197.509 115.743 196.425 116.386 195.782C117.109 195.059 118.234 194.697 119.761 194.697H131.691V154.205H119.761C118.234 154.205 117.109 153.883 116.386 153.24C115.743 152.517 115.422 151.393 115.422 149.866V135.284C115.422 133.757 115.743 132.673 116.386 132.03C117.109 131.307 118.234 130.945 119.761 130.945H171.1C172.626 130.945 173.711 131.307 174.353 132.03C175.077 132.673 175.438 133.757 175.438 135.284V149.866C175.438 151.393 175.077 152.517 174.353 153.24C173.711 153.883 172.626 154.205 171.1 154.205H159.41V194.697H171.1C172.626 194.697 173.711 195.059 174.353 195.782C175.077 196.425 175.438 197.509 175.438 199.036V213.377C175.438 214.904 175.077 216.028 174.353 216.751C173.711 217.394 172.626 217.716 171.1 217.716H119.761Z" fill="#EBEBEB"/>
<path d="M79.2207 217.716H41.1382C39.6117 217.716 38.4869 217.394 37.7638 216.751C37.1211 216.028 36.7997 214.904 36.7997 213.377V199.277C36.7997 197.75 37.1211 196.666 37.7638 196.023C38.4869 195.3 39.6117 194.938 41.1382 194.938H73.5565C74.601 194.938 75.3642 194.617 75.8463 193.974C76.4087 193.251 76.6899 192.408 76.6899 191.443C76.6899 190.078 76.4087 189.073 75.8463 188.431C75.3642 187.788 74.601 187.426 73.5565 187.346L55.4794 184.815C49.8554 184.012 45.316 182.164 41.8613 179.272C38.4869 176.379 36.7997 171.559 36.7997 164.81V152.156C36.7997 145.327 39.0091 140.104 43.428 136.489C47.8468 132.793 53.9529 130.945 61.7461 130.945H95.4901C97.0166 130.945 98.1013 131.307 98.744 132.03C99.4671 132.673 99.8286 133.757 99.8286 135.284V149.625C99.8286 151.152 99.4671 152.276 98.744 152.999C98.1013 153.642 97.0166 153.964 95.4901 153.964H67.4103C66.3658 153.964 65.5624 154.325 65 155.048C64.4376 155.691 64.1564 156.535 64.1564 157.579C64.1564 158.623 64.4376 159.507 65 160.23C65.5624 160.953 66.3658 161.355 67.4103 161.435L85.3669 163.846C90.9909 164.649 95.5303 166.497 98.985 169.389C102.44 172.282 104.167 177.102 104.167 183.851V196.505C104.167 203.334 101.918 208.597 97.4184 212.292C92.9995 215.908 86.9336 217.716 79.2207 217.716Z" fill="#EBEBEB"/>
<path d="M24.1519 178.103L6.48669 222.389H47.0886L29.4234 178.103C28.4737 175.721 25.1016 175.721 24.1519 178.103Z" fill="#F60303"/>
<path d="M23.0501 177.666C24.3971 174.289 29.1784 174.289 30.5253 177.666L48.8383 223.578H4.73596L23.0501 177.666ZM28.3219 178.545C27.7691 177.159 25.8063 177.159 25.2535 178.545L8.23738 221.205H45.3381L28.3219 178.545Z" fill="#323139"/>
<path opacity="0.23" d="M8.5865 217.125L6.48669 222.388H47.0898L44.99 217.125H8.5865Z" fill="#323139"/>
<path opacity="0.23" d="M45.7943 215.938L48.8406 223.573H4.73596L7.78233 215.938H45.7943ZM8.23622 221.2H45.3392L44.186 218.309H9.39063L8.23622 221.2Z" fill="#323139"/>
<path d="M27.2182 181.849C27.8249 181.603 28.5171 181.895 28.764 182.501L42.1351 215.36C42.3819 215.966 42.0898 216.658 41.4833 216.905C40.8765 217.152 40.1844 216.86 39.9375 216.253L26.5663 183.395C26.3195 182.788 26.6115 182.096 27.2182 181.849Z" fill="white" fill-opacity="0.16"/>
<path d="M50.0221 225.479H3.55581C2.25157 225.479 1.18567 224.411 1.18567 223.108C1.18567 221.804 2.25276 220.738 3.55581 220.738H50.0221C51.3263 220.738 52.3922 221.805 52.3922 223.108C52.3922 224.411 51.3251 225.479 50.0221 225.479Z" fill="#890101"/>
<path d="M51.2059 223.107C51.2059 222.458 50.6711 221.922 50.0226 221.922H3.55584C2.90749 221.922 2.37133 222.458 2.37133 223.107C2.37135 223.755 2.90709 224.291 3.55584 224.291H50.0226C50.6703 224.291 51.2059 223.754 51.2059 223.107ZM53.5784 223.107C53.5784 225.065 51.9805 226.662 50.0226 226.662H3.55584C1.59615 226.662 1.96746e-05 225.064 0 223.107C0 221.147 1.59809 219.551 3.55584 219.551H50.0226C51.982 219.551 53.5784 221.149 53.5784 223.107Z" fill="#323139"/>
<path opacity="0.23" d="M50.0221 223.108H3.55581C2.68553 223.108 1.92907 222.626 1.51646 221.922C1.31134 222.273 1.18567 222.674 1.18567 223.108C1.18567 224.412 2.25276 225.478 3.55581 225.478H50.0221C51.3263 225.478 52.3922 224.411 52.3922 223.108C52.3922 222.675 52.2653 222.273 52.0602 221.922C51.6488 222.626 50.8923 223.108 50.0221 223.108Z" fill="#B10202"/>
<path d="M11.3813 210.117H42.1944L36.8613 196.746H16.7156L11.3813 210.117Z" fill="#323139"/>
<path d="M37.6651 195.562L43.9443 211.305H9.63062L15.6134 196.308L15.9121 195.562H37.6651ZM13.1309 208.932H40.444L36.0568 197.934H17.5192L13.1309 208.932Z" fill="#323139"/>
<path d="M33.4725 197.224C34.0792 196.978 34.7713 197.27 35.0182 197.876L39.0801 207.857C39.3269 208.464 39.0349 209.156 38.4282 209.403C37.8215 209.65 37.1293 209.358 36.8824 208.751L32.8206 198.77C32.5738 198.163 32.8658 197.471 33.4725 197.224Z" fill="white"/>
<path d="M168.569 202.574H165.232V228.927H168.569V202.574Z" fill="white"/>
<path d="M168.57 201.387C169.225 201.387 169.756 201.917 169.756 202.572V228.924C169.756 229.579 169.225 230.111 168.57 230.111H165.232C164.577 230.111 164.046 229.58 164.046 228.924V202.572C164.046 201.917 164.577 201.387 165.232 201.387H168.57ZM166.417 227.739H167.383V203.758H166.417V227.739Z" fill="#323139"/>
<path opacity="0.57" d="M168.569 202.574H165.232V210.614H168.569V202.574Z" fill="#323139"/>
<path opacity="0.57" d="M169.756 201.387V211.798H164.046V201.387H169.756ZM166.417 209.426H167.383V203.758H166.417V209.426Z" fill="#323139"/>
<path d="M171.095 227.742C171.75 227.742 172.281 228.273 172.281 228.928C172.281 229.583 171.75 230.113 171.095 230.114H162.708C162.053 230.114 161.522 229.583 161.522 228.928C161.522 228.273 162.053 227.742 162.708 227.742H171.095Z" fill="#323139"/>
<path d="M215.941 202.574H212.603V228.927H215.941V202.574Z" fill="white"/>
<path d="M215.941 201.387C216.596 201.387 217.127 201.917 217.127 202.572V228.924C217.127 229.579 216.596 230.111 215.941 230.111H212.603C211.948 230.111 211.417 229.58 211.417 228.924V202.572C211.417 201.917 211.948 201.387 212.603 201.387H215.941ZM213.789 227.739H214.754V203.758H213.789V227.739Z" fill="#323139"/>
<path opacity="0.57" d="M215.941 202.574H212.603V210.614H215.941V202.574Z" fill="#323139"/>
<path opacity="0.57" d="M217.127 201.387V211.798H211.417V201.387H217.127ZM213.789 209.426H214.754V203.758H213.789V209.426Z" fill="#323139"/>
<path d="M218.465 227.742C219.12 227.742 219.651 228.273 219.651 228.928C219.651 229.583 219.12 230.113 218.465 230.114H210.077C209.422 230.114 208.892 229.583 208.892 228.928C208.892 228.273 209.422 227.742 210.077 227.742H218.465Z" fill="#323139"/>
<path d="M228.369 203.598H152.804C151.604 203.598 150.63 202.626 150.63 201.426V188.215C150.63 187.015 151.603 186.043 152.804 186.043H228.369C229.569 186.043 230.541 187.015 230.541 188.215V201.426C230.541 202.626 229.569 203.598 228.369 203.598Z" fill="#F60303"/>
<path d="M229.355 188.213C229.355 187.669 228.914 187.227 228.369 187.227H152.804C152.257 187.227 151.816 187.669 151.816 188.213V201.424C151.816 201.967 152.258 202.41 152.804 202.41H228.369C228.914 202.41 229.355 201.968 229.355 201.424V188.213ZM231.727 201.424C231.727 203.278 230.224 204.782 228.369 204.783H152.804C150.95 204.783 149.445 203.279 149.445 201.424V188.213C149.445 186.358 150.948 184.855 152.804 184.855H228.369C230.224 184.856 231.727 186.358 231.727 188.213V201.424Z" fill="#323139"/>
<path opacity="0.23" d="M228.369 194.821H152.804C151.604 194.821 150.63 193.848 150.63 192.648V201.426C150.63 202.626 151.604 203.598 152.804 203.598H228.369C229.569 203.598 230.541 202.626 230.541 201.426V192.648C230.541 193.848 229.569 194.821 228.369 194.821Z" fill="#323139"/>
<path opacity="0.23" d="M229.355 195.858C229.043 195.954 228.712 196.006 228.369 196.006H152.804C152.46 196.006 152.129 195.954 151.816 195.858V201.426C151.816 201.97 152.258 202.412 152.804 202.412H228.369C228.914 202.411 229.354 201.971 229.355 201.426V195.858ZM231.727 201.426C231.727 203.281 230.224 204.784 228.369 204.784H152.804C150.95 204.784 149.445 203.282 149.445 201.426V192.648H151.816C151.816 193.192 152.258 193.635 152.804 193.635H228.369C228.914 193.635 229.355 193.193 229.355 192.648H231.727V201.426Z" fill="#323139"/>
<path d="M154.612 203.598H159.434L165.367 186.043H160.546L154.612 203.598Z" fill="#323139"/>
<path d="M167.02 184.855L160.285 204.783H152.958L159.695 184.855H167.02ZM156.264 202.41H158.582L163.714 187.227H161.398L156.264 202.41Z" fill="#323139"/>
<path d="M166.85 203.598H171.672L177.605 186.043H172.785L166.85 203.598Z" fill="#323139"/>
<path d="M179.258 184.855L172.524 204.783H165.197L171.933 184.855H179.258ZM168.503 202.41H170.821L175.952 187.227H173.637L168.503 202.41Z" fill="#323139"/>
<path d="M179.089 203.598H183.911L189.844 186.043H185.023L179.089 203.598Z" fill="#323139"/>
<path d="M191.497 184.855L184.762 204.783H177.435L184.172 184.855H191.497ZM180.741 202.41H183.059L188.191 187.227H185.875L180.741 202.41Z" fill="#323139"/>
<path d="M191.328 203.598H196.149L202.084 186.043H197.261L191.328 203.598Z" fill="#323139"/>
<path d="M203.736 184.855L197.001 204.783H189.675L196.41 184.855H203.736ZM192.981 202.41H195.298L200.43 187.227H198.114L192.981 202.41Z" fill="#323139"/>
<path d="M203.567 203.598H208.388L214.322 186.043H209.5L203.567 203.598Z" fill="#323139"/>
<path d="M215.975 184.855L209.239 204.783H201.913L208.649 184.855H215.975ZM205.219 202.41H207.536L212.669 187.227H210.352L205.219 202.41Z" fill="#323139"/>
<path d="M215.805 203.598H220.626L226.56 186.043H221.738L215.805 203.598Z" fill="#323139"/>
<path d="M228.213 184.855L221.478 204.783H214.152L220.887 184.855H228.213ZM217.458 202.41H219.775L224.907 187.227H222.59L217.458 202.41Z" fill="#323139"/>
<path opacity="0.42" d="M225.443 188.012C226.099 188.012 226.63 188.542 226.63 189.197C226.63 189.852 226.099 190.383 225.443 190.383H155.729C155.074 190.383 154.543 189.852 154.543 189.197C154.543 188.542 155.074 188.012 155.729 188.012H225.443Z" fill="#FFEAA6"/>
<path d="M49.7552 185.509L32.09 229.795H72.6919L55.0266 185.509C54.0781 183.127 50.7061 183.127 49.7552 185.509Z" fill="#F60303"/>
<path d="M48.6534 185.068C50.0009 181.692 54.7823 181.689 56.1286 185.068L74.4416 230.98H30.3392L48.6534 185.068ZM53.9252 185.947C53.3739 184.563 51.4109 184.56 50.8568 185.948L33.8407 228.608H70.9413L53.9252 185.947Z" fill="#323139"/>
<path opacity="0.23" d="M34.1898 224.531L32.09 229.793H72.6931L70.5932 224.531H34.1898Z" fill="#323139"/>
<path opacity="0.23" d="M71.3975 223.344L74.4439 230.978H30.3392L33.3856 223.344H71.3975ZM33.8395 228.605H70.9425L69.7892 225.715H34.9939L33.8395 228.605Z" fill="#323139"/>
<path d="M52.8215 189.256C53.4282 189.009 54.1204 189.301 54.3672 189.908L67.7384 222.766C67.9851 223.372 67.6931 224.065 67.0865 224.312C66.4797 224.558 65.7877 224.266 65.5408 223.66L52.1696 190.801C51.9228 190.195 52.2148 189.503 52.8215 189.256Z" fill="white" fill-opacity="0.16"/>
<path d="M75.6253 232.885H29.1591C27.8549 232.885 26.7889 231.818 26.7889 230.515C26.7889 229.212 27.856 228.145 29.1591 228.145H75.6253C76.9296 228.145 77.9955 229.212 77.9955 230.515C77.9955 231.818 76.9284 232.885 75.6253 232.885Z" fill="#890101"/>
<path d="M76.8092 230.513C76.8092 229.865 76.2744 229.329 75.6259 229.328H29.1591C28.5111 229.328 27.9746 229.865 27.9746 230.513C27.9746 231.161 28.5104 231.697 29.1591 231.697H75.6259C76.2735 231.697 76.8092 231.161 76.8092 230.513ZM79.1817 230.513C79.1817 232.471 77.5838 234.068 75.6259 234.069H29.1591C27.1994 234.069 25.6033 232.471 25.6033 230.513C25.6033 228.555 27.201 226.957 29.1591 226.957H75.6259C77.5853 226.957 79.1817 228.555 79.1817 230.513Z" fill="#323139"/>
<path opacity="0.23" d="M75.6253 230.514H29.1591C28.2888 230.514 27.5324 230.032 27.1197 229.328C26.9146 229.679 26.7889 230.08 26.7889 230.514C26.7889 231.818 27.856 232.884 29.1591 232.884H75.6253C76.9296 232.884 77.9955 231.817 77.9955 230.514C77.9955 230.081 77.8698 229.679 77.6647 229.328C77.2521 230.034 76.4956 230.514 75.6253 230.514Z" fill="#B10202"/>
<path d="M36.9857 217.523H67.7988L62.4645 204.152H42.3188L36.9857 217.523Z" fill="#323139"/>
<path d="M63.2684 202.965L69.5487 218.707H35.2362L41.2166 203.711L41.5154 202.965H63.2684ZM38.7365 216.335H66.0485L61.6601 205.336H43.1225L38.7365 216.335Z" fill="#323139"/>
<path d="M59.0769 204.631C59.6836 204.384 60.3758 204.676 60.6226 205.283L64.6833 215.265C64.9302 215.871 64.6382 216.564 64.0314 216.81C63.4247 217.057 62.7325 216.765 62.4857 216.158L58.425 206.176C58.1782 205.57 58.4701 204.878 59.0769 204.631Z" fill="white"/>
<path d="M296.17 224.758C296.825 224.758 297.355 225.288 297.355 225.943C297.355 226.599 296.825 227.129 296.17 227.129H268.602C267.947 227.129 267.416 226.599 267.416 225.943C267.416 225.288 267.947 224.758 268.602 224.758H296.17Z" fill="#323139"/>
<path d="M292.243 229.266C292.898 229.266 293.429 229.796 293.429 230.451C293.429 231.106 292.898 231.637 292.243 231.637H285.93C285.275 231.637 284.745 231.106 284.745 230.451C284.745 229.796 285.275 229.266 285.93 229.266H292.243Z" fill="#323139"/>
<path d="M168.57 232.984C169.225 232.985 169.756 233.515 169.756 234.17C169.756 234.825 169.225 235.355 168.57 235.356H165.232C164.577 235.356 164.046 234.825 164.046 234.17C164.046 233.515 164.577 232.984 165.232 232.984H168.57Z" fill="#323139"/>
<path d="M154.364 225.785C155.019 225.785 155.551 226.316 155.551 226.971C155.551 227.626 155.019 228.156 154.364 228.156H136.666C136.011 228.156 135.48 227.626 135.48 226.971C135.48 226.316 136.011 225.785 136.666 225.785H154.364Z" fill="#323139"/>
<path d="M236.13 222.832C236.785 222.832 237.317 223.363 237.317 224.018C237.317 224.673 236.785 225.203 236.13 225.203H225.444C224.789 225.203 224.258 224.673 224.258 224.018C224.258 223.363 224.789 222.832 225.444 222.832H236.13Z" fill="#323139"/>
<path d="M128.003 225.785C128.657 225.785 129.188 226.316 129.188 226.971C129.188 227.626 128.657 228.156 128.003 228.156H121.7C121.045 228.156 120.515 227.626 120.515 226.971C120.515 226.316 121.045 225.785 121.7 225.785H128.003Z" fill="#323139"/>
<path d="M67.7983 237.629C68.4534 237.629 68.9852 238.159 68.9852 238.815C68.9852 239.47 68.4534 240 67.7983 240H42.1942C41.5391 240 41.0085 239.47 41.0085 238.815C41.0085 238.159 41.5391 237.629 42.1942 237.629H67.7983Z" fill="#323139"/>
<path d="M13.3619 231.699C14.017 231.699 14.5488 232.23 14.5488 232.885C14.5488 233.54 14.017 234.071 13.3619 234.071H7.41394C6.75885 234.071 6.22827 233.54 6.22827 232.885C6.22827 232.23 6.75885 231.699 7.41394 231.699H13.3619Z" fill="#323139"/>
<path d="M33.3061 164.422C33.9612 164.422 34.4929 164.952 34.4929 165.608C34.4929 166.263 33.9612 166.793 33.3061 166.793H11.993C11.338 166.793 10.8074 166.263 10.8074 165.608C10.8074 164.952 11.338 164.422 11.993 164.422H33.3061Z" fill="white"/>
<path d="M142.575 190.812C143.229 190.813 143.76 191.343 143.76 191.998C143.76 192.653 143.229 193.184 142.575 193.184H121.7C121.045 193.184 120.515 192.653 120.515 191.998C120.515 191.343 121.045 190.812 121.7 190.812H142.575Z" fill="white"/>
<path d="M132.136 183.016C132.791 183.016 133.323 183.546 133.323 184.201C133.323 184.856 132.791 185.387 132.136 185.387H124.851C124.195 185.387 123.665 184.856 123.665 184.201C123.665 183.546 124.195 183.016 124.851 183.016H132.136Z" fill="white"/>
<path d="M243.691 176.754C244.346 176.754 244.877 177.285 244.877 177.94C244.877 178.595 244.346 179.125 243.691 179.125H221.182C220.527 179.125 219.997 178.595 219.997 177.94C219.997 177.284 220.527 176.754 221.182 176.754H243.691Z" fill="white"/>
<path d="M243.691 170.449C244.346 170.449 244.877 170.98 244.877 171.635C244.877 172.29 244.346 172.82 243.691 172.821H232.437C231.782 172.821 231.251 172.29 231.251 171.635C231.251 170.98 231.782 170.449 232.437 170.449H243.691Z" fill="white"/>
<path d="M268.602 164.898C269.257 164.898 269.789 165.429 269.789 166.084C269.789 166.739 269.257 167.27 268.602 167.27H255.605C254.95 167.27 254.419 166.739 254.419 166.084C254.419 165.429 254.95 164.898 255.605 164.898H268.602Z" fill="white"/>
<path d="M264.663 90.8594C265.318 90.8595 265.849 91.39 265.849 92.045C265.849 92.7001 265.318 93.2306 264.663 93.2307H234.337C233.682 93.2307 233.152 92.7001 233.152 92.045C233.152 91.39 233.682 90.8594 234.337 90.8594H264.663Z" fill="white"/>
<path d="M249.501 96.3711C250.156 96.3711 250.688 96.9017 250.688 97.5568C250.688 98.2118 250.156 98.7424 249.501 98.7424H237.883C237.227 98.7424 236.697 98.2118 236.697 97.5568C236.697 96.9017 237.227 96.3711 237.883 96.3711H249.501Z" fill="white"/>
<path d="M161.954 64.4688C162.609 64.4689 163.14 64.9994 163.14 65.6544C163.14 66.3094 162.609 66.8399 161.954 66.8401H145.515C144.86 66.8401 144.33 66.3095 144.33 65.6544C144.33 64.9993 144.86 64.4688 145.515 64.4688H161.954Z" fill="white"/>
<path d="M155.411 71.5625C156.066 71.5627 156.597 72.0932 156.597 72.7482C156.597 73.4032 156.066 73.9337 155.411 73.9338H150.632C149.977 73.9338 149.446 73.4033 149.446 72.7482C149.446 72.0931 149.977 71.5625 150.632 71.5625H155.411Z" fill="white"/>
<path d="M115.399 40.4453C116.054 40.4454 116.584 40.9759 116.584 41.631C116.584 42.286 116.054 42.8166 115.399 42.8166H100.433C99.778 42.8166 99.2474 42.2861 99.2474 41.631C99.2474 40.9759 99.778 40.4453 100.433 40.4453H115.399Z" fill="white"/>
<path d="M107.916 47.5391C108.571 47.5392 109.102 48.0697 109.102 48.7247C109.102 49.3797 108.571 49.9102 107.916 49.9104H104.372C103.717 49.9104 103.186 49.3798 103.186 48.7247C103.186 48.0696 103.717 47.5391 104.372 47.5391H107.916Z" fill="white"/>
<path d="M45.3303 75.5C45.9854 75.5 46.5172 76.0306 46.5172 76.6857C46.5172 77.3408 45.9854 77.8713 45.3303 77.8713H25.2655C24.6104 77.8713 24.0798 77.3408 24.0798 76.6857C24.0798 76.0306 24.6104 75.5 25.2655 75.5H45.3303Z" fill="white"/>
<path d="M39.3881 81.8008C40.0431 81.8009 40.5738 82.3314 40.5738 82.9864C40.5738 83.6415 40.0431 84.172 39.3881 84.1721H30.6531C29.998 84.1721 29.4674 83.6415 29.4674 82.9864C29.4674 82.3314 29.998 81.8008 30.6531 81.8008H39.3881Z" fill="white"/>
<path d="M326.894 42.4141C327.549 42.4141 328.08 42.9447 328.08 43.5997C328.08 44.2548 327.549 44.7854 326.894 44.7854H310.348C309.693 44.7854 309.162 44.2548 309.162 43.5997C309.162 42.9446 309.693 42.4141 310.348 42.4141H326.894Z" fill="white"/>
<path d="M324.212 47.5391C324.867 47.5391 325.399 48.0696 325.399 48.7247C325.399 49.3798 324.867 49.9104 324.212 49.9104H315.36C314.705 49.9104 314.174 49.3798 314.174 48.7247C314.174 48.0696 314.705 47.5391 315.36 47.5391H324.212Z" fill="white"/>
<path d="M215.941 232.984C216.596 232.985 217.127 233.515 217.127 234.17C217.127 234.825 216.596 235.355 215.941 235.356H212.603C211.948 235.356 211.417 234.825 211.417 234.17C211.417 233.515 211.948 232.984 212.603 232.984H215.941Z" fill="#323139"/>
<path d="M45.1587 156.883C45.8137 156.883 46.3444 157.413 46.3444 158.068C46.3444 158.723 45.8137 159.254 45.1587 159.254H24.171C23.5159 159.254 22.9854 158.724 22.9854 158.068C22.9854 157.413 23.5159 156.883 24.171 156.883H45.1587Z" fill="white"/>
<path d="M323.351 180.516C324.006 180.516 324.537 181.046 324.537 181.701C324.537 182.356 324.006 182.887 323.351 182.887H302.039C301.384 182.887 300.853 182.356 300.853 181.701C300.853 181.046 301.384 180.516 302.039 180.516H323.351Z" fill="white"/>
<path d="M331.268 175.035C331.923 175.035 332.453 175.566 332.453 176.221C332.453 176.876 331.923 177.406 331.268 177.406H310.28C309.625 177.406 309.094 176.876 309.094 176.221C309.094 175.566 309.625 175.035 310.28 175.035H331.268Z" fill="white"/>
<path d="M338.972 138.438H335.03V227.659H338.972V138.438Z" fill="white"/>
<path d="M338.972 137.25C339.627 137.25 340.158 137.781 340.158 138.436V227.657C340.158 228.312 339.627 228.843 338.972 228.843H335.03C334.375 228.843 333.844 228.312 333.844 227.657V138.436C333.844 137.781 334.375 137.25 335.03 137.25H338.972ZM336.215 226.471H337.786V139.621H336.215V226.471Z" fill="#323139"/>
<path opacity="0.57" d="M338.972 138.438H335.03V147.935H338.972V138.438Z" fill="#323139"/>
<path opacity="0.57" d="M340.158 137.25V149.119H333.844V137.25H340.158ZM336.215 146.747H337.786V139.621H336.215V146.747Z" fill="#323139"/>
<path d="M341.956 226.473C342.611 226.473 343.142 227.003 343.142 227.658C343.142 228.313 342.611 228.844 341.956 228.844H332.048C331.393 228.844 330.862 228.313 330.862 227.658C330.862 227.003 331.393 226.473 332.048 226.473H341.956Z" fill="#323139"/>
<path d="M368.083 113.432L343.217 138.298C339.784 141.73 334.22 141.73 330.788 138.298L305.922 113.432C302.489 109.999 302.489 104.435 305.922 101.003L330.788 76.1369C334.22 72.7044 339.784 72.7044 343.217 76.1369L368.083 101.003C371.515 104.434 371.515 109.999 368.083 113.432Z" fill="#F60303"/>
<path d="M329.948 75.2968C333.844 71.4011 340.16 71.4011 344.056 75.2968L368.921 100.162C372.817 104.057 372.817 110.374 368.921 114.27L344.056 139.135C340.16 143.031 333.844 143.031 329.948 139.135L305.083 114.27C301.187 110.374 301.187 104.058 305.083 100.162L329.948 75.2968ZM342.378 76.9746C339.409 74.0053 334.595 74.0053 331.626 76.9746L306.761 101.84C303.791 104.809 303.791 109.623 306.761 112.592L331.626 137.457C334.595 140.427 339.409 140.427 342.378 137.457L367.244 112.592C370.213 109.623 370.213 104.808 367.244 101.84L342.378 76.9746Z" fill="#323139"/>
<path d="M360.781 111.973L341.756 130.998C339.13 133.624 334.872 133.624 332.247 130.998L313.222 111.973C310.596 109.346 310.596 105.089 313.222 102.464L332.247 83.4384C334.873 80.8122 339.131 80.8122 341.756 83.4384L360.781 102.464C363.408 105.089 363.408 109.346 360.781 111.973Z" fill="#F60303"/>
<path d="M329.679 128.428C330.142 127.965 330.893 127.965 331.356 128.428L333.086 130.157V130.158C333.668 130.74 334.345 131.163 335.065 131.432C335.679 131.66 335.992 132.344 335.763 132.958C335.535 133.571 334.851 133.883 334.237 133.655C333.333 133.318 332.478 132.811 331.725 132.134L331.408 131.835L329.679 130.105C329.216 129.642 329.216 128.891 329.679 128.428ZM342.647 128.428C343.11 127.965 343.861 127.965 344.325 128.428C344.787 128.891 344.787 129.642 344.325 130.105L342.595 131.835C341.767 132.662 340.799 133.27 339.766 133.655C339.152 133.883 338.468 133.57 338.24 132.957C338.012 132.343 338.324 131.66 338.938 131.432C339.659 131.163 340.335 130.739 340.917 130.157L342.647 128.428ZM323.337 122.086C323.8 121.623 324.551 121.623 325.015 122.086L328.473 125.545C328.936 126.008 328.936 126.76 328.473 127.223C328.01 127.686 327.26 127.686 326.797 127.223L323.337 123.763C322.874 123.3 322.874 122.55 323.337 122.086ZM348.988 122.086C349.452 121.623 350.203 121.623 350.666 122.086C351.129 122.55 351.129 123.3 350.666 123.763L347.207 127.223C346.743 127.686 345.993 127.686 345.53 127.223C345.067 126.76 345.067 126.008 345.53 125.545L348.988 122.086ZM316.995 115.745C317.458 115.282 318.21 115.282 318.673 115.745L322.132 119.203C322.595 119.667 322.595 120.418 322.132 120.881C321.668 121.344 320.918 121.344 320.455 120.881L316.995 117.421C316.532 116.958 316.532 116.208 316.995 115.745ZM355.33 115.745C355.793 115.282 356.545 115.282 357.008 115.745C357.471 116.208 357.471 116.958 357.008 117.421L353.548 120.881C353.085 121.344 352.335 121.344 351.872 120.881C351.408 120.418 351.408 119.667 351.872 119.203L355.33 115.745ZM311.26 108.455C311.874 108.226 312.558 108.539 312.786 109.153C313.055 109.873 313.478 110.55 314.06 111.132L315.79 112.862C316.253 113.325 316.253 114.076 315.79 114.539C315.327 115.002 314.576 115.002 314.113 114.539L312.383 112.81C311.556 111.982 310.948 111.014 310.563 109.981C310.335 109.367 310.647 108.683 311.26 108.455ZM361.217 109.153C361.445 108.539 362.128 108.227 362.742 108.455C363.356 108.683 363.669 109.367 363.44 109.981C363.055 111.014 362.447 111.982 361.62 112.81L359.89 114.539C359.427 115.002 358.676 115.002 358.213 114.539C357.75 114.076 357.75 113.325 358.213 112.862L359.943 111.132C360.525 110.55 360.949 109.873 361.217 109.153ZM314.113 99.8934C314.576 99.4307 315.327 99.4305 315.79 99.8934C316.253 100.357 316.253 101.108 315.79 101.571L314.06 103.301C313.478 103.883 313.055 104.559 312.786 105.28C312.558 105.894 311.874 106.207 311.26 105.978C310.646 105.749 310.335 105.066 310.563 104.452C310.948 103.419 311.556 102.451 312.383 101.623L314.113 99.8934ZM358.213 99.8934C358.676 99.4306 359.427 99.4306 359.89 99.8934L361.62 101.623C362.448 102.451 363.055 103.419 363.44 104.452C363.668 105.066 363.357 105.749 362.743 105.978C362.129 106.207 361.445 105.894 361.217 105.28C360.949 104.56 360.525 103.883 359.943 103.301L358.213 101.571C357.75 101.108 357.75 100.357 358.213 99.8934ZM320.455 93.5517C320.918 93.0889 321.668 93.0888 322.132 93.5517C322.595 94.0149 322.595 94.7663 322.132 95.2295L318.673 98.6881C318.21 99.1513 317.458 99.1513 316.995 98.6881C316.532 98.225 316.532 97.4746 316.995 97.0115L320.455 93.5517ZM351.872 93.5517C352.335 93.0889 353.085 93.0889 353.548 93.5517L357.008 97.0115C357.471 97.4746 357.471 98.225 357.008 98.6881C356.545 99.1513 355.793 99.1513 355.33 98.6881L351.872 95.2295C351.408 94.7663 351.408 94.0149 351.872 93.5517ZM326.797 87.21C327.26 86.7472 328.01 86.7471 328.473 87.21C328.936 87.6732 328.936 88.4246 328.473 88.8878L325.015 92.3464C324.551 92.8096 323.8 92.8096 323.337 92.3464C322.874 91.8833 322.874 91.1329 323.337 90.6698L326.797 87.21ZM345.53 87.21C345.993 86.7472 346.743 86.7472 347.207 87.21L350.666 90.6698C351.129 91.1329 351.129 91.8833 350.666 92.3464C350.203 92.8096 349.452 92.8096 348.988 92.3464L345.53 88.8878C345.067 88.4246 345.067 87.6732 345.53 87.21ZM334.237 80.778C334.851 80.5495 335.535 80.8614 335.763 81.4751C335.992 82.089 335.679 82.7726 335.065 83.0012C334.345 83.2694 333.668 83.693 333.086 84.2748L331.356 86.0047C330.893 86.4679 330.142 86.4679 329.679 86.0047C329.216 85.5416 329.216 84.7912 329.679 84.3281L331.408 82.5982C332.236 81.7706 333.204 81.1628 334.237 80.778ZM338.24 81.4751C338.469 80.8613 339.152 80.5495 339.766 80.778C340.799 81.1628 341.767 81.7704 342.595 82.5982L344.325 84.3281C344.787 84.7912 344.787 85.5416 344.325 86.0047C343.861 86.4679 343.11 86.4679 342.647 86.0047L340.917 84.2748C340.335 83.6928 339.658 83.2694 338.938 83.0012C338.324 82.7726 338.011 82.089 338.24 81.4751Z" fill="white"/>
<path opacity="0.23" d="M368.083 101.934L343.217 126.799C339.784 130.232 334.22 130.232 330.788 126.799L305.922 101.934C305.777 101.789 305.674 101.621 305.541 101.469C302.531 104.921 302.634 110.145 305.922 113.433L330.788 138.299C334.22 141.732 339.784 141.732 343.217 138.299L368.083 113.433C371.371 110.145 371.474 104.921 368.463 101.469C368.331 101.621 368.227 101.789 368.083 101.934Z" fill="#323139"/>
<path opacity="0.23" d="M369.357 100.688C372.769 104.6 372.66 110.533 368.922 114.271L344.055 139.136C340.16 143.031 333.844 143.032 329.949 139.136L305.083 114.271C301.346 110.533 301.236 104.6 304.647 100.688L305.54 99.6641L306.434 100.685C306.533 100.799 306.626 100.925 306.67 100.982C306.726 101.055 306.748 101.08 306.761 101.093L331.627 125.958C334.596 128.928 339.409 128.928 342.379 125.958L367.244 101.093C367.257 101.08 367.28 101.055 367.336 100.982C367.379 100.925 367.471 100.799 367.571 100.685L368.464 99.6641L369.357 100.688ZM305.645 103.332C303.885 106.254 304.249 110.081 306.761 112.593L331.627 137.458C334.596 140.428 339.409 140.428 342.379 137.458L367.244 112.593C369.756 110.081 370.118 106.255 368.358 103.333L344.055 127.636C340.16 131.532 333.845 131.532 329.949 127.636L305.645 103.332Z" fill="#323139"/>
<path d="M339.71 108.562H334.654C334.241 108.562 333.937 108.475 333.741 108.302C333.567 108.106 333.469 107.801 333.448 107.388L332.958 94.7991C332.937 94.386 333.013 94.0925 333.187 93.9185C333.361 93.7228 333.654 93.625 334.067 93.625H340.297C340.71 93.625 341.003 93.7228 341.177 93.9185C341.351 94.0925 341.427 94.386 341.406 94.7991L340.949 107.388C340.927 107.801 340.819 108.106 340.623 108.302C340.427 108.475 340.123 108.562 339.71 108.562ZM340.199 117.107H334.198C333.785 117.107 333.48 117.02 333.285 116.846C333.111 116.651 333.024 116.346 333.024 115.933V111.661C333.024 111.248 333.111 110.954 333.285 110.78C333.48 110.585 333.785 110.487 334.198 110.487H340.199C340.612 110.487 340.906 110.585 341.079 110.78C341.275 110.954 341.373 111.248 341.373 111.661V115.933C341.373 116.346 341.275 116.651 341.079 116.846C340.906 117.02 340.612 117.107 340.199 117.107Z" fill="white"/>
<path d="M193.051 19.7604C190.041 8.35668 178.438 1.43121 166.945 4.26851C155.453 7.1058 148.406 18.6352 151.048 30.1302L193.051 19.7604Z" fill="#F60303"/>
<path d="M166.656 3.09691C178.789 0.101533 191.037 7.41272 194.215 19.4496L194.528 20.6329L150.148 31.5888L149.874 30.3962C147.086 18.2632 154.524 6.09247 166.656 3.09691ZM191.538 18.8903C188.234 8.82475 177.686 2.85344 167.234 5.43351C156.782 8.01384 150.223 18.2083 151.983 28.6559L191.538 18.8903Z" fill="#323139"/>
<path d="M165.05 23.6627L160.218 8.84663C159.526 6.04609 161.252 3.18983 164.052 2.49859L168.683 1.35561C171.484 0.664366 174.34 2.3895 175.031 5.19004L177.649 20.5539" fill="#F60303"/>
<path d="M168.395 0.187769C171.733 -0.636123 175.13 1.32752 176.112 4.58423L176.2 4.90264L176.219 4.98948L178.837 20.3533C178.948 21.0086 178.507 21.63 177.851 21.7416C177.196 21.8532 176.575 21.4127 176.463 20.7574L173.854 5.45148C173.31 3.31337 171.117 1.99594 168.972 2.52552L164.34 3.66835C162.196 4.19785 160.868 6.38299 161.379 8.52795L166.195 23.2909C166.401 23.9229 166.056 24.6027 165.424 24.8089C164.792 25.015 164.112 24.6696 163.906 24.0377L159.073 9.22152C159.064 9.19355 159.056 9.1644 159.049 9.13584C158.198 5.69009 160.318 2.18117 163.764 1.33059L168.395 0.187769Z" fill="#323139"/>
<path opacity="0.23" d="M151.059 20.4741C150.353 23.5615 150.293 26.8435 151.048 30.1289L193.051 19.7603C192.19 16.5009 190.61 13.6233 188.549 11.2188L151.059 20.4741Z" fill="#323139"/>
<path d="M194.468 22.8139L151.214 33.492C149.449 33.9272 147.651 32.8411 147.216 31.0768C146.781 29.3126 147.867 27.5139 149.631 27.0788L192.885 16.4007C194.649 15.9655 196.448 17.0516 196.883 18.8159C197.32 20.5801 196.232 22.3788 194.468 22.8139Z" fill="#890101"/>
<path d="M192.597 15.2289C195.006 14.6347 197.458 16.1144 198.053 18.5242L198.102 18.75C198.555 21.0857 197.091 23.4041 194.757 23.9801L151.502 34.6581C149.093 35.2523 146.641 33.773 146.047 31.3628C145.452 28.9535 146.933 26.5025 149.343 25.908L192.597 15.2289ZM195.715 19.102C195.439 17.9838 194.292 17.2906 193.173 17.5667L149.92 28.2446V28.2458C148.801 28.5216 148.108 29.6669 148.384 30.7861C148.66 31.9044 149.807 32.5964 150.926 32.3203L194.179 21.6424C195.228 21.3837 195.903 20.3607 195.755 19.3127L195.715 19.102Z" fill="#323139"/>
<path opacity="0.23" d="M193.585 19.2327L150.33 29.9108C149.228 30.1823 148.112 29.861 147.324 29.1496C147.103 29.7472 147.052 30.4135 147.216 31.0751C147.651 32.8394 149.451 33.9255 151.214 33.4903L194.468 22.8122C196.232 22.3771 197.318 20.5772 196.883 18.8142C196.72 18.1526 196.365 17.587 195.892 17.1602C195.524 18.1561 194.687 18.9612 193.585 19.2327Z" fill="#B10202"/>
</svg>
